<?xml version="1.0" encoding="UTF-8" standalone="no"?>
<!-- Created with Inkscape (http://www.inkscape.org/) -->

<svg
   xmlns:dc="http://purl.org/dc/elements/1.1/"
   xmlns:cc="http://creativecommons.org/ns#"
   xmlns:rdf="http://www.w3.org/1999/02/22-rdf-syntax-ns#"
   xmlns:svg="http://www.w3.org/2000/svg"
   xmlns="http://www.w3.org/2000/svg"
   xmlns:sodipodi="http://sodipodi.sourceforge.net/DTD/sodipodi-0.dtd"
   xmlns:inkscape="http://www.inkscape.org/namespaces/inkscape"
   width="2.5855012in"
   height="1.7800965in"
   viewBox="0 0 65.671731 45.214452"
   version="1.1"
   id="svg8"
   sodipodi:docname="fig-key_idea.svg"
   inkscape:version="0.92.3 (2405546, 2018-03-11)">
  <sodipodi:namedview
     id="base"
     pagecolor="#ffffff"
     bordercolor="#666666"
     borderopacity="1.0"
     inkscape:pageopacity="0.0"
     inkscape:pageshadow="2"
     inkscape:zoom="2.7208123"
     inkscape:cx="140.32307"
     inkscape:cy="75.980345"
     inkscape:document-units="mm"
     inkscape:current-layer="layer1"
     showgrid="false"
     units="in"
     inkscape:window-width="1920"
     inkscape:window-height="971"
     inkscape:window-x="0"
     inkscape:window-y="25"
     inkscape:window-maximized="1"
     inkscape:snap-global="false"
     fit-margin-top="0"
     fit-margin-left="0"
     fit-margin-right="0"
     fit-margin-bottom="0" />
  <defs
     id="defs2">
    <inkscape:path-effect
       effect="simplify"
       id="path-effect5260"
       is_visible="true"
       steps="1"
       threshold="0.0001"
       smooth_angles="360"
       helper_size="0"
       simplify_individual_paths="false"
       simplify_just_coalesce="false"
       simplifyindividualpaths="false"
       simplifyJustCoalesce="false" />
    <inkscape:path-effect
       effect="simplify"
       id="path-effect5253"
       is_visible="true"
       steps="1"
       threshold="0.0001"
       smooth_angles="360"
       helper_size="0"
       simplify_individual_paths="false"
       simplify_just_coalesce="false"
       simplifyindividualpaths="false"
       simplifyJustCoalesce="false" />
    <inkscape:path-effect
       effect="simplify"
       id="path-effect5247"
       is_visible="true"
       steps="1"
       threshold="0.0001"
       smooth_angles="360"
       helper_size="0"
       simplify_individual_paths="false"
       simplify_just_coalesce="false"
       simplifyindividualpaths="false"
       simplifyJustCoalesce="false" />
    <inkscape:path-effect
       simplifyJustCoalesce="false"
       simplifyindividualpaths="false"
       simplify_just_coalesce="false"
       simplify_individual_paths="false"
       helper_size="0"
       smooth_angles="360"
       threshold="0.0001"
       steps="1"
       is_visible="true"
       id="path-effect5240"
       effect="simplify" />
    <inkscape:path-effect
       simplifyJustCoalesce="false"
       simplifyindividualpaths="false"
       simplify_just_coalesce="false"
       simplify_individual_paths="false"
       helper_size="0"
       smooth_angles="360"
       threshold="0.0001"
       steps="1"
       is_visible="true"
       id="path-effect5236"
       effect="simplify" />
    <inkscape:path-effect
       simplifyJustCoalesce="false"
       simplifyindividualpaths="false"
       simplify_just_coalesce="false"
       simplify_individual_paths="false"
       helper_size="0"
       smooth_angles="360"
       threshold="0.0001"
       steps="1"
       is_visible="true"
       id="path-effect5233"
       effect="simplify" />
    <inkscape:path-effect
       simplifyJustCoalesce="false"
       simplifyindividualpaths="false"
       simplify_just_coalesce="false"
       simplify_individual_paths="false"
       helper_size="0"
       smooth_angles="360"
       threshold="0.0001"
       steps="1"
       is_visible="true"
       id="path-effect5224"
       effect="simplify" />
    <inkscape:path-effect
       effect="simplify"
       id="path-effect5154"
       is_visible="true"
       steps="1"
       threshold="0.0001"
       smooth_angles="360"
       helper_size="0"
       simplify_individual_paths="false"
       simplify_just_coalesce="false"
       simplifyindividualpaths="false"
       simplifyJustCoalesce="false" />
    <inkscape:path-effect
       effect="simplify"
       id="path-effect1088"
       is_visible="true"
       steps="1"
       threshold="0.0001"
       smooth_angles="360"
       helper_size="0"
       simplify_individual_paths="false"
       simplify_just_coalesce="false"
       simplifyindividualpaths="false"
       simplifyJustCoalesce="false" />
    <inkscape:path-effect
       effect="simplify"
       id="path-effect1084"
       is_visible="true"
       steps="1"
       threshold="0.0001"
       smooth_angles="360"
       helper_size="0"
       simplify_individual_paths="false"
       simplify_just_coalesce="false"
       simplifyindividualpaths="false"
       simplifyJustCoalesce="false" />
    <inkscape:path-effect
       effect="simplify"
       id="path-effect1077"
       is_visible="true"
       steps="1"
       threshold="0.0001"
       smooth_angles="360"
       helper_size="0"
       simplify_individual_paths="false"
       simplify_just_coalesce="false"
       simplifyindividualpaths="false"
       simplifyJustCoalesce="false" />
    <inkscape:path-effect
       effect="simplify"
       id="path-effect1052"
       is_visible="true"
       steps="1"
       threshold="0.0001"
       smooth_angles="360"
       helper_size="0"
       simplify_individual_paths="false"
       simplify_just_coalesce="false"
       simplifyindividualpaths="false"
       simplifyJustCoalesce="false" />
    <inkscape:path-effect
       simplifyJustCoalesce="false"
       simplifyindividualpaths="false"
       simplify_just_coalesce="false"
       simplify_individual_paths="false"
       helper_size="0"
       smooth_angles="360"
       threshold="0.0001"
       steps="1"
       is_visible="true"
       id="path-effect1003"
       effect="simplify" />
    <inkscape:path-effect
       effect="simplify"
       id="path-effect944"
       is_visible="true"
       steps="1"
       threshold="0.0001"
       smooth_angles="360"
       helper_size="0"
       simplify_individual_paths="false"
       simplify_just_coalesce="false"
       simplifyindividualpaths="false"
       simplifyJustCoalesce="false" />
    <inkscape:path-effect
       effect="simplify"
       id="path-effect940"
       is_visible="true"
       steps="1"
       threshold="0.0001"
       smooth_angles="360"
       helper_size="0"
       simplify_individual_paths="false"
       simplify_just_coalesce="false"
       simplifyindividualpaths="false"
       simplifyJustCoalesce="false" />
    <inkscape:path-effect
       effect="simplify"
       id="path-effect918"
       is_visible="true"
       steps="1"
       threshold="0.0001"
       smooth_angles="360"
       helper_size="0"
       simplify_individual_paths="false"
       simplify_just_coalesce="false"
       simplifyindividualpaths="false"
       simplifyJustCoalesce="false" />
    <inkscape:path-effect
       simplifyJustCoalesce="false"
       simplifyindividualpaths="false"
       simplify_just_coalesce="false"
       simplify_individual_paths="false"
       helper_size="0"
       smooth_angles="360"
       threshold="0.0001"
       steps="1"
       is_visible="true"
       id="path-effect1563"
       effect="simplify" />
    <inkscape:path-effect
       effect="simplify"
       id="path-effect1542"
       is_visible="true"
       steps="1"
       threshold="0.0001"
       smooth_angles="360"
       helper_size="0"
       simplify_individual_paths="false"
       simplify_just_coalesce="false"
       simplifyindividualpaths="false"
       simplifyJustCoalesce="false" />
    <inkscape:path-effect
       effect="simplify"
       id="path-effect1538"
       is_visible="true"
       steps="1"
       threshold="0.0001"
       smooth_angles="360"
       helper_size="0"
       simplify_individual_paths="false"
       simplify_just_coalesce="false"
       simplifyindividualpaths="false"
       simplifyJustCoalesce="false" />
    <inkscape:path-effect
       effect="simplify"
       id="path-effect1534"
       is_visible="true"
       steps="1"
       threshold="0.0001"
       smooth_angles="360"
       helper_size="0"
       simplify_individual_paths="false"
       simplify_just_coalesce="false"
       simplifyindividualpaths="false"
       simplifyJustCoalesce="false" />
    <inkscape:path-effect
       effect="simplify"
       id="path-effect1530"
       is_visible="true"
       steps="1"
       threshold="0.0001"
       smooth_angles="360"
       helper_size="0"
       simplify_individual_paths="false"
       simplify_just_coalesce="false"
       simplifyindividualpaths="false"
       simplifyJustCoalesce="false" />
    <inkscape:path-effect
       effect="simplify"
       id="path-effect1526"
       is_visible="true"
       steps="1"
       threshold="0.0001"
       smooth_angles="360"
       helper_size="0"
       simplify_individual_paths="false"
       simplify_just_coalesce="false"
       simplifyindividualpaths="false"
       simplifyJustCoalesce="false" />
    <inkscape:path-effect
       effect="simplify"
       id="path-effect1517"
       is_visible="true"
       steps="1"
       threshold="0.0001"
       smooth_angles="360"
       helper_size="0"
       simplify_individual_paths="false"
       simplify_just_coalesce="false"
       simplifyindividualpaths="false"
       simplifyJustCoalesce="false" />
    <inkscape:path-effect
       simplifyJustCoalesce="false"
       simplifyindividualpaths="false"
       simplify_just_coalesce="false"
       simplify_individual_paths="false"
       helper_size="0"
       smooth_angles="360"
       threshold="0.0001"
       steps="1"
       is_visible="true"
       id="path-effect1439"
       effect="simplify" />
    <marker
       inkscape:isstock="true"
       style="overflow:visible"
       id="Arrow2Mend"
       refX="0"
       refY="0"
       orient="auto"
       inkscape:stockid="Arrow2Mend">
      <path
         transform="scale(-0.6)"
         d="M 8.7185878,4.0337352 -2.2072895,0.01601326 8.7185884,-4.0017078 c -1.7454984,2.3720609 -1.7354408,5.6174519 -6e-7,8.035443 z"
         style="fill:#000000;fill-opacity:1;fill-rule:evenodd;stroke:#000000;stroke-width:0.625;stroke-linejoin:round;stroke-opacity:1"
         id="path852"
         inkscape:connector-curvature="0" />
    </marker>
    <marker
       inkscape:isstock="true"
       style="overflow:visible"
       id="Arrow1Mend"
       refX="0"
       refY="0"
       orient="auto"
       inkscape:stockid="Arrow1Mend">
      <path
         transform="matrix(-0.4,0,0,-0.4,-4,0)"
         style="fill:#000000;fill-opacity:1;fill-rule:evenodd;stroke:#000000;stroke-width:1.00000003pt;stroke-opacity:1"
         d="M 0,0 5,-5 -12.5,0 5,5 Z"
         id="path834"
         inkscape:connector-curvature="0" />
    </marker>
    <marker
       inkscape:isstock="true"
       style="overflow:visible"
       id="Arrow2Mstart"
       refX="0"
       refY="0"
       orient="auto"
       inkscape:stockid="Arrow2Mstart">
      <path
         transform="scale(0.6)"
         d="M 8.7185878,4.0337352 -2.2072895,0.01601326 8.7185884,-4.0017078 c -1.7454984,2.3720609 -1.7354408,5.6174519 -6e-7,8.035443 z"
         style="fill:#000000;fill-opacity:1;fill-rule:evenodd;stroke:#000000;stroke-width:0.625;stroke-linejoin:round;stroke-opacity:1"
         id="path849"
         inkscape:connector-curvature="0" />
    </marker>
  </defs>
  <metadata
     id="metadata5">
    <rdf:RDF>
      <cc:Work
         rdf:about="">
        <dc:format>image/svg+xml</dc:format>
        <dc:type
           rdf:resource="http://purl.org/dc/dcmitype/StillImage" />
        <dc:title></dc:title>
      </cc:Work>
    </rdf:RDF>
  </metadata>
  <g
     transform="translate(-8.0945045,-248.80372)"
     id="layer1"
     inkscape:groupmode="layer"
     inkscape:label="Layer 1">
    <flowRoot
       transform="scale(0.26458333)"
       style="font-style:normal;font-variant:normal;font-weight:normal;font-stretch:normal;font-size:10.66666698px;line-height:1.10000002;font-family:'Latin Modern Sans';-inkscape-font-specification:'Latin Modern Sans';text-align:center;letter-spacing:0px;word-spacing:0px;text-anchor:middle;fill:#000000;fill-opacity:1;stroke:none;stroke-width:1px;stroke-linecap:butt;stroke-linejoin:miter;stroke-opacity:1"
       id="flowRoot815"
       xml:space="preserve"><flowRegion
         id="flowRegion817"><rect
           y="67.439545"
           x="116.8223"
           height="157.29617"
           width="4.5993032"
           id="rect819" /></flowRegion><flowPara
         id="flowPara821" /></flowRoot>    <text
       id="text1446"
       y="202.60559"
       x="37.344723"
       style="font-style:normal;font-variant:normal;font-weight:normal;font-stretch:normal;font-size:3.52777767px;line-height:1.10000002;font-family:'Latin Modern Sans';-inkscape-font-specification:'Latin Modern Sans';text-align:center;letter-spacing:0px;word-spacing:0px;text-anchor:middle;fill:#000000;fill-opacity:1;stroke:none;stroke-width:0.26458332px;stroke-linecap:butt;stroke-linejoin:miter;stroke-opacity:1"
       xml:space="preserve"><tspan
         style="stroke-width:0.26458332px"
         y="205.62537"
         x="37.344723"
         id="tspan1444"
         sodipodi:role="line" /></text>
    <path
       style="fill:none;fill-rule:evenodd;stroke:#000000;stroke-width:0.30000001;stroke-linecap:butt;stroke-linejoin:miter;stroke-miterlimit:4;stroke-dasharray:none;stroke-opacity:1;marker-start:url(#Arrow2Mstart);marker-end:url(#Arrow2Mend)"
       d="m 15.402547,250.40945 v 37.08658 h 57.910136"
       id="path4978"
       inkscape:connector-curvature="0"
       sodipodi:nodetypes="ccc" />
    <text
       xml:space="preserve"
       style="font-style:normal;font-variant:normal;font-weight:normal;font-stretch:normal;font-size:2.82222223px;line-height:1.10000002;font-family:'Latin Modern Sans';-inkscape-font-specification:'Latin Modern Sans';text-align:center;letter-spacing:0px;word-spacing:0px;text-anchor:middle;fill:#000000;fill-opacity:1;stroke:none;stroke-width:0.26458332px;stroke-linecap:butt;stroke-linejoin:miter;stroke-opacity:1"
       x="-270.60303"
       y="10.532199"
       id="text4982"
       transform="rotate(-90)"><tspan
         sodipodi:role="line"
         id="tspan4980"
         x="-270.60303"
         y="10.532199"
         style="font-size:3.52777767px;stroke-width:0.26458332px">Free Energy</tspan></text>
    <path
       style="fill:none;fill-rule:evenodd;stroke:#000000;stroke-width:0.2866146;stroke-linecap:butt;stroke-linejoin:miter;stroke-miterlimit:4;stroke-dasharray:none;stroke-opacity:0.94117647"
       inkscape:path-effect="#path-effect5154"
       inkscape:original-d="m 18.628245,273.01253 c 1.468237,1.74589 2.718622,2.45134 2.718622,2.45134 1.396266,1.00862 3.048766,0.90481 5.247116,0.54268 2.19835,-0.36213 4.710782,-1.24947 6.68649,-3.8615 1.975708,-2.61204 2.794193,-4.79429 4.756419,-6.50276 1.962227,-1.70847 3.35342,-2.14298 5.195597,-2.51516 1.842177,-0.37217 4.47906,0.60935 6.023465,1.60427 1.544404,0.9949 2.62209,2.16813 3.382928,3.87294 0.76084,1.70481 0.537429,0.97097 1.077629,2.68453 0.5402,1.71356 0.974096,3.27655 1.464438,4.92348 0.490341,1.64693 0.621107,3.45341 1.47762,4.95808 0.856514,1.50467 2.063392,2.9957 3.550507,3.7797 1.487116,0.78402 3.679867,0.8851 4.91292,0.68079 1.233053,-0.20431 2.091843,-0.39271 2.733488,-0.98888 0.641646,-0.59617 1.399536,-0.84172 2.044218,-1.50739"
       id="path4988"
       d="m 18.628245,273.01253 c 0.592047,0.70258 1.241735,1.36064 1.967192,1.92562 0.236843,0.18445 0.487824,0.34957 0.737029,0.51737 0.09248,0.0623 0.184133,0.12616 0.279274,0.18464 0.441806,0.27155 0.938409,0.44802 1.448406,0.53756 0.654327,0.11488 1.323925,0.10051 1.982896,0.0386 0.580543,-0.0545 1.157869,-0.13975 1.731962,-0.24073 1.025136,-0.18032 2.034165,-0.4743 2.975756,-0.92208 0.917997,-0.43656 1.761822,-1.0261 2.492745,-1.73259 0.431068,-0.41666 0.816318,-0.87811 1.174008,-1.35887 0.603268,-0.81084 1.147816,-1.66299 1.685165,-2.51836 0.571426,-0.90961 1.13744,-1.82796 1.823568,-2.65748 0.377539,-0.45644 0.796799,-0.87766 1.247687,-1.26201 0.702086,-0.59848 1.460847,-1.13841 2.293093,-1.54179 0.589925,-0.28593 1.214827,-0.49408 1.850369,-0.65175 0.331934,-0.0824 0.665122,-0.1613 1.002021,-0.22004 0.566468,-0.0988 1.147894,-0.076 1.714507,0.008 0.778709,0.11517 1.539223,0.33714 2.27009,0.62676 0.665093,0.26356 1.312002,0.57784 1.915545,0.9628 0.731908,0.46684 1.415238,1.0162 1.995489,1.66407 0.533616,0.5958 0.973458,1.27334 1.314738,1.99592 0.122757,0.25991 0.238315,0.52311 0.358007,0.78445 0.109954,0.24008 0.227803,0.47643 0.339028,0.7159 0.132101,0.28442 0.224106,0.58501 0.319496,0.88304 0.280915,0.87767 0.549323,1.75928 0.809346,2.64335 0.285617,0.97109 0.573468,1.94153 0.853615,2.91422 0.335763,1.16579 0.499353,2.37529 0.874687,3.53048 0.159963,0.49233 0.36517,0.97069 0.625192,1.41906 0.475651,0.82019 1.028772,1.59982 1.686136,2.2848 0.540372,0.56307 1.152426,1.06745 1.848767,1.42501 0.547014,0.28088 1.141411,0.45984 1.743574,0.57591 0.707188,0.13632 1.429485,0.19407 2.149283,0.17461 0.368407,-0.01 0.736116,-0.045 1.099587,-0.1071 0.477972,-0.0817 0.957534,-0.16613 1.421054,-0.31135 0.369809,-0.11586 0.727165,-0.28191 1.035552,-0.51969 0.120604,-0.093 0.227663,-0.20163 0.345714,-0.29778 0.463941,-0.37787 1.009286,-0.63803 1.479857,-1.00686 0.134322,-0.10528 0.262309,-0.2188 0.381022,-0.34147"
       inkscape:connector-curvature="0"
       sodipodi:nodetypes="cszzzzzzzzzzzzc" />
    <g
       style="fill:#fb8f67;fill-opacity:1;stroke:#ff7f11;stroke-opacity:1"
       transform="matrix(0.6,0,0,0.6,-2.7514476,268.47437)"
       id="g5000">
      <g
         style="font-style:normal;font-variant:normal;font-weight:normal;font-stretch:normal;letter-spacing:normal;word-spacing:normal;text-anchor:start;fill:#fb8f67;fill-opacity:1;fill-rule:evenodd;stroke:#ff7f11;stroke-linecap:butt;stroke-linejoin:miter;stroke-miterlimit:10.43299961;stroke-dasharray:none;stroke-dashoffset:0;stroke-opacity:1"
         id="g4998"
         transform="matrix(0.11792857,0,0,-0.11792857,-20.6375,76.2)"
         xml:space="preserve"
         stroke-miterlimit="10.433"
         font-style="normal"
         font-variant="normal"
         font-weight="normal"
         font-stretch="normal"
         font-size-adjust="none"
         letter-spacing="normal"
         word-spacing="normal"><path
           style="fill:#fb8f67;fill-opacity:1;stroke:#ff7f11;stroke-width:0;stroke-opacity:1"
           inkscape:connector-curvature="0"
           d="m 476.8,436.43 0.02,0.07 0.01,0.06 0.03,0.12 0.03,0.12 0.03,0.11 0.03,0.11 0.03,0.09 0.03,0.1 0.03,0.09 0.03,0.08 0.03,0.08 0.03,0.07 0.03,0.07 0.03,0.06 0.03,0.06 0.03,0.06 0.03,0.05 0.03,0.05 0.03,0.04 0.04,0.04 0.03,0.04 0.04,0.04 0.03,0.03 0.04,0.03 0.04,0.03 0.04,0.02 0.05,0.03 0.04,0.02 0.05,0.02 0.04,0.01 0.05,0.02 0.06,0.01 0.05,0.02 c 0.45,0.11 2.1,0.11 3.14,0.11 5.03,0 7.27,-0.21 7.27,-4.1 0,-0.73 -0.19,-2.68 -0.39,-3.98 -0.05,-0.19 -0.16,-0.8 -0.16,-0.94 0,-0.3 0.16,-0.66 0.59,-0.66 0.57,0 0.66,0.41 0.75,1.16 l 1.35,8.66 c 0.06,0.2 0.11,0.7 0.11,0.86 0,0.54 -0.5,0.54 -1.35,0.54 H 461.6 c -1.21,0 -1.25,-0.06 -1.6,-1 l -2.98,-8.76 c -0.06,-0.11 -0.3,-0.8 -0.3,-0.91 0,-0.3 0.24,-0.55 0.6,-0.55 0.5,0 0.54,0.25 0.84,1.05 2.69,7.72 3.98,8.63 11.36,8.63 h 1.94 c 1.4,0 1.4,-0.21 1.4,-0.6 0,-0.31 -0.15,-0.9 -0.2,-1.04 l -6.67,-26.61 c -0.45,-1.85 -0.61,-2.39 -5.94,-2.39 -1.8,0 -2.09,0 -2.09,-0.96 0,-0.59 0.54,-0.59 0.84,-0.59 1.36,0 2.75,0.09 4.09,0.09 1.4,0 2.85,0.07 4.24,0.07 1.39,0 2.78,-0.07 4.14,-0.07 1.44,0 2.94,-0.09 4.33,-0.09 0.5,0 1.09,0 1.09,1 0,0.55 -0.39,0.55 -1.69,0.55 -1.25,0 -1.89,0 -3.18,0.09 -1.46,0.16 -1.85,0.3 -1.85,1.09 0,0.07 0,0.32 0.19,1.05 z"
           id="path4990" /><path
           style="fill:#fb8f67;fill-opacity:1;stroke:#ff7f11;stroke-width:0;stroke-opacity:1"
           inkscape:connector-curvature="0"
           d="m 539.06,431.01 0.06,0.03 0.05,0.03 0.06,0.02 0.05,0.03 0.05,0.03 0.05,0.03 0.04,0.02 0.05,0.03 0.04,0.03 0.04,0.03 0.04,0.03 0.04,0.02 0.04,0.03 0.03,0.03 0.04,0.03 0.03,0.04 0.03,0.03 0.03,0.03 0.02,0.03 0.03,0.04 0.02,0.03 0.02,0.04 0.02,0.04 0.01,0.04 0.02,0.04 0.01,0.04 0.01,0.04 0.01,0.04 0.01,0.05 v 0.05 0.04 l 0.01,0.06 c 0,0.54 -0.46,1 -1,1 -0.14,0 -0.25,0 -0.9,-0.35 l -27.6,-13.01 c -0.55,-0.25 -0.94,-0.5 -0.94,-1.1 0,-0.59 0.39,-0.84 0.94,-1.09 l 27.6,-13 c 0.65,-0.36 0.76,-0.36 0.9,-0.36 0.54,0 1,0.45 1,1 0,0.55 -0.35,0.8 -0.96,1.09 l -26.15,12.36 z"
           id="path4992" /><path
           style="fill:#fb8f67;fill-opacity:1;stroke:#ff7f11;stroke-width:0;stroke-opacity:1"
           inkscape:connector-curvature="0"
           d="m 579.27,436.43 0.02,0.07 0.01,0.06 0.04,0.12 0.03,0.12 0.03,0.11 0.03,0.11 0.03,0.09 0.02,0.1 0.03,0.09 0.03,0.08 0.03,0.08 0.03,0.07 0.03,0.07 0.03,0.06 0.03,0.06 0.03,0.06 0.03,0.05 0.03,0.05 0.03,0.04 0.04,0.04 0.03,0.04 0.04,0.04 0.04,0.03 0.03,0.03 0.04,0.03 0.04,0.02 0.05,0.03 0.04,0.02 0.05,0.02 0.05,0.01 0.05,0.02 0.05,0.01 0.05,0.02 c 0.46,0.11 2.1,0.11 3.14,0.11 5.04,0 7.27,-0.21 7.27,-4.1 0,-0.73 -0.19,-2.68 -0.39,-3.98 -0.05,-0.19 -0.16,-0.8 -0.16,-0.94 0,-0.3 0.16,-0.66 0.6,-0.66 0.56,0 0.65,0.41 0.75,1.16 l 1.34,8.66 c 0.06,0.2 0.11,0.7 0.11,0.86 0,0.54 -0.5,0.54 -1.34,0.54 h -27.66 c -1.2,0 -1.25,-0.06 -1.59,-1 l -2.99,-8.76 c -0.06,-0.11 -0.29,-0.8 -0.29,-0.91 0,-0.3 0.23,-0.55 0.59,-0.55 0.5,0 0.55,0.25 0.84,1.05 2.69,7.72 3.99,8.63 11.36,8.63 h 1.94 c 1.41,0 1.41,-0.21 1.41,-0.6 0,-0.31 -0.16,-0.9 -0.21,-1.04 l -6.67,-26.61 c -0.45,-1.85 -0.61,-2.39 -5.94,-2.39 -1.79,0 -2.09,0 -2.09,-0.96 0,-0.59 0.55,-0.59 0.84,-0.59 1.36,0 2.75,0.09 4.1,0.09 1.39,0 2.84,0.07 4.23,0.07 1.39,0 2.78,-0.07 4.14,-0.07 1.44,0 2.94,-0.09 4.33,-0.09 0.5,0 1.09,0 1.09,1 0,0.55 -0.39,0.55 -1.68,0.55 -1.25,0 -1.89,0 -3.19,0.09 -1.45,0.16 -1.84,0.3 -1.84,1.09 0,0.07 0,0.32 0.18,1.05 z"
           id="path4994" /><path
           style="fill:#fb8f67;fill-opacity:1;stroke:#ff7f11;stroke-width:0;stroke-opacity:1"
           inkscape:connector-curvature="0"
           d="m 602.28,401.59 -0.01,-0.07 -0.02,-0.07 -0.02,-0.07 -0.02,-0.07 -0.01,-0.08 -0.02,-0.08 -0.04,-0.15 -0.04,-0.17 -0.04,-0.16 -0.04,-0.16 -0.02,-0.07 -0.02,-0.08 -0.02,-0.08 -0.02,-0.07 -0.01,-0.07 -0.02,-0.07 -0.02,-0.07 -0.01,-0.06 -0.02,-0.06 -0.01,-0.06 -0.01,-0.05 -0.01,-0.05 -0.01,-0.04 -0.01,-0.04 v -0.04 l -0.01,-0.03 v -0.02 -0.02 c 0,-0.77 0.63,-1.11 1.17,-1.11 0.64,0 1.19,0.45 1.36,0.76 0.19,0.32 0.45,1.43 0.64,2.16 0.18,0.66 0.55,2.27 0.77,3.14 0.2,0.77 0.41,1.53 0.59,2.33 0.38,1.5 0.38,1.56 1.08,2.65 1.11,1.71 2.86,3.69 5.56,3.69 1.96,0 2.06,-1.61 2.06,-2.44 0,-2.09 -1.5,-5.95 -2.06,-7.42 -0.37,-0.98 -0.51,-1.29 -0.51,-1.89 0,-1.84 1.53,-2.98 3.31,-2.98 3.48,0 5.01,4.79 5.01,5.33 0,0.45 -0.45,0.45 -0.56,0.45 -0.48,0 -0.51,-0.2 -0.65,-0.59 -0.8,-2.79 -2.3,-4.22 -3.69,-4.22 -0.73,0 -0.88,0.48 -0.88,1.22 0,0.79 0.18,1.25 0.8,2.82 0.42,1.08 1.85,4.77 1.85,6.72 0,0.56 0,2.03 -1.29,3.03 -0.59,0.46 -1.61,0.94 -3.25,0.94 -3.12,0 -5.04,-2.05 -6.15,-3.51 -0.28,2.96 -2.77,3.51 -4.53,3.51 -2.9,0 -4.85,-1.76 -5.9,-3.16 -0.25,2.4 -2.29,3.16 -3.73,3.16 -1.5,0 -2.3,-1.08 -2.75,-1.87 -0.77,-1.29 -1.25,-3.29 -1.25,-3.46 0,-0.45 0.48,-0.45 0.6,-0.45 0.48,0 0.51,0.11 0.76,1.05 0.52,2.06 1.19,3.76 2.55,3.76 0.9,0 1.14,-0.76 1.14,-1.7 0,-0.67 -0.32,-1.95 -0.57,-2.89 -0.23,-0.95 -0.57,-2.38 -0.76,-3.14 l -1.11,-4.47 c -0.14,-0.44 -0.34,-1.31 -0.34,-1.42 0,-0.77 0.62,-1.11 1.18,-1.11 0.63,0 1.18,0.45 1.36,0.76 0.17,0.32 0.46,1.43 0.63,2.16 0.17,0.66 0.54,2.27 0.76,3.14 0.21,0.77 0.43,1.53 0.6,2.33 0.37,1.44 0.45,1.7 1.45,3.14 0.98,1.39 2.63,3.2 5.23,3.2 2.02,0 2.05,-1.78 2.05,-2.44 0,-0.87 -0.09,-1.32 -0.59,-3.28 z"
           id="path4996" /></g>    </g>
    <g
       style="stroke:#acbfa4;stroke-opacity:1"
       id="g5022"
       transform="matrix(1.3,0,0,1.3,-9.0699326,-19.036578)">
      <path
         style="fill:none;fill-rule:evenodd;stroke:#acbfa4;stroke-width:0.26458332px;stroke-linecap:butt;stroke-linejoin:miter;stroke-opacity:1"
         inkscape:path-effect="#path-effect1517"
         inkscape:original-d="m 23.653677,217.58418 c 0.527088,0.0694 1.065692,-0.15629 1.585836,0.24139 0.520144,0.39768 0.546475,1.62755 0.595312,2.28283 0.04884,0.65528 -0.07983,0.6034 -0.268938,1.43294 -0.189106,0.82954 -0.07728,1.18343 0.699073,1.25402 0.776352,0.0706 1.267827,0.1331 1.743486,-0.0275 0.475659,-0.1606 0.458946,-0.6434 0.846894,-0.78053 0.387948,-0.13713 0.96091,-0.15005 1.21232,-0.007 0.25141,0.14305 0.357163,0.2256 0.297834,0.42274"
         id="path5008"
         d="m 23.653677,217.58418 c 0.1481,0.0195 0.297954,0.0157 0.446796,0.009 0.165809,-0.007 0.332151,-0.0183 0.497984,-0.005 0.12026,0.01 0.239862,0.0331 0.352889,0.0759 0.108198,0.041 0.210063,0.0988 0.300268,0.17115 0.08665,0.0695 0.155436,0.1589 0.210653,0.25469 0.06942,0.12043 0.119772,0.25093 0.159564,0.38381 0.05506,0.18387 0.09125,0.37287 0.118582,0.56267 0.04297,0.29841 0.06345,0.59942 0.08256,0.90011 0.0046,0.0724 0.0104,0.14465 0.01499,0.21701 0.0075,0.11891 0.01127,0.23849 3.97e-4,0.35733 -0.0075,0.0816 -0.02393,0.16211 -0.04647,0.24079 -0.02645,0.0923 -0.05775,0.18313 -0.08683,0.27464 -0.05289,0.16646 -0.0981,0.3353 -0.136965,0.50557 -0.03219,0.14101 -0.06079,0.28327 -0.07445,0.4274 -0.0097,0.10207 -0.01261,0.20558 0.0027,0.30725 0.01206,0.0799 0.03705,0.15879 0.08019,0.22764 0.03868,0.0617 0.0924,0.11327 0.15355,0.15255 0.07917,0.0508 0.168877,0.0829 0.259832,0.10529 0.09911,0.0244 0.200664,0.0368 0.302192,0.0461 0.215688,0.0195 0.431188,0.0416 0.64728,0.0563 0.184931,0.0126 0.370668,0.0204 0.555891,0.009 0.150748,-0.009 0.301139,-0.0316 0.446116,-0.0745 0.05299,-0.0157 0.10562,-0.0332 0.155531,-0.0572 0.07868,-0.0378 0.149313,-0.0913 0.209578,-0.1543 0.07482,-0.0783 0.132806,-0.17024 0.192055,-0.26031 0.05164,-0.0785 0.105584,-0.15685 0.175297,-0.22067 0.05242,-0.048 0.114347,-0.0856 0.181455,-0.10919 0.121656,-0.0427 0.248216,-0.0705 0.375872,-0.0877 0.137336,-0.0185 0.27643,-0.026 0.414835,-0.018 0.09779,0.006 0.195784,0.0179 0.290059,0.0452 0.04984,0.0144 0.09819,0.0342 0.143232,0.0602 0.06187,0.0357 0.124224,0.0712 0.180753,0.11507 0.03973,0.0308 0.07737,0.0666 0.100518,0.11201 0.02134,0.0418 0.02463,0.0906 0.01723,0.13643 -0.0029,0.0178 -0.0072,0.0353 -0.01235,0.0526"
         inkscape:connector-curvature="0"
         sodipodi:nodetypes="czzzzzzzc" />
      <path
         style="fill:none;fill-rule:evenodd;stroke:#acbfa4;stroke-width:0.26458332px;stroke-linecap:butt;stroke-linejoin:miter;stroke-opacity:1"
         inkscape:path-effect="#path-effect1526"
         inkscape:original-d="m 28.499564,218.36219 c -0.275287,0.31009 -0.428554,0.71537 -0.49542,1.11723 -0.0732,0.43991 -0.07978,0.93258 0.117074,1.33274 0.178493,0.36285 0.783838,0.43214 0.8925,0.82164 0.101182,0.36269 -0.15057,0.74606 -0.314981,1.0848 -0.183693,0.37847 -0.822926,0.61506 -0.734484,1.02635 0.08812,0.4098 0.712793,0.44351 1.087484,0.63141 0.072,0.0361 0.09359,0.16697 0.222213,0.0949"
         id="path5010"
         d="m 28.499564,218.36219 c -0.130898,0.14736 -0.234871,0.31744 -0.314293,0.49752 -0.09064,0.20552 -0.150057,0.42395 -0.185339,0.64555 -0.03025,0.18999 -0.04721,0.38256 -0.04201,0.57504 0.0044,0.16456 0.02504,0.32935 0.07022,0.48789 0.02474,0.0868 0.056,0.17211 0.09734,0.25242 0.03621,0.0703 0.08975,0.13035 0.149604,0.18147 0.07504,0.0641 0.15929,0.11604 0.24378,0.16653 0.09067,0.0542 0.183075,0.10607 0.26791,0.16929 0.0646,0.0481 0.124843,0.10376 0.169767,0.17117 0.03199,0.048 0.05324,0.10251 0.06564,0.15879 0.01992,0.0904 0.01845,0.18447 0.0029,0.27541 -0.01882,0.11042 -0.05657,0.21666 -0.10101,0.31913 -0.06885,0.15876 -0.151398,0.31092 -0.229773,0.46504 -0.03756,0.0739 -0.08981,0.13912 -0.146561,0.19904 -0.08539,0.0902 -0.181013,0.16965 -0.273414,0.25235 -0.06718,0.0601 -0.133876,0.12144 -0.191433,0.19105 -0.04577,0.0554 -0.08592,0.11674 -0.108684,0.18535 -0.01814,0.0547 -0.02288,0.11367 -0.01362,0.17057 0.01096,0.0674 0.03937,0.13173 0.08122,0.18572 0.04823,0.0622 0.112148,0.11045 0.180106,0.14923 0.08078,0.0461 0.167544,0.0806 0.255127,0.11131 0.142116,0.0499 0.287814,0.0891 0.428928,0.14188 0.04951,0.0185 0.09889,0.0378 0.145719,0.0624 0.04507,0.0237 0.0667,0.0735 0.107891,0.10222 0.02514,0.0175 0.05817,0.0165 0.08606,0.006 0.0098,-0.004 0.01917,-0.008 0.02826,-0.0133"
         inkscape:connector-curvature="0"
         sodipodi:nodetypes="caaaaaac" />
      <path
         style="fill:none;fill-rule:evenodd;stroke:#acbfa4;stroke-width:0.26458332px;stroke-linecap:butt;stroke-linejoin:miter;stroke-opacity:1"
         inkscape:path-effect="#path-effect1530"
         inkscape:original-d="m 22.148223,220.62449 c 0.586416,-0.0937 1.092406,0.42662 1.351384,0.90235 0.178937,0.32861 -0.102356,0.76771 0.01683,1.12241 0.118507,0.35283 0.322409,0.74505 0.660775,0.90012 0.487083,0.22322 1.103078,-0.31953 1.60247,-0.12544 0.484689,0.18837 0.917025,0.64149 1.064902,1.14002 0.01255,0.0432 0.03778,0.1162 -0.02342,0.13291"
         id="path5012"
         d="m 22.148223,220.62449 c 0.108217,-0.0175 0.219559,-0.0138 0.326723,0.009 0.125856,0.0268 0.245289,0.0793 0.354273,0.14716 0.126668,0.0788 0.240274,0.17746 0.341557,0.2867 0.112371,0.1212 0.21201,0.25452 0.294092,0.39791 0.02309,0.0403 0.04703,0.0805 0.06311,0.12438 0.0266,0.0726 0.03464,0.15063 0.03278,0.2275 -0.0025,0.10329 -0.02083,0.20526 -0.03816,0.30686 -0.01745,0.10228 -0.03527,0.20512 -0.03657,0.30915 -9.14e-4,0.0729 0.0071,0.14665 0.03042,0.21604 0.05015,0.14895 0.111209,0.29478 0.190001,0.43097 0.06464,0.11173 0.141328,0.21744 0.235041,0.30666 0.07389,0.0703 0.158697,0.13028 0.25291,0.17002 0.07321,0.0309 0.152641,0.0453 0.231885,0.0471 0.09961,0.002 0.198679,-0.0138 0.295377,-0.0364 0.187613,-0.044 0.368547,-0.11257 0.556755,-0.1542 0.09724,-0.0215 0.19689,-0.0359 0.296704,-0.0313 0.07183,0.003 0.143248,0.0177 0.21025,0.0441 0.163001,0.0642 0.314802,0.15544 0.451307,0.26495 0.152792,0.12258 0.287528,0.26795 0.396569,0.43074 0.09282,0.13857 0.169295,0.28958 0.213826,0.45054 0.0084,0.0305 0.0203,0.0637 0.0092,0.0949 -0.0055,0.0154 -0.0197,0.0257 -0.03508,0.0295"
         inkscape:connector-curvature="0"
         sodipodi:nodetypes="caaaaac" />
      <path
         style="fill:none;fill-rule:evenodd;stroke:#acbfa4;stroke-width:0.26458332px;stroke-linecap:butt;stroke-linejoin:miter;stroke-opacity:1"
         inkscape:path-effect="#path-effect1534"
         inkscape:original-d="m 27.466741,219.60616 c -0.41807,-0.1574 -0.874611,-0.0644 -1.304146,0.003 -0.442535,0.069 -1.044613,0.0257 -1.280738,0.40625 -0.215062,0.34662 0.274333,0.81111 0.186522,1.20946 -0.09733,0.44155 -0.366614,0.89167 -0.751207,1.12941 -0.323218,0.19981 -0.751323,0.1365 -1.131295,0.1404 -0.417706,0.004 -1.242481,0.28893 -1.246547,-0.12878 -3.98e-4,-0.006 0.01747,-0.002 0.01747,-0.002"
         id="path5014"
         d="m 27.466741,219.60616 c -0.120336,-0.0454 -0.247656,-0.0707 -0.375704,-0.0808 -0.154342,-0.0122 -0.309539,-0.003 -0.463087,0.0146 -0.15933,0.0183 -0.317198,0.047 -0.475756,0.0708 -0.125277,0.0188 -0.251652,0.0284 -0.377659,0.0408 -0.128836,0.0126 -0.25793,0.0268 -0.38437,0.0553 -0.09503,0.0214 -0.188984,0.0509 -0.275325,0.0966 -0.07105,0.0376 -0.136526,0.0871 -0.187813,0.1493 -0.02433,0.0295 -0.0464,0.0611 -0.06331,0.0955 -0.02638,0.0536 -0.03773,0.1138 -0.03699,0.17335 9.52e-4,0.0764 0.01914,0.15149 0.04278,0.22378 0.0354,0.10822 0.08257,0.21201 0.123656,0.31809 0.03159,0.0816 0.06058,0.16472 0.07584,0.25107 0.01256,0.0711 0.01409,0.14473 -0.0018,0.2155 -0.03889,0.17346 -0.10181,0.34146 -0.185642,0.49816 -0.0827,0.15458 -0.185748,0.29891 -0.3099,0.42295 -0.08111,0.081 -0.17086,0.15407 -0.269744,0.2123 -0.09117,0.0537 -0.192807,0.0877 -0.296368,0.10786 -0.128097,0.0249 -0.259046,0.0302 -0.389244,0.0299 -0.146799,-2.7e-4 -0.293531,-0.01 -0.44032,-0.006 -0.07885,0.002 -0.157298,0.0111 -0.235357,0.0218 -0.163446,0.0225 -0.325872,0.053 -0.49025,0.0681 -0.07819,0.007 -0.157017,0.012 -0.23542,0.006 -0.0523,-0.004 -0.104854,-0.0132 -0.153356,-0.0341 -0.04454,-0.0191 -0.08375,-0.053 -0.103848,-0.0978 -0.01301,-0.0291 -0.01817,-0.0611 -0.01845,-0.0927 0,0 0.0026,-0.003 0.0026,-0.003 0.005,-9.8e-4 0.01002,-1.5e-4 0.01491,8.4e-4"
         inkscape:connector-curvature="0"
         sodipodi:nodetypes="caaaaaac" />
      <path
         style="fill:none;fill-rule:evenodd;stroke:#acbfa4;stroke-width:0.26458332px;stroke-linecap:butt;stroke-linejoin:miter;stroke-opacity:1"
         inkscape:path-effect="#path-effect1538"
         inkscape:original-d="m 26.437871,216.30165 c -0.203656,0.24456 -0.507298,0.39532 -0.810785,0.42175 -0.350467,0.0305 -0.672064,-0.42731 -1.006382,-0.31782 -0.214485,0.0702 -0.3586,0.32445 -0.399942,0.54633 -0.06595,0.35397 0.237246,0.68554 0.281345,1.04288 0.04839,0.3921 0.305871,0.96354 -0.02126,1.18505 -0.272767,0.18471 -0.636056,-0.19045 -0.92406,-0.35036 -0.29594,-0.16435 -0.479163,-0.6973 -0.807686,-0.61564 -0.309941,0.0771 -0.353736,0.55419 -0.401371,0.86999 -0.0015,0.01 0.001,0.0207 0.0041,0.0305 0.0033,0.0106 0.01491,0.0299 0.01491,0.0299"
         id="path5016"
         d="m 26.437871,216.30165 c -0.116672,0.14013 -0.267447,0.25081 -0.434121,0.32421 -0.1192,0.0525 -0.246864,0.086 -0.376664,0.0975 -0.06302,0.006 -0.126523,-0.005 -0.186368,-0.0247 -0.07786,-0.0255 -0.150509,-0.0641 -0.221431,-0.1046 -0.08507,-0.0485 -0.167881,-0.10144 -0.256638,-0.14318 -0.06131,-0.0288 -0.126057,-0.0525 -0.193774,-0.06 -0.05144,-0.006 -0.104126,-3.7e-4 -0.153185,0.0164 -0.06427,0.022 -0.121869,0.0606 -0.170524,0.10762 -0.05955,0.0575 -0.107104,0.12661 -0.144102,0.20042 -0.03743,0.0747 -0.06483,0.15449 -0.0803,0.23661 -0.01377,0.0731 -0.01144,0.14848 0.0016,0.22146 0.0165,0.092 0.04863,0.18036 0.08424,0.26651 0.05129,0.12409 0.110965,0.24492 0.15295,0.3727 0.02046,0.0623 0.03503,0.12639 0.04368,0.19143 0.01202,0.0904 0.03201,0.17946 0.05229,0.2683 0.02714,0.11889 0.05628,0.23755 0.07382,0.35833 0.01137,0.0783 0.01847,0.15772 0.01268,0.23682 -0.0047,0.0637 -0.01847,0.12767 -0.04768,0.18494 -0.02475,0.0485 -0.0619,0.0902 -0.105992,0.12218 -0.03755,0.0272 -0.08158,0.0455 -0.127543,0.0521 -0.05518,0.008 -0.111548,-1.4e-4 -0.164543,-0.0162 -0.06855,-0.0208 -0.132873,-0.0534 -0.19443,-0.0896 -0.125197,-0.0736 -0.241097,-0.16151 -0.362254,-0.24138 -0.03362,-0.0222 -0.06937,-0.0408 -0.103476,-0.0622 -0.06009,-0.0376 -0.112052,-0.0866 -0.160104,-0.13833 -0.08812,-0.0949 -0.163644,-0.20056 -0.251725,-0.29544 -0.04389,-0.0473 -0.09092,-0.0926 -0.145691,-0.12717 -0.04241,-0.0268 -0.09045,-0.0459 -0.140761,-0.0501 -0.05161,-0.004 -0.103734,0.008 -0.150304,0.0296 -0.05143,0.0243 -0.09514,0.0629 -0.129751,0.10777 -0.04272,0.0553 -0.07323,0.11906 -0.09695,0.18451 -0.03292,0.0908 -0.05392,0.18548 -0.07094,0.28044 -0.01638,0.0914 -0.03175,0.18304 -0.04221,0.27527 -0.0025,0.0219 0.0082,0.0422 0.01901,0.0604"
         inkscape:connector-curvature="0"
         sodipodi:nodetypes="caaaaaaaaac" />
      <path
         style="fill:none;fill-rule:evenodd;stroke:#acbfa4;stroke-width:0.26458332px;stroke-linecap:butt;stroke-linejoin:miter;stroke-opacity:1"
         inkscape:path-effect="#path-effect1542"
         inkscape:original-d="m 29.066254,216.35625 c -0.381064,0.19068 -0.685078,0.49189 -0.995595,0.77575 -0.255002,0.23311 -0.631995,0.42019 -0.707682,0.7573 -0.06122,0.27268 0.04265,0.61754 0.255629,0.7985 0.276141,0.23462 0.732749,0.27819 1.075247,0.15988 0.136695,-0.0472 0.309588,-0.1709 0.298262,-0.31508 -0.03442,-0.43815 -0.641368,-0.62992 -1.044818,-0.80425 -0.357934,-0.15466 -0.784277,-0.0648 -1.15487,-0.18603 -0.381184,-0.1247 -0.837759,-0.22165 -1.071299,-0.5477 -0.178068,-0.24861 -0.231611,-0.61849 -0.132494,-0.90778 0.09,-0.26267 0.376685,-0.41296 0.600499,-0.57729 0.103766,-0.0762 0.178674,-0.22267 0.338742,-0.18547"
         id="path5018"
         d="m 29.066254,216.35625 c -0.159486,0.0797 -0.307662,0.18041 -0.447418,0.29074 -0.191659,0.15131 -0.367886,0.32066 -0.548177,0.48501 -0.08717,0.0795 -0.182351,0.14935 -0.275466,0.22153 -0.08653,0.0671 -0.172473,0.13577 -0.247926,0.2154 -0.05837,0.0616 -0.110072,0.13047 -0.145949,0.20772 -0.02137,0.046 -0.03612,0.095 -0.04476,0.14492 -0.01711,0.099 -0.01366,0.20099 0.0056,0.29937 0.02095,0.10726 0.06018,0.21129 0.118095,0.3041 0.04082,0.0654 0.0915,0.12496 0.151477,0.17362 0.08782,0.0713 0.190647,0.12261 0.298146,0.15675 0.129076,0.041 0.265185,0.0587 0.400429,0.0554 0.123387,-0.003 0.246944,-0.0224 0.363597,-0.0631 0.05611,-0.0196 0.109469,-0.0473 0.157429,-0.0824 0.04182,-0.0306 0.08034,-0.067 0.107979,-0.11113 0.02255,-0.036 0.03612,-0.0787 0.03285,-0.12153 -0.005,-0.0657 -0.02428,-0.13003 -0.05511,-0.18821 -0.03772,-0.0712 -0.09152,-0.13268 -0.151824,-0.18559 -0.07191,-0.0631 -0.152707,-0.11527 -0.236298,-0.16143 -0.122243,-0.0675 -0.250638,-0.12291 -0.379466,-0.17642 -0.07689,-0.0319 -0.153783,-0.0639 -0.230525,-0.0962 -0.100659,-0.0424 -0.208173,-0.066 -0.316143,-0.0803 -0.20174,-0.0267 -0.406236,-0.0229 -0.607726,-0.0519 -0.07846,-0.0113 -0.156077,-0.0287 -0.231547,-0.0532 -0.182341,-0.0591 -0.367979,-0.109 -0.546051,-0.1806 -0.111893,-0.045 -0.221132,-0.0986 -0.319179,-0.16937 -0.07906,-0.057 -0.149965,-0.12611 -0.205377,-0.20655 -0.06572,-0.0954 -0.111775,-0.20361 -0.13992,-0.31576 -0.03175,-0.12649 -0.04185,-0.25872 -0.02693,-0.38835 0.008,-0.0695 0.02274,-0.13848 0.04697,-0.20416 0.02596,-0.0704 0.06745,-0.13419 0.116719,-0.19044 0.06156,-0.0703 0.13427,-0.12974 0.209302,-0.18498 0.08861,-0.0652 0.181691,-0.12416 0.270116,-0.18964 0.04724,-0.035 0.0854,-0.0802 0.12917,-0.1191 0.03042,-0.027 0.0645,-0.0513 0.103707,-0.0638 0.03417,-0.0109 0.07114,-0.0108 0.105865,-0.003"
         inkscape:connector-curvature="0"
         sodipodi:nodetypes="caaaaaaaaaac" />
      <path
         sodipodi:nodetypes="caaaaaaaaac"
         inkscape:connector-curvature="0"
         d="m 30.270053,216.73794 c 0.06202,0.17667 0.07894,0.36823 0.05359,0.55349 -0.017,0.12421 -0.05311,0.2459 -0.107681,0.35883 -0.02876,0.0595 -0.07311,0.11024 -0.123249,0.15277 -0.06492,0.0551 -0.138681,0.0983 -0.212783,0.13968 -0.08522,0.0476 -0.172695,0.0917 -0.25291,0.14761 -0.05518,0.0385 -0.107216,0.0831 -0.146022,0.13852 -0.02874,0.0411 -0.04834,0.0883 -0.05745,0.13762 -0.0127,0.0687 -0.0068,0.13992 0.01086,0.20724 0.02155,0.0821 0.05929,0.15941 0.106622,0.22964 0.04399,0.0653 0.09599,0.12542 0.155728,0.17673 0.05847,0.0502 0.127665,0.0867 0.200076,0.11242 0.09392,0.0333 0.192627,0.0501 0.291038,0.0637 0.127139,0.0175 0.255492,0.0291 0.380576,0.059 0.05816,0.0139 0.114962,0.0332 0.169937,0.0568 0.0854,0.0368 0.173852,0.0657 0.262206,0.0944 0.115931,0.0377 0.232672,0.0736 0.345165,0.12089 0.07418,0.0311 0.147047,0.0668 0.212467,0.11399 0.05385,0.0388 0.102498,0.0866 0.135243,0.14489 0.0304,0.0541 0.04522,0.11671 0.04282,0.17866 -0.0018,0.0473 -0.0164,0.0937 -0.04041,0.13435 -0.03052,0.0517 -0.07423,0.0943 -0.121678,0.13047 -0.06597,0.0503 -0.139178,0.09 -0.213397,0.12656 -0.106154,0.0523 -0.215002,0.0988 -0.321679,0.14999 -0.03621,0.0174 -0.07015,0.0391 -0.106159,0.0568 -0.06655,0.0327 -0.138795,0.0519 -0.21121,0.0664 -0.121051,0.0244 -0.24444,0.0351 -0.365242,0.0608 -0.06311,0.0134 -0.12612,0.0305 -0.183915,0.0598 -0.04474,0.0227 -0.08582,0.0541 -0.115251,0.0951 -0.03158,0.044 -0.04834,0.0975 -0.05234,0.15126 -0.0042,0.0568 0.0077,0.11394 0.02922,0.16638 0.02774,0.0675 0.06958,0.12822 0.116375,0.18379 0.06609,0.0785 0.141923,0.14808 0.219871,0.21454 0.06193,0.0528 0.123082,0.10672 0.188544,0.15506 0.01762,0.013 0.04042,0.015 0.06159,0.0151"
         id="path5020"
         inkscape:original-d="m 30.270053,216.73794 c 0.105393,0.3003 0.07897,0.63828 -0.05409,0.91232 -0.153671,0.31645 -0.711637,0.35754 -0.789226,0.70067 -0.04981,0.22011 0.09445,0.47428 0.26367,0.62362 0.269964,0.23826 0.710138,0.14818 1.039468,0.2937 0.361367,0.15969 0.983958,0.23194 1.006203,0.62638 0.01856,0.3289 -0.489866,0.44819 -0.774909,0.61332 -0.292927,0.16966 -0.844376,0.0534 -0.942876,0.3773 -0.09288,0.30558 0.294127,0.588 0.540729,0.79094 0.0078,0.006 0.01828,0.01 0.02828,0.0121 0.01079,0.003 0.03331,0.003 0.03331,0.003"
         inkscape:path-effect="#path-effect1563"
         style="fill:none;fill-rule:evenodd;stroke:#acbfa4;stroke-width:0.26458332px;stroke-linecap:butt;stroke-linejoin:miter;stroke-opacity:1" />
    </g>
    <g
       transform="matrix(1.3,0,0,1.3,-24.208395,-19.069712)"
       id="g5036">
      <g
         id="g5034"
         transform="translate(0.05708793,0.17279538)">
        <path
           sodipodi:nodetypes="cccccccccccssccccc"
           inkscape:connector-curvature="0"
           d="m 64.017196,228.98661 c -0.06459,-0.20781 -0.166423,-0.4019 -0.229119,-0.61038 -0.03225,-0.10724 -0.05303,-0.21882 -0.0513,-0.33115 4.89e-4,-0.0318 0.0069,-0.0634 0.0068,-0.0952 -0.0014,-0.92121 -0.27609,-1.88457 -6.69e-4,-2.76364 0.04176,-0.1333 0.0583,-0.27293 0.06641,-0.41191 0.01107,-0.18982 0.0065,-0.38072 0.03107,-0.56961 0.0097,-0.0748 0.01189,-0.15398 0.04573,-0.22146 0.02966,-0.0591 0.07213,-0.11226 0.125607,-0.15162 0.05689,-0.0419 0.124643,-0.0667 0.193558,-0.0802 0.09384,-0.0184 0.189948,-0.0186 0.285193,-0.0175 0.09395,0.001 0.187885,9.5e-4 0.281891,-0.004 0.05223,-0.003 0.104001,0.0158 0.145523,0.0471 0.05044,0.038 0.0883,0.09 0.118788,0.1447 0.04221,0.0756 0.07258,0.15732 0.09705,0.24023 0.03428,0.11616 0.05841,0.23521 0.07461,0.35517 0.004,0.0298 0.0101,0.0596 0.01055,0.0896 0.0076,0.52166 0.01529,1.04331 0.02295,1.56497 0.0029,0.19826 0.01669,0.39666 0.0087,0.59478 -0.01936,0.48304 -0.05809,0.96568 -0.05807,1.44911 1.5e-5,0.57034 -0.285234,1.21714 1.3e-5,1.71102 0.04403,0.0762 0.103913,0.14318 0.174762,0.19551 0.08303,0.0613 0.179512,0.1021 0.278458,0.1299 0.129692,0.0364 0.26385,0.0528 0.397445,0.0673 0.02177,0.002 0.0435,0.009 0.06532,0.007 0.07022,-0.006 0.138554,-0.0303 0.197214,-0.0693 0.07094,-0.0472 0.127382,-0.11338 0.171715,-0.18553 0.05606,-0.0912 0.0954,-0.19187 0.124021,-0.29476 0.01841,-0.0662 0.03358,-0.13341 0.04286,-0.20148 0.01494,-0.10951 0.0092,-0.22043 0.0016,-0.33028 -0.0084,-0.12035 -0.01971,-0.24126 -0.0097,-0.36187 0.004,-0.0475 0.01175,-0.0946 0.01645,-0.14207 0.01299,-0.13118 0.01934,-0.26293 0.0234,-0.39466 0.0057,-0.18487 0.0083,-0.36988 0.0055,-0.55482 -3.65e-4,-0.0237 -2.1e-4,-0.0474 -2.1e-4,-0.0711 0,-0.38783 0.06458,-0.78108 0,-1.16351 -0.04965,-0.29402 -0.0989,-0.58811 -0.145599,-0.88261 -0.01138,-0.0717 -0.0188,-0.14416 -0.03336,-0.21532 -0.04692,-0.22934 -0.08266,-0.4612 -0.143025,-0.68761 -0.01572,-0.059 -0.04165,-0.11525 -0.05303,-0.17522 -0.07325,-0.38579 -0.175437,-0.76572 -0.238162,-1.15356 -0.03759,-0.23245 -0.06053,-0.46805 -0.05364,-0.70371 2.19e-4,-0.007 4.67e-4,-0.015 7.45e-4,-0.0225"
           id="path5028"
           inkscape:original-d="m 64.017196,228.98661 c -0.105837,-0.34143 -0.321898,-0.66321 -0.273587,-1.03672 -0.0014,-0.92121 -3.19e-4,-1.84243 -6.69e-4,-2.76364 0.122029,-0.3903 0.02748,-0.81548 0.143206,-1.20298 0.172342,-0.34061 0.582216,-0.2226 0.886249,-0.25339 0.36829,-0.0157 0.446508,0.87581 0.446508,0.87581 l 0.01529,1.04441 0.01643,1.11619 -0.05808,1.44928 c 0,0 3.6e-5,1.14068 1.3e-5,1.71102 0.190552,0.32777 0.56932,0.36257 0.915987,0.39973 0.34261,-0.0301 0.485166,-0.44229 0.532238,-0.72733 0.04171,-0.25257 -0.03424,-0.51554 0.0014,-0.76957 0.04934,-0.35162 0.03918,-1.05553 0.03918,-1.05553 v -1.21694 c 0,0 -0.124335,-0.73266 -0.178956,-1.09793 -0.0589,-0.288 -0.102793,-0.59232 -0.196059,-0.86283 -0.11799,-0.62187 -0.314814,-1.24103 -0.291055,-1.87972"
           inkscape:path-effect="#path-effect918"
           style="fill:none;fill-rule:evenodd;stroke:#acbfa4;stroke-width:0.26458332px;stroke-linecap:butt;stroke-linejoin:miter;stroke-opacity:1" />
        <path
           inkscape:connector-curvature="0"
           d="m 67.464878,224.08933 c 3.6e-5,0.66603 -0.236848,1.3756 0,1.99809 0.05359,0.14085 0.08487,0.28938 0.101609,0.43891 0.02138,0.19096 0.02001,0.38348 0.01662,0.57531 -0.0028,0.15848 -0.01196,0.3173 -0.0016,0.47553 0.01471,0.2256 0.04332,0.45048 0.04454,0.67683 2.82e-4,0.0527 -0.0041,0.10528 -0.004,0.15796 5.26e-4,0.33529 -0.185353,0.72627 -2.94e-4,1.00587 0.03556,0.0537 0.08312,0.10012 0.14019,0.13065 0.05839,0.0312 0.12519,0.0442 0.191058,0.0438 0.08367,-5e-4 0.166154,-0.0198 0.244759,-0.0474 0.110306,-0.0387 0.210589,-0.0999 0.314812,-0.15237 0.08475,-0.0426 0.159463,-0.10446 0.21848,-0.17868 0.07226,-0.0909 0.121026,-0.19873 0.150556,-0.31056 0.03452,-0.13072 0.04246,-0.26713 0.03586,-0.40195 -0.0014,-0.029 -0.0051,-0.0576 -0.005,-0.0868 0.0051,-0.78876 -0.225775,-1.61118 0.0021,-2.36631 0.04477,-0.14835 0.06643,-0.30275 0.07537,-0.45718 0.01351,-0.23348 -7.11e-4,-0.46725 -0.0019,-0.70084 -8.75e-4,-0.17276 0.0056,-0.34634 0.03575,-0.51679 0.0072,-0.0409 0.01634,-0.0814 0.02648,-0.12165 0.01992,-0.0791 0.03709,-0.15947 0.0677,-0.23537 0.01942,-0.0481 0.04473,-0.095 0.08217,-0.13174 0.03245,-0.0318 0.07564,-0.0517 0.120693,-0.0572 0.05107,-0.006 0.101114,0.027 0.151409,0.0185 0.05163,-0.009 0.106169,-0.008 0.155512,0.0115 0.04152,0.0162 0.07675,0.0458 0.10342,0.0812 0.03566,0.0473 0.05851,0.10278 0.07635,0.15886 0.03103,0.0975 0.04662,0.19898 0.07218,0.29792 0.0039,0.0151 0.01222,0.0295 0.01275,0.0451 0.01116,0.32827 -0.01404,0.65691 0.0056,0.98501 0.0058,0.0962 0.03416,0.19109 0.03082,0.28745 -0.0081,0.23296 0.01212,0.46591 0.0431,0.69663 0.01861,0.13862 0.04524,0.27605 0.06379,0.41466 0.03957,0.2956 0.11759,0.58456 0.155911,0.88037 0.01839,0.14195 0.01922,0.2853 0.01827,0.42861 -0.006,0.91133 -6.1e-4,1.82268 -0.0024,2.73401"
           id="path5030"
           inkscape:original-d="m 67.464878,224.08933 c 3.6e-5,0.66603 -4.9e-5,1.33206 0,1.99809 0.18054,0.47564 0.09901,0.99348 0.116578,1.48975 0.01811,0.27797 0.05727,0.55273 0.04049,0.83479 5.26e-4,0.33529 -0.0016,0.67058 -2.94e-4,1.00587 0.2153,0.32297 0.634459,0.12699 0.890819,-0.0253 0.344425,-0.17436 0.438465,-0.59544 0.399759,-0.94989 0.0054,-0.79802 8.58e-4,-1.59626 0.0023,-2.39437 0.172942,-0.57454 -0.0061,-1.18444 0.1272,-1.76321 0.06123,-0.23325 0.100833,-0.54218 0.430469,-0.4391 0.345669,-0.0578 0.348424,0.3652 0.420217,0.59456 0.01442,0.42444 -0.0319,0.85029 0.03642,1.27246 -0.01287,0.37407 0.04641,0.7434 0.10689,1.11129 0.05819,0.43539 0.202061,0.86361 0.174183,1.30898 -0.006,0.91109 -6.1e-4,1.82272 -0.0024,2.73401"
           inkscape:path-effect="#path-effect940"
           style="fill:none;fill-rule:evenodd;stroke:#acbfa4;stroke-width:0.26458332px;stroke-linecap:butt;stroke-linejoin:miter;stroke-opacity:1" />
        <path
           sodipodi:nodetypes="cccccccccc"
           inkscape:connector-curvature="0"
           d="m 70.951737,230.24031 c -0.04256,-0.25823 -0.08849,-0.5164 -0.109587,-0.77751 -0.01143,-0.14147 -0.01144,-0.28354 -0.0076,-0.42548 0.0016,-0.0608 2.09e-4,-0.1217 -0.0014,-0.18251 -0.0044,-0.16754 -0.01113,-0.33501 -0.0166,-0.50251 -0.0064,-0.19531 -0.01266,-0.39067 -0.01268,-0.58609 -9e-6,-0.0972 2.16e-4,-0.19449 0.007,-0.29147 0.0032,-0.0451 1.03e-4,-0.0923 0.01633,-0.13455 0.0033,-0.009 0.0015,-0.0177 0.0016,-0.0266 0.0017,-0.22592 0.0062,-0.45184 0.01642,-0.67755 0.0067,-0.14736 0.01475,-0.29467 0.01958,-0.44211 0.0063,-0.19222 -0.04616,-0.39249 0.0085,-0.57687 0.03045,-0.10268 0.04022,-0.21019 0.04212,-0.31688 0.0029,-0.16366 -0.01245,-0.32735 -0.0021,-0.49092 0.0062,-0.0992 0.023,-0.19846 0.05921,-0.29136 0.01689,-0.0433 0.0345,-0.0874 0.06293,-0.12423 0.03408,-0.0441 0.07799,-0.0805 0.127873,-0.10553 0.06003,-0.0301 0.126998,-0.0434 0.193544,-0.0481 0.09259,-0.007 0.185331,0.001 0.27779,0.006 0.07852,0.004 0.157659,0.008 0.235881,-0.003 0.01631,-0.002 0.03293,5.5e-4 0.04904,0.003 0.0401,0.007 0.07819,0.0293 0.09937,0.0647 0.02772,0.0464 0.03204,0.10205 0.03282,0.15482 9.93e-4,0.0673 -0.0036,0.1345 -0.0035,0.20189 1.7e-5,0.0114 0.0028,0.0226 0.0028,0.0339 -7.65e-4,0.58581 0.02042,1.17207 -0.0023,1.75745 -0.02124,0.54719 -0.02299,1.09549 -0.06371,1.64158 -0.03289,0.44112 -0.06577,0.88225 -0.09627,1.32355 -0.01099,0.15899 -0.02314,0.31792 -0.03146,0.47708 -0.0018,0.0344 -0.0042,0.0687 -0.0045,0.1031"
           id="path5032"
           inkscape:original-d="m 70.951737,230.24031 c -0.0656,-0.39794 -0.139485,-0.7979 -0.117212,-1.20299 0.0086,-0.25891 -0.06865,-1.45009 -0.0059,-1.70323 0.0064,-0.88115 0.04326,-0.83534 0.04466,-1.71701 0.117839,-0.39807 -0.07342,-0.85358 0.162124,-1.22339 0.199442,-0.2561 0.563228,-0.11016 0.841629,-0.15079 0.247462,0.005 0.152526,0.29432 0.173937,0.45759 l -0.0023,1.75939 -0.06371,1.64158 c 0,0 -0.134225,1.79133 -0.132195,1.90373"
           inkscape:path-effect="#path-effect944"
           style="fill:none;fill-rule:evenodd;stroke:#acbfa4;stroke-width:0.26458332px;stroke-linecap:butt;stroke-linejoin:miter;stroke-opacity:1" />
      </g>
    </g>
    <circle
       r="7.5506902"
       cy="256.48441"
       cx="51.780571"
       id="circle5088"
       style="opacity:1;vector-effect:none;fill:none;fill-opacity:1;stroke:#fb8f67;stroke-width:0.25999999;stroke-linecap:butt;stroke-linejoin:miter;stroke-miterlimit:4;stroke-dasharray:1.04, 0.52;stroke-dashoffset:0;stroke-opacity:1" />
    <text
       xml:space="preserve"
       style="font-style:normal;font-variant:normal;font-weight:normal;font-stretch:normal;font-size:2.82222223px;line-height:1;font-family:'Latin Modern Sans';-inkscape-font-specification:'Latin Modern Sans';text-align:center;letter-spacing:0px;word-spacing:0px;text-anchor:middle;fill:#acbfa4;fill-opacity:1;stroke:none;stroke-width:0.26458332px;stroke-linecap:butt;stroke-linejoin:miter;stroke-opacity:1"
       x="51.599216"
       y="258.06314"
       id="text1064"><tspan
         sodipodi:role="line"
         id="tspan1062"
         x="51.599216"
         y="258.06314"
         style="font-size:5.64444447px;fill:#acbfa4;fill-opacity:1;stroke-width:0.26458332px">???</tspan></text>
    <g
       id="g1082"
       transform="translate(-1.2861643)">
      <text
         xml:space="preserve"
         style="font-style:normal;font-variant:normal;font-weight:normal;font-stretch:normal;font-size:2.82222223px;line-height:1.10000002;font-family:'Latin Modern Sans';-inkscape-font-specification:'Latin Modern Sans';text-align:center;letter-spacing:0px;word-spacing:0px;text-anchor:middle;fill:#000000;fill-opacity:1;stroke:none;stroke-width:0.26458332px;stroke-linecap:butt;stroke-linejoin:miter;stroke-opacity:1"
         x="45.347164"
         y="292.57285"
         id="text4986"><tspan
           sodipodi:role="line"
           id="tspan4984"
           x="45.347164"
           y="292.57285"
           style="font-size:3.52777767px;stroke-width:0.26458332px">?? Order Parameter ??</tspan></text>
      <rect
         ry="1.2033207"
         y="289.00607"
         x="27.94507"
         height="4.8820934"
         width="35.068653"
         id="rect1068"
         style="opacity:1;vector-effect:none;fill:none;fill-opacity:1;stroke:#fb8f67;stroke-width:0.25999999;stroke-linecap:butt;stroke-linejoin:miter;stroke-miterlimit:4;stroke-dasharray:1.56, 0.26;stroke-dashoffset:0;stroke-opacity:1" />
    </g>
  </g>
</svg>
