<?xml version="1.0" encoding="UTF-8" standalone="no"?>
<!-- Created with Inkscape (http://www.inkscape.org/) -->

<svg
   id="svg8"
   version="1.1"
   viewBox="0 0 82.549182 95.229604"
   height="3.749197in"
   width="3.2499678in"
   inkscape:version="1.1.2 (b8e25be833, 2022-02-05)"
   sodipodi:docname="checkerboard_cube_wpols_zoom.svg"
   xmlns:inkscape="http://www.inkscape.org/namespaces/inkscape"
   xmlns:sodipodi="http://sodipodi.sourceforge.net/DTD/sodipodi-0.dtd"
   xmlns="http://www.w3.org/2000/svg"
   xmlns:svg="http://www.w3.org/2000/svg"
   xmlns:rdf="http://www.w3.org/1999/02/22-rdf-syntax-ns#"
   xmlns:cc="http://creativecommons.org/ns#"
   xmlns:dc="http://purl.org/dc/elements/1.1/">
  <defs
     id="defs2">
    <inkscape:path-effect
       effect="spiro"
       id="path-effect5177"
       is_visible="true" />
    <inkscape:path-effect
       effect="skeletal"
       id="path-effect5344"
       is_visible="true"
       pattern="M 18.913116,-2.8690881 A 9.6000004,9.6000004 0 0 1 9.3131159,6.730912 9.6000004,9.6000004 0 0 1 -0.28688408,-2.8690881 9.6000004,9.6000004 0 0 1 9.3131159,-12.469088 9.6000004,9.6000004 0 0 1 18.913116,-2.8690881 Z"
       copytype="repeated"
       prop_scale="1"
       scale_y_rel="false"
       spacing="0"
       normal_offset="0"
       tang_offset="0"
       prop_units="false"
       vertical_pattern="false"
       fuse_tolerance="0" />
    <inkscape:path-effect
       effect="spiro"
       id="path-effect5165"
       is_visible="true" />
    <inkscape:path-effect
       effect="skeletal"
       id="path-effect5307"
       is_visible="true"
       pattern="m 35.332608,7.1944718 a 9.6000004,9.6000004 0 0 1 -9.6,9.6000002 9.6000004,9.6000004 0 0 1 -9.6,-9.6000002 9.6000004,9.6000004 0 0 1 9.6,-9.6 9.6000004,9.6000004 0 0 1 9.6,9.6 z"
       copytype="repeated"
       prop_scale="1"
       scale_y_rel="false"
       spacing="0"
       normal_offset="0"
       tang_offset="0"
       prop_units="false"
       vertical_pattern="false"
       fuse_tolerance="0" />
    <inkscape:path-effect
       effect="spiro"
       id="path-effect5181"
       is_visible="true" />
    <inkscape:path-effect
       effect="skeletal"
       id="path-effect5248"
       is_visible="true"
       pattern="m 34.273285,-204.14027 a 9.6000004,9.6000004 0 0 1 -9.6,9.6 9.6000004,9.6000004 0 0 1 -9.6,-9.6 9.6000004,9.6000004 0 0 1 9.6,-9.6 9.6000004,9.6000004 0 0 1 9.6,9.6 z"
       copytype="repeated"
       prop_scale="1"
       scale_y_rel="false"
       spacing="0"
       normal_offset="0"
       tang_offset="0"
       prop_units="false"
       vertical_pattern="false"
       fuse_tolerance="0" />
    <inkscape:path-effect
       effect="spiro"
       id="path-effect5161"
       is_visible="true" />
    <inkscape:path-effect
       effect="skeletal"
       id="path-effect5330"
       is_visible="true"
       pattern="m 23.150404,-12.932647 a 9.6000004,9.6000004 0 0 1 -9.6,9.6 9.6000004,9.6000004 0 0 1 -9.6,-9.6 9.6000004,9.6000004 0 0 1 9.6,-9.6 9.6000004,9.6000004 0 0 1 9.6,9.6 z"
       copytype="repeated"
       prop_scale="1"
       scale_y_rel="false"
       spacing="0"
       normal_offset="0"
       tang_offset="0"
       prop_units="false"
       vertical_pattern="false"
       fuse_tolerance="0" />
    <inkscape:path-effect
       effect="spiro"
       id="path-effect5173"
       is_visible="true" />
    <inkscape:path-effect
       effect="skeletal"
       id="path-effect5337"
       is_visible="true"
       pattern="m 24.739387,56.452946 a 9.6000004,9.6000004 0 0 1 -9.6,9.6 9.6000004,9.6000004 0 0 1 -9.6000001,-9.6 9.6000004,9.6000004 0 0 1 9.6000001,-9.6 9.6000004,9.6000004 0 0 1 9.6,9.6 z"
       copytype="repeated"
       prop_scale="1"
       scale_y_rel="false"
       spacing="0"
       normal_offset="0"
       tang_offset="0"
       prop_units="false"
       vertical_pattern="false"
       fuse_tolerance="0" />
    <inkscape:path-effect
       effect="spiro"
       id="path-effect5169"
       is_visible="true" />
    <inkscape:path-effect
       effect="skeletal"
       id="path-effect5314"
       is_visible="true"
       pattern="m 41.68854,-19.288579 a 9.6000004,9.6000004 0 0 1 -9.6,9.6 9.6000004,9.6000004 0 0 1 -9.6,-9.6 9.6000004,9.6000004 0 0 1 9.6,-9.6 9.6000004,9.6000004 0 0 1 9.6,9.6 z"
       copytype="repeated"
       prop_scale="1"
       scale_y_rel="false"
       spacing="0"
       normal_offset="0"
       tang_offset="0"
       prop_units="false"
       vertical_pattern="false"
       fuse_tolerance="0" />
    <marker
       inkscape:stockid="Arrow1Lstart"
       orient="auto"
       refY="0"
       refX="0"
       id="marker5906-6"
       style="overflow:visible"
       inkscape:isstock="true">
      <path
         inkscape:connector-curvature="0"
         id="path5904-5"
         d="M 0,0 5,-5 -12.5,0 5,5 Z"
         style="fill:#000000;fill-opacity:1;fill-rule:evenodd;stroke:#000000;stroke-width:1.00000003pt;stroke-opacity:1"
         transform="matrix(0.8,0,0,0.8,10,0)" />
    </marker>
    <marker
       inkscape:stockid="Arrow1Lend"
       orient="auto"
       refY="0"
       refX="0"
       id="marker5988-2"
       style="overflow:visible"
       inkscape:isstock="true">
      <path
         inkscape:connector-curvature="0"
         id="path5986-6"
         d="M 0,0 5,-5 -12.5,0 5,5 Z"
         style="fill:#000000;fill-opacity:1;fill-rule:evenodd;stroke:#000000;stroke-width:1.00000003pt;stroke-opacity:1"
         transform="matrix(-0.8,0,0,-0.8,-10,0)" />
    </marker>
    <marker
       inkscape:stockid="Arrow1Lstart"
       orient="auto"
       refY="0"
       refX="0"
       id="Arrow1Lstart"
       style="overflow:visible"
       inkscape:isstock="true">
      <path
         inkscape:connector-curvature="0"
         id="path821"
         d="M 0,0 5,-5 -12.5,0 5,5 Z"
         style="fill:#000000;fill-opacity:1;fill-rule:evenodd;stroke:#000000;stroke-width:1.00000003pt;stroke-opacity:1"
         transform="matrix(0.8,0,0,0.8,10,0)" />
    </marker>
    <marker
       inkscape:stockid="Arrow1Lend"
       orient="auto"
       refY="0"
       refX="0"
       id="Arrow1Lend"
       style="overflow:visible"
       inkscape:isstock="true">
      <path
         inkscape:connector-curvature="0"
         id="path824"
         d="M 0,0 5,-5 -12.5,0 5,5 Z"
         style="fill:#000000;fill-opacity:1;fill-rule:evenodd;stroke:#000000;stroke-width:1.00000003pt;stroke-opacity:1"
         transform="matrix(-0.8,0,0,-0.8,-10,0)" />
    </marker>
    <marker
       inkscape:stockid="Arrow1Lstart"
       orient="auto"
       refY="0"
       refX="0"
       id="marker5906"
       style="overflow:visible"
       inkscape:isstock="true">
      <path
         inkscape:connector-curvature="0"
         id="path5904"
         d="M 0,0 5,-5 -12.5,0 5,5 Z"
         style="fill:#000000;fill-opacity:1;fill-rule:evenodd;stroke:#000000;stroke-width:1.00000003pt;stroke-opacity:1"
         transform="matrix(0.8,0,0,0.8,10,0)" />
    </marker>
    <marker
       inkscape:stockid="Arrow1Lend"
       orient="auto"
       refY="0"
       refX="0"
       id="marker5988"
       style="overflow:visible"
       inkscape:isstock="true">
      <path
         inkscape:connector-curvature="0"
         id="path5986"
         d="M 0,0 5,-5 -12.5,0 5,5 Z"
         style="fill:#000000;fill-opacity:1;fill-rule:evenodd;stroke:#000000;stroke-width:1.00000003pt;stroke-opacity:1"
         transform="matrix(-0.8,0,0,-0.8,-10,0)" />
    </marker>
    <inkscape:path-effect
       effect="spiro"
       id="path-effect5165-3"
       is_visible="true" />
    <inkscape:path-effect
       effect="skeletal"
       id="path-effect5307-6"
       is_visible="true"
       pattern="m 35.332608,7.1944718 a 9.6000004,9.6000004 0 0 1 -9.6,9.6000002 9.6000004,9.6000004 0 0 1 -9.6,-9.6000002 9.6000004,9.6000004 0 0 1 9.6,-9.6 9.6000004,9.6000004 0 0 1 9.6,9.6 z"
       copytype="repeated"
       prop_scale="1"
       scale_y_rel="false"
       spacing="0"
       normal_offset="0"
       tang_offset="0"
       prop_units="false"
       vertical_pattern="false"
       fuse_tolerance="0" />
    <inkscape:path-effect
       effect="spiro"
       id="path-effect5181-7"
       is_visible="true" />
    <inkscape:path-effect
       effect="skeletal"
       id="path-effect5248-5"
       is_visible="true"
       pattern="m 34.273285,-204.14027 a 9.6000004,9.6000004 0 0 1 -9.6,9.6 9.6000004,9.6000004 0 0 1 -9.6,-9.6 9.6000004,9.6000004 0 0 1 9.6,-9.6 9.6000004,9.6000004 0 0 1 9.6,9.6 z"
       copytype="repeated"
       prop_scale="1"
       scale_y_rel="false"
       spacing="0"
       normal_offset="0"
       tang_offset="0"
       prop_units="false"
       vertical_pattern="false"
       fuse_tolerance="0" />
    <marker
       inkscape:stockid="Arrow1Lstart"
       orient="auto"
       refY="0"
       refX="0"
       id="marker5906-3"
       style="overflow:visible"
       inkscape:isstock="true">
      <path
         inkscape:connector-curvature="0"
         id="path5904-56"
         d="M 0,0 5,-5 -12.5,0 5,5 Z"
         style="fill:#000000;fill-opacity:1;fill-rule:evenodd;stroke:#000000;stroke-width:1.00000003pt;stroke-opacity:1"
         transform="matrix(0.8,0,0,0.8,10,0)" />
    </marker>
    <marker
       inkscape:stockid="Arrow1Lend"
       orient="auto"
       refY="0"
       refX="0"
       id="marker5988-29"
       style="overflow:visible"
       inkscape:isstock="true">
      <path
         inkscape:connector-curvature="0"
         id="path5986-1"
         d="M 0,0 5,-5 -12.5,0 5,5 Z"
         style="fill:#000000;fill-opacity:1;fill-rule:evenodd;stroke:#000000;stroke-width:1.00000003pt;stroke-opacity:1"
         transform="matrix(-0.8,0,0,-0.8,-10,0)" />
    </marker>
  </defs>
  <sodipodi:namedview
     id="base"
     pagecolor="#ffffff"
     bordercolor="#666666"
     borderopacity="1.0"
     inkscape:pageopacity="0.0"
     inkscape:pageshadow="2"
     inkscape:zoom="1.4142136"
     inkscape:cx="269.05412"
     inkscape:cy="191.97949"
     inkscape:document-units="mm"
     inkscape:current-layer="layer1"
     showgrid="false"
     units="in"
     inkscape:window-width="1368"
     inkscape:window-height="850"
     inkscape:window-x="-6"
     inkscape:window-y="-6"
     inkscape:window-maximized="1"
     showguides="true"
     inkscape:pagecheckerboard="false"
     inkscape:object-nodes="true"
     fit-margin-top="0"
     fit-margin-left="0"
     fit-margin-right="0"
     fit-margin-bottom="0">
    <inkscape:grid
       type="xygrid"
       id="grid4894"
       originx="-0.28431401"
       originy="2.2888134" />
  </sodipodi:namedview>
  <metadata
     id="metadata5">
    <rdf:RDF>
      <cc:Work
         rdf:about="">
        <dc:format>image/svg+xml</dc:format>
        <dc:type
           rdf:resource="http://purl.org/dc/dcmitype/StillImage" />
      </cc:Work>
    </rdf:RDF>
  </metadata>
  <g
     inkscape:label="Layer 1"
     inkscape:groupmode="layer"
     id="layer1"
     transform="translate(0,-214.44998)">
    <path
       transform="matrix(0.84713198,0,0,0.84713198,-119.13761,131.89316)"
       inkscape:original-d="m 230.9322,143.82152 c 5.12106,16.59505 10.24112,33.19109 15.36017,49.78814 5.11906,16.59704 20.12812,-27.89648 30.19068,-41.84322 10.06256,-13.94674 10.24111,24.71651 15.36017,37.07627 5.11906,12.35976 -3.53007,35.66284 -5.29661,53.49576 -1.76654,17.83292 7.76936,22.24476 11.65254,33.36865"
       inkscape:path-effect="#path-effect5173;#path-effect5337"
       inkscape:connector-curvature="0"
       id="path5171"
       d="m 212.33467,140.04041 c -0.1629,-2.54323 0.7135,-5.0619 2.90726,-6.85648 2.18305,-1.78583 5.35625,-2.54447 8.55264,-1.89517 3.19629,0.64928 5.82634,2.58694 7.14126,5.08472 1.32163,2.51054 1.14265,5.17093 -0.004,7.44804 -1.12956,2.2439 -3.13507,4.03003 -5.12124,5.12188 -2.01946,1.11015 -4.02651,1.53172 -5.83657,1.16474 -1.81008,-0.36699 -3.49852,-1.53803 -4.92728,-3.35012 -1.40577,-1.78294 -2.55184,-4.2101 -2.71244,-6.71761 z m -17.94726,6.1662 c -1.42805,-2.11024 -1.94866,-4.72645 -0.96989,-7.38392 0.97417,-2.64496 3.3213,-4.90742 6.40723,-5.96947 3.70089,-1.2737 7.53905,-0.5244 9.94122,1.66217 1.63338,1.48853 2.43651,3.46113 2.5687,5.52502 0.13133,2.05038 -0.39726,4.11919 -1.2208,5.87002 -1.20912,2.56702 -2.98624,4.3903 -5.03361,5.09721 -1.7437,0.60207 -3.7951,0.45204 -5.94803,-0.38459 -2.11914,-0.82351 -4.33609,-2.33474 -5.74482,-4.41644 z m -12.34568,14.40982 c -2.30042,-1.09532 -4.07623,-3.08692 -4.58119,-5.87176 -0.50266,-2.77216 0.37147,-5.91173 2.49514,-8.39475 1.73552,-2.02919 4.07539,-3.34108 6.4576,-3.69217 3.47037,-0.50702 6.29178,1.06284 7.97413,3.54886 1.65595,2.44702 2.16011,5.62608 1.90956,8.1417 -0.18168,1.79866 -0.75463,3.31402 -1.74446,4.47428 -1.19443,1.4001 -3.03766,2.31361 -5.31839,2.68618 -2.2458,0.36687 -4.92197,0.18869 -7.19239,-0.89234 z m -3.34077,18.67696 c -2.53804,0.22261 -5.0795,-0.59296 -6.9269,-2.73559 -1.8392,-2.13312 -2.67869,-5.28278 -2.10591,-8.50526 0.29818,-1.67759 0.9618,-3.2538 1.91542,-4.57576 0,0 0,0 0,0 2.80266,-3.87114 7.05217,-4.48208 10.45816,-2.86035 3.33508,1.58796 5.68476,5.04443 6.38671,7.79281 0,0 0,10e-6 0,10e-6 0.26128,1.03331 0.31322,2.03078 0.14241,2.99679 -0.31935,1.80596 -1.44274,3.52779 -3.21874,5.0067 -1.74947,1.45682 -4.14509,2.66084 -6.65115,2.88065 z m 6.58319,17.79327 c -2.07409,1.4794 -4.67847,2.06662 -7.35688,1.15725 -2.66671,-0.9054 -4.98908,-3.19616 -6.13109,-6.27169 -0.29548,-0.79573 -0.50206,-1.62061 -0.61494,-2.45343 0,-1e-5 0,-1e-5 0,-1e-5 -0.37019,-2.7725 0.32685,-5.35922 1.78957,-7.21711 1.46762,-1.86413 3.53611,-2.81585 5.73015,-3.00828 4.38084,-0.38425 8.75496,2.14402 10.42928,4.68794 0,0 0,0 0,0 0.27254,0.41704 0.49373,0.85321 0.66341,1.31067 0.63494,1.71181 0.53983,3.76287 -0.23995,5.93765 -0.76843,2.14309 -2.22078,4.39567 -4.26955,5.85701 z m 14.69084,12.00412 c -1.03646,2.32694 -2.98276,4.15512 -5.75271,4.72907 -2.75798,0.57147 -5.92524,-0.22743 -8.47559,-2.30688 -0.028,-0.0228 -0.0559,-0.0458 -0.0836,-0.0688 -2.51168,-2.09611 -3.89268,-5.02811 -3.8668,-7.82461 0.026,-2.80852 1.42603,-5.06218 3.48789,-6.53286 2.0378,-1.45351 4.62179,-2.09321 6.88794,-2.13007 2.29753,-0.0374 4.26322,0.52332 5.6742,1.64908 0.0161,0.0129 0.0321,0.0259 0.048,0.039 1.40435,1.15144 2.35864,2.96533 2.78868,5.23364 0.42394,2.23615 0.31619,4.91311 -0.708,7.21248 z m 18.74819,2.90544 c 0.25186,2.21802 -0.28679,4.46458 -1.86678,6.28519 -1.57456,1.81435 -4.03351,2.99613 -6.87207,3.1341 0,0 0,0 0,0 -0.76813,0.0358 -1.54341,-0.006 -2.30929,-0.12603 -3.24221,-0.50636 -5.95002,-2.3259 -7.36857,-4.75877 -1.42476,-2.44352 -1.36806,-5.11274 -0.33148,-7.43993 1.02397,-2.29888 2.94208,-4.17072 4.8891,-5.35068 1.97573,-1.19736 3.96641,-1.69923 5.76966,-1.41856 0.44009,0.0685 0.87138,0.18261 1.29552,0.34195 0,0 0,0 0,0 2.86473,1.08708 6.2905,4.89952 6.79391,9.33273 z m 17.63653,-6.99546 c 2.30669,3.06625 2.51687,7.45263 -0.87224,10.98205 0,0 0,0 0,0 -1.08258,1.12344 -2.43833,2.02832 -3.94878,2.6255 -3.0443,1.20361 -6.2982,1.00843 -8.75491,-0.36894 -2.46765,-1.38351 -3.77314,-3.71164 -4.0606,-6.24315 -0.28386,-2.4997 0.41885,-5.08706 1.49802,-7.09168 1.0955,-2.03497 2.55891,-3.4787 4.26436,-4.15137 0.87003,-0.34316 1.80822,-0.49354 2.81701,-0.46329 0,0 0,0 0,0 2.85565,0.0927 6.79863,1.70867 9.05714,4.71088 z m 11.67804,-14.95561 c 2.80374,1.21633 4.92568,3.76447 5.06014,7.33508 0.065,2.33703 -0.75698,4.79141 -2.34196,6.82243 -2.01038,2.57615 -4.91288,4.05816 -7.72952,4.11777 -2.82949,0.0599 -5.135,-1.2836 -6.6667,-3.31967 -1.51177,-2.00959 -2.21947,-4.59654 -2.30725,-6.87055 -0.0891,-2.3093 0.439,-4.29748 1.57274,-5.74653 0.90797,-1.16049 2.21617,-2.00415 3.86165,-2.54459 2.52515,-0.81426 5.72488,-1.01995 8.5509,0.20606 z m 5.99677,-18.23881 c 2.32634,0.80428 4.32354,2.49776 5.52424,4.56766 1.21527,2.095 1.6055,4.55342 0.937,7.04381 -0.0271,0.10751 -0.0562,0.21481 -0.0872,0.32186 -0.73816,2.54837 -2.55167,4.83351 -4.96403,6.07741 -2.43343,1.25476 -5.05553,1.24811 -7.40679,0.22807 -2.29553,-0.99586 -4.20571,-2.89507 -5.31019,-4.98432 -1.12526,-2.12856 -1.44433,-4.49004 -0.71792,-6.83179 0.0306,-0.0986 0.063,-0.19694 0.0971,-0.29497 0.75499,-2.28422 2.44553,-4.36186 4.71683,-5.56902 2.28955,-1.21686 4.8401,-1.37836 7.2109,-0.55871 z m 10.08537,-16.02853 c 0.70813,0.89264 1.25654,1.91013 1.68708,2.93398 1.44523,3.47698 1.71679,7.01795 0.42489,9.25478 -0.62346,1.07946 -1.62499,2.02301 -2.95951,2.77682 0,0 0,0 0,0 -2.55963,1.49608 -6.02583,2.17343 -9.23783,1.06295 -3.16569,-1.09446 -5.61747,-3.82313 -5.87014,-7.64955 0,0 0,0 0,0 -0.14234,-1.98777 0.35504,-4.09763 1.51483,-6.02048 2.81641,-4.66941 8.12858,-6.38951 11.82422,-4.53262 1.0413,0.51751 1.90615,1.27874 2.61646,2.17412 z m 17.94682,-2.31791 c -1.39356,2.67849 -5.61772,6.28878 -6.44445,7.11517 0,0 0,0 0,0 -0.47605,0.39233 -0.8866,0.64255 -1.38581,0.73399 -0.94166,0.17249 -2.38212,-0.27417 -4.33228,-1.23858 -1.85823,-0.91894 -4.25467,-2.36452 -5.78428,-4.29267 -1.56681,-1.97503 -2.33538,-4.63658 -1.12826,-7.48496 1.20212,-2.83657 4.23145,-5.24976 8.36125,-5.84993 2.02481,-0.29426 4.1097,-0.11106 5.99096,0.51489 0,0 0,0 0,0 2.78418,1.06931 4.53802,2.93689 5.24503,4.90947 0.71234,1.98747 0.34726,3.92154 -0.52216,5.59262 z m 10.44661,15.33999 c -2.29868,0.45408 -4.70376,0.0527 -6.74891,-0.61403 -2.3471,-0.76625 -4.01831,-1.82741 -4.78703,-3.05642 -0.42482,-0.67918 -0.61834,-1.43871 -0.6848,-2.35954 0,0 0,0 0,0 -0.055,-1.04774 0.0673,-2.67101 0.30645,-4.25729 0.24428,-1.6204 0.6513,-3.48358 1.46768,-5.05271 0.83356,-1.60215 2.11993,-2.94662 4.01577,-3.58375 1.87999,-0.6318 4.21265,-0.48614 6.47222,0.70467 0,0 0,0 0,0 1.78203,0.93096 3.36874,2.37446 4.52009,4.13051 2.21189,3.37356 2.3946,7.16417 1.03664,9.93082 -1.20551,2.39012 -3.29397,3.70259 -5.59811,4.15774 z m -0.51759,19.09927 c -2.52606,-0.40282 -4.77412,-1.79213 -6.3481,-3.7433 -1.57251,-1.94934 -2.30625,-4.23378 -2.16258,-6.3155 0.14362,-2.08093 1.14692,-3.9411 2.75478,-5.55103 1.5692,-1.57122 3.8443,-3.00958 6.27349,-3.48944 2.50017,-0.49388 5.05837,0.0616 7.11282,2.02373 2.03273,1.94142 3.18519,4.93554 3.0794,7.95903 -0.10603,3.03045 -1.44287,5.61886 -3.5195,7.2706 -2.06444,1.64206 -4.68823,2.24491 -7.19031,1.84591 z m -3.2851,18.98775 c -5.26577,-0.88099 -8.7838,-5.91986 -7.83369,-11.18872 0.65339,-3.62344 3.32301,-6.50653 6.8478,-7.52922 1.3742,-0.40118 2.84254,-0.4976 4.27099,-0.26981 1.43337,0.22858 2.78936,0.77717 3.96597,1.61729 3.02273,2.13927 4.5433,5.88781 3.90261,9.55303 -0.91309,5.22348 -5.92019,8.693 -11.15368,7.81743 z m -2.39243,19.05089 c -2.5347,-0.16722 -4.88765,-1.33956 -6.52657,-3.38291 -1.63376,-2.03692 -2.37673,-4.7263 -2.04385,-7.38791 0.69897,-5.58888 5.72222,-9.15685 10.96285,-8.28007 5.27403,0.88236 8.7593,5.81903 8.08933,10.75846 -0.65617,4.83763 -5.251,8.63752 -10.48176,8.29243 z m 0.56299,19.07916 c -2.46861,0.35254 -4.97774,-0.27627 -6.97075,-1.96804 -2.05988,-1.76119 -3.28822,-4.45908 -3.35203,-7.33223 -0.13328,-6.00049 4.5155,-10.12487 9.75979,-9.77889 5.27681,0.34813 9.19701,4.7582 9.32641,9.30138 0.0655,2.29832 -0.80235,4.55412 -2.46183,6.38884 -1.60029,1.74889 -3.84473,3.03808 -6.30159,3.38894 z m 5.02072,18.48221 c -2.36036,0.96448 -5.00881,0.94281 -7.38905,-0.2807 -2.37381,-1.22021 -4.19891,-3.50929 -4.95399,-6.28803 -0.75506,-2.77869 -0.34004,-5.67918 1.09015,-7.93429 1.43427,-2.26153 3.70791,-3.6187 6.23217,-3.97919 5.21907,-0.74533 10.05483,2.64471 11.20587,6.87671 1.15217,4.23614 -1.30258,9.61038 -6.18515,11.6055 z"
       style="fill:#519872;fill-opacity:1;stroke:#000000;stroke-width:1px;stroke-linecap:butt;stroke-linejoin:miter;stroke-miterlimit:4;stroke-dasharray:0.832, 0.832;stroke-dashoffset:0;stroke-opacity:1" />
    <path
       transform="matrix(0.81265074,0.23923085,-0.23923085,0.81265074,-30.46388,135.53173)"
       inkscape:original-d="M 54.555085,201.55457 C 45.19874,172.95188 36.194503,143.99708 27.012712,115.21983 17.830921,86.442579 80.332921,100.03521 106.99153,92.444404 c 26.6586,-7.590808 24.3654,-41.314559 36.54661,-61.970339 12.1812,-20.6557798 -37.78149,-2.825859 -56.673733,-4.237288"
       inkscape:path-effect="#path-effect5161;#path-effect5330"
       inkscape:connector-curvature="0"
       id="path5159"
       d="m 36.16493,196.4762 c 1.131408,-2.2597 3.127745,-4.02329 5.238496,-5.04722 2.130723,-1.03361 4.319973,-1.30544 6.270485,-0.76437 1.950483,0.54106 3.6784,1.89903 4.970289,3.87594 1.27884,1.95693 2.092617,4.49529 1.910885,7.01402 -0.183555,2.54399 -1.386536,4.91139 -3.682342,6.44423 -2.286191,1.52642 -5.356374,1.99091 -8.321795,1.17109 -2.965617,-0.81987 -5.352325,-2.79262 -6.526442,-5.27296 -1.178511,-2.48962 -1.001077,-5.14088 0.140424,-7.42073 z M 21.123553,184.75022 c 1.886454,-1.62312 4.358821,-2.47701 6.667808,-2.62998 2.327441,-0.1542 4.431947,0.39044 6.019092,1.56004 0.05012,0.0371 0.09976,0.0749 0.148921,0.11331 1.578875,1.2336 2.663807,3.14436 3.109809,5.46677 0.442094,2.30206 0.227662,4.95513 -0.904253,7.21584 -1.141221,2.27929 -3.15785,4.0111 -5.858112,4.55579 -2.690549,0.54273 -5.706687,-0.19373 -8.150273,-2.09523 -0.07419,-0.0577 -0.147648,-0.1164 -0.220362,-0.17598 -2.352839,-1.93474 -3.718725,-4.65132 -3.807151,-7.34372 -0.08873,-2.70175 1.09314,-5.03088 2.994521,-6.66684 z M 11.71344,168.1536 c 2.398076,-0.79122 5.058112,-0.62178 7.26843,0.14134 2.232784,0.77088 3.971677,2.11619 4.972195,3.8764 1.907367,3.35563 1.135613,9.16639 -2.830512,12.57888 -1.932712,1.66292 -4.460619,2.48134 -7.16257,1.94526 C 11.269148,186.1614 8.7740253,184.32761 7.2559913,181.6518 5.7380489,178.97616 5.4401449,175.88615 6.3628278,173.29709 7.2893655,170.69721 9.291454,168.9527 11.71344,168.1536 Z M 9.4107198,149.21492 c 2.5203462,0.18646 4.9108102,1.36161 6.6608462,2.92418 1.766539,1.57731 2.850687,3.49846 3.092423,5.50754 0.378114,3.14251 -1.409861,6.83896 -4.771282,9.15984 0,0 0,0 0,0 -0.822984,0.56815 -1.723838,1.03189 -2.679267,1.34712 -0.95605,0.31543 -1.955582,0.47834 -2.9688232,0.45472 0,0 -8e-7,0 -8e-7,0 -4.1988998,-0.0982 -8.02128013,-3.53167 -8.64277782,-8.65755 -0.37040624,-3.05498 0.54582418,-6.01278 2.39282372,-8.04223 1.853885,-2.03701 4.3733391,-2.88174 6.9160579,-2.69362 z m 5.1173762,-18.3727 c 4.415555,2.24252 6.605712,7.35366 5.901406,10.95648 -0.03647,0.18407 -0.07992,0.3664 -0.130328,0.54693 -0.53925,1.93113 -1.893181,3.66257 -3.87122,4.95929 -1.960637,1.28531 -4.495866,2.09654 -7.0172342,1.91 -2.5421625,-0.18808 -4.9110286,-1.39406 -6.4424616,-3.68354 -1.5259267,-2.28124 -1.99294331,-5.34975 -1.1653046,-8.33177 0.075454,-0.27187 0.1611711,-0.54081 0.2568989,-0.80603 1.0035788,-2.76563 2.9991322,-4.88718 5.3933067,-5.88269 2.4018404,-0.9987 4.9110368,-0.76764 7.0749368,0.33133 z m 11.766779,-15.01835 c 1.644839,1.91604 2.501053,4.44003 2.63658,6.77503 0.136898,2.35865 -0.445912,4.4794 -1.693369,6.07478 -1.247475,1.5954 -3.169812,2.67787 -5.4975,3.11305 -2.305724,0.43108 -4.959536,0.19969 -7.21249,-0.94451 -2.273259,-1.15451 -3.991939,-3.18076 -4.524218,-5.88363 -0.5302776,-2.69271 0.216248,-5.69798 2.112839,-8.11972 1.896489,-2.42162 4.640104,-3.87245 7.385138,-4.00445 2.756428,-0.13255 5.131877,1.05442 6.79302,2.98945 z m 16.372261,-9.64206 c 1.961152,4.9211 -0.25942,10.31514 -3.80624,12.37077 -2.549472,1.47759 -6.009903,1.47607 -9.214488,-0.13943 -1.254535,-0.63715 -2.419761,-1.50387 -3.351533,-2.58928 -0.933442,-1.08734 -1.610829,-2.37007 -1.915859,-3.79736 -0.785797,-3.69301 1.138601,-7.73031 4.923543,-9.93179 2.566229,-1.49262 5.507177,-1.82843 8.037716,-0.99827 2.535418,0.83177 4.385668,2.72362 5.326861,5.08536 z m 18.548659,-5.21819 c 1.015965,5.2342 -2.307345,10.27633 -6.852452,11.49906 -2.232779,0.60066 -4.62242,0.2731 -6.780856,-0.87537 -2.143613,-1.14058 -3.980723,-3.06025 -4.915351,-5.4055 -0.942829,-2.36584 -0.894805,-5.00561 0.34245,-7.390324 1.232321,-2.375205 3.507084,-4.199912 6.219843,-4.96203 5.77071,-1.621213 10.978448,1.94143 11.986366,7.134164 z m 19.007844,-2.956979 c 0.753084,5.280199 -2.961225,10.114579 -8.102964,10.870399 -1.718494,0.25261 -3.456181,0.0195 -5.048057,-0.66267 -2.93806,-1.22264 -5.220863,-3.97432 -5.856823,-7.25075 -0.641059,-3.302699 0.501502,-6.681364 3.160871,-8.874467 1.393766,-1.183018 3.101259,-1.956086 4.904273,-2.229323 5.365476,-0.813109 10.19578,2.909834 10.9427,8.146811 z m 18.889846,-3.357718 c 0.589854,2.476847 0.16171,5.071971 -1.313935,7.239517 -1.470336,2.15976 -3.82484,3.65259 -6.453948,4.11253 -5.497851,0.96179 -10.374546,-2.75387 -11.121963,-7.994329 -0.753634,-5.284055 2.91965,-10.089024 7.873421,-10.922316 4.82137,-0.811021 9.799542,2.454806 11.016425,7.564598 z m 18.097855,-6.37066 c 1.14032,2.297178 1.31055,4.955665 0.2401,7.435123 -1.06763,2.472909 -3.25117,4.451094 -5.9827,5.369564 -0.49896,0.16777 -1.00908,0.29756 -1.52508,0.38831 0,0 0,0 0,0 -5.31233,0.94837 -9.73427,-2.220531 -10.830175,-6.822337 -1.09871,-4.613575 1.275555,-9.287896 4.925915,-11.231375 0,0 0,0 0,0 0.36543,-0.197491 0.74306,-0.366559 1.13129,-0.50627 4.13267,-1.487224 9.68652,0.624559 12.04065,5.366985 z m 15.70431,-10.919918 c 1.76575,1.822332 2.7215,4.277229 2.39153,6.980483 -0.32844,2.690704 -1.91031,5.270065 -4.33923,6.969791 -2.42997,1.700464 -5.35494,2.276117 -7.97609,1.645293 -2.62604,-0.632002 -4.64148,-2.381051 -5.78052,-4.675649 -2.36343,-4.761158 -0.63438,-10.417962 2.84372,-12.775475 1.76648,-1.197345 3.99424,-1.651344 6.35329,-1.336671 2.33886,0.311982 4.75919,1.388099 6.5073,3.192228 z M 143.77859,61.73525 c 2.18563,0.926973 3.94852,2.64208 4.74208,5.069222 0.79072,2.418427 0.50107,5.258156 -0.89208,7.778198 -0.20143,0.356237 -0.42231,0.701676 -0.66116,1.034183 -1.80108,2.50735 -4.45233,4.067286 -7.15211,4.333832 -2.70964,0.26752 -5.13668,-0.772861 -6.89967,-2.59234 -3.63214,-3.748536 -3.79262,-9.5652 -1.64465,-12.744996 0.15228,-0.22543 0.31649,-0.442092 0.49251,-0.649792 1.22635,-1.40375 3.05401,-2.38106 5.22598,-2.82072 2.15396,-0.436016 4.62475,-0.325539 6.7891,0.592413 z m 3.16026,-18.747934 c 2.15421,-0.177447 4.31078,0.385151 6.06246,1.90209 1.74582,1.511857 2.89978,3.834192 3.0933,6.517672 0,0 0,1e-6 0,1e-6 0.0666,0.924923 0.0185,1.863558 -0.14284,2.78589 -0.55214,3.156402 -2.35266,5.774682 -4.75298,7.159646 -2.40874,1.389828 -5.07427,1.377593 -7.4202,0.382635 -2.32743,-0.987119 -4.21338,-2.868694 -5.39247,-4.862457 -1.1902,-2.012561 -1.65277,-4.086026 -1.33543,-5.951611 0.0955,-0.561465 0.26039,-1.107346 0.49354,-1.638735 0,0 0,-10e-7 0,-10e-7 1.24972,-2.825331 5.10338,-5.941653 9.39462,-6.29513 z M 140.3207,25.243805 c 3.14104,-2.361456 7.72347,-2.510826 11.25527,1.274282 0,0 10e-6,0 10e-6,0 0.99723,1.081125 1.79144,2.385723 2.31527,3.810549 1.14498,3.114338 0.86119,6.376313 -0.58641,8.791689 -1.45331,2.424902 -3.82649,3.657807 -6.36599,3.866991 -2.51304,0.207003 -5.07254,-0.578327 -7.04182,-1.71781 -1.99561,-1.154719 -3.38156,-2.644526 -3.9986,-4.315742 -0.29138,-0.789187 -0.42018,-1.627361 -0.39813,-2.523721 0,0 0,-10e-7 0,-10e-7 0.0935,-2.786388 1.75497,-6.881627 4.8204,-9.186237 z M 125.08939,14.005317 c 0.77968,-2.173448 2.33526,-4.001241 4.70721,-4.883333 2.36235,-0.8785225 5.25897,-0.6829309 7.93053,0.7145808 0,2e-7 0,4e-7 0,4e-7 0.52525,0.2757968 1.03061,0.5927248 1.50973,0.9469408 2.69449,1.992031 4.26271,4.921687 4.36449,7.764063 0.10226,2.855797 -1.24516,5.165936 -3.28065,6.696236 -2.00669,1.508636 -4.59952,2.221804 -6.84594,2.348781 -2.28613,0.129222 -4.23319,-0.324424 -5.6482,-1.36945 -0.26088,-0.192665 -0.50554,-0.40572 -0.73504,-0.639643 0,0 0,0 0,0 -1.12399,-1.151971 -1.94456,-2.886898 -2.3592,-4.959497 -0.41141,-2.056453 -0.4143,-4.468397 0.35707,-6.618679 z m -18.90166,-1.0101 c -0.59847,-2.475156 -0.17027,-5.115325 1.72402,-7.2545931 1.88545,-2.1292872 4.9596,-3.3940715 8.3095,-3.2180062 0.30274,0.015912 0.60482,0.043587 0.90525,0.082937 3.16025,0.418956 5.79373,2.0704206 7.24092,4.3224628 1.4535,2.2618854 1.54098,4.7941909 0.72197,7.0772999 -0.80907,2.255369 -2.46008,4.194191 -4.17547,5.530576 -1.73636,1.352717 -3.54276,2.114021 -5.21512,2.165119 -0.16481,0.0046 -0.32932,0.0024 -0.49368,-0.0064 -1.75287,-0.09433 -3.54315,-0.981776 -5.22556,-2.534553 -1.65351,-1.526098 -3.20172,-3.724248 -3.79183,-6.164833 z m -16.342558,9.5515 c -1.860529,-1.739095 -2.952695,-4.179578 -2.545461,-7.008859 0.405284,-2.815732 2.276744,-5.5598382 5.162567,-7.2501857 1.051053,-0.6156461 2.187913,-1.0602774 3.351315,-1.3137976 0,0 10e-7,1e-7 10e-7,1e-7 2.571797,-0.5565437 5.021686,-0.129808 6.888796,1.0410136 1.87329,1.1746906 3.00056,2.9753636 3.48534,4.9803286 0.95887,3.965701 -0.5804,8.44177 -2.46628,10.569949 0,0 0,10e-7 0,10e-7 -0.46435,0.521569 -0.97908,0.950076 -1.55277,1.286518 -1.52321,0.893287 -3.509153,1.13623 -5.768464,0.762786 -2.219178,-0.36681 -4.721631,-1.354005 -6.555044,-3.067754 z"
       style="fill:#1e3888;fill-opacity:1;stroke:#000000;stroke-width:1px;stroke-linecap:butt;stroke-linejoin:miter;stroke-miterlimit:4;stroke-dasharray:0.832, 0.832;stroke-dashoffset:0;stroke-opacity:1" />
    <g
       style="fill:#ccd0e0;fill-opacity:1"
       id="g890-1-9-5-3-2"
       transform="matrix(0.80045985,0,0,0.80045985,7.9653439,51.841662)">
      <path
         style="opacity:1;fill:#ccd0e0;fill-opacity:0.78431373;stroke:#000005;stroke-width:0.1036744;stroke-miterlimit:4;stroke-dasharray:none;stroke-opacity:1"
         d="m 82.456291,238.29797 -41.170916,23.76999 v 47.53997 l 41.170916,-23.77 z"
         id="path4864-5-2-3-9-2-5"
         inkscape:connector-curvature="0" />
      <path
         id="path4873-3-7-6-2-0-4"
         d="M 0.06262036,238.29797 41.233537,262.06796 v 47.53997 l -41.17091664,-23.77 z"
         style="opacity:1;fill:#ccd0e0;fill-opacity:0.78431373;stroke:#000005;stroke-width:0.1036744;stroke-miterlimit:4;stroke-dasharray:none;stroke-opacity:1"
         inkscape:connector-curvature="0" />
      <path
         style="opacity:1;fill:#ccd0e0;fill-opacity:0.78431373;stroke:#000005;stroke-width:0.1036744;stroke-miterlimit:4;stroke-dasharray:none;stroke-opacity:1"
         d="m 41.285375,214.52797 -41.17091764,23.77 41.17091764,23.76999 41.170916,-23.76999 z"
         id="path4845-5-0-0-2-6-7"
         inkscape:connector-curvature="0" />
    </g>
    <g
       style="fill:#ccd0e0;fill-opacity:0.01960784;stroke:#000005;stroke-width:0.41598952;stroke-miterlimit:4;stroke-dasharray:3.32791622, 3.32791622;stroke-dashoffset:0;stroke-opacity:1"
       id="g890-1-1-5-4"
       transform="matrix(0.58198976,0,0,0.58198976,295.82219,225.89816)">
      <path
         style="opacity:1;fill:#ccd0e0;fill-opacity:0.01960784;stroke:#000005;stroke-width:0.41598952;stroke-miterlimit:4;stroke-dasharray:3.32791622, 3.32791622;stroke-dashoffset:0;stroke-opacity:1"
         d="m 82.456291,238.29797 -41.170916,23.76999 v 47.53997 l 41.170916,-23.77 z"
         id="path4864-5-2-9-5-3"
         inkscape:connector-curvature="0" />
      <path
         id="path4873-3-7-4-4-0"
         d="M 0.06262036,238.29797 41.233537,262.06796 v 47.53997 l -41.17091664,-23.77 z"
         style="opacity:1;fill:#ccd0e0;fill-opacity:0.01960784;stroke:#000005;stroke-width:0.41598952;stroke-miterlimit:4;stroke-dasharray:3.32791622, 3.32791622;stroke-dashoffset:0;stroke-opacity:1"
         inkscape:connector-curvature="0" />
      <path
         style="opacity:1;fill:#ccd0e0;fill-opacity:0.01960784;stroke:#000005;stroke-width:0.41598952;stroke-miterlimit:4;stroke-dasharray:3.32791622, 3.32791622;stroke-dashoffset:0;stroke-opacity:1"
         d="m 41.285375,214.52797 -41.17091764,23.77 41.17091764,23.76999 41.170916,-23.76999 z"
         id="path4845-5-0-78-7-7"
         inkscape:connector-curvature="0" />
    </g>
    <g
       style="fill:#ccd0e0;fill-opacity:0.01960784;stroke:#000005;stroke-width:0.41598952;stroke-miterlimit:4;stroke-dasharray:3.32791622, 3.32791622;stroke-dashoffset:0;stroke-opacity:1"
       id="g890-1-9-4-6-8"
       transform="matrix(0.58198976,0,0,0.58198976,295.82219,170.56259)">
      <path
         style="opacity:1;fill:#ccd0e0;fill-opacity:0.01960784;stroke:#000005;stroke-width:0.41598952;stroke-miterlimit:4;stroke-dasharray:3.32791622, 3.32791622;stroke-dashoffset:0;stroke-opacity:1"
         d="m 82.456291,238.29797 -41.170916,23.76999 v 47.53997 l 41.170916,-23.77 z"
         id="path4864-5-2-3-5-5-6"
         inkscape:connector-curvature="0" />
      <path
         id="path4873-3-7-6-0-6-8"
         d="M 0.06262036,238.29797 41.233537,262.06796 v 47.53997 l -41.17091664,-23.77 z"
         style="opacity:1;fill:#ccd0e0;fill-opacity:0.01960784;stroke:#000005;stroke-width:0.41598952;stroke-miterlimit:4;stroke-dasharray:3.32791622, 3.32791622;stroke-dashoffset:0;stroke-opacity:1"
         inkscape:connector-curvature="0" />
      <path
         style="opacity:1;fill:#ccd0e0;fill-opacity:0.01960784;stroke:#000005;stroke-width:0.41598952;stroke-miterlimit:4;stroke-dasharray:3.32791622, 3.32791622;stroke-dashoffset:0;stroke-opacity:1"
         d="m 41.285375,214.52797 -41.17091764,23.77 41.17091764,23.76999 41.170916,-23.76999 z"
         id="path4845-5-0-0-3-9-8"
         inkscape:connector-curvature="0" />
    </g>
    <g
       style="fill:#ccd0e0;fill-opacity:0.01960784;stroke:#000005;stroke-width:0.41598952;stroke-miterlimit:4;stroke-dasharray:3.32791622, 3.32791622;stroke-dashoffset:0;stroke-opacity:1"
       id="g890-1-0-6-3-4"
       transform="matrix(0.58198976,0,0,0.58198976,343.74428,253.56593)">
      <path
         style="opacity:1;fill:#ccd0e0;fill-opacity:0.01960784;stroke:#000005;stroke-width:0.41598952;stroke-miterlimit:4;stroke-dasharray:3.32791622, 3.32791622;stroke-dashoffset:0;stroke-opacity:1"
         d="m 82.456291,238.29797 -41.170916,23.76999 v 47.53997 l 41.170916,-23.77 z"
         id="path4864-5-2-2-1-7-3"
         inkscape:connector-curvature="0" />
      <path
         id="path4873-3-7-3-0-4-1"
         d="M 0.06262036,238.29797 41.233537,262.06796 v 47.53997 l -41.17091664,-23.77 z"
         style="opacity:1;fill:#ccd0e0;fill-opacity:0.01960784;stroke:#000005;stroke-width:0.41598952;stroke-miterlimit:4;stroke-dasharray:3.32791622, 3.32791622;stroke-dashoffset:0;stroke-opacity:1"
         inkscape:connector-curvature="0" />
      <path
         style="opacity:1;fill:#ccd0e0;fill-opacity:0.01960784;stroke:#000005;stroke-width:0.41598952;stroke-miterlimit:4;stroke-dasharray:3.32791622, 3.32791622;stroke-dashoffset:0;stroke-opacity:1"
         d="m 41.285375,214.52797 -41.17091764,23.77 41.17091764,23.76999 41.170916,-23.76999 z"
         id="path4845-5-0-7-6-5-4"
         inkscape:connector-curvature="0" />
    </g>
    <g
       style="fill:#ccd0e0;fill-opacity:0.01960784;stroke:#000005;stroke-width:0.41598952;stroke-miterlimit:4;stroke-dasharray:3.32791622, 3.32791622;stroke-dashoffset:0;stroke-opacity:1"
       id="g890-1-9-5-3-2-9"
       transform="matrix(0.58198976,0,0,0.58198976,343.74428,198.23037)">
      <path
         style="opacity:1;fill:#ccd0e0;fill-opacity:0.01960784;stroke:#000005;stroke-width:0.41598952;stroke-miterlimit:4;stroke-dasharray:3.32791622, 3.32791622;stroke-dashoffset:0;stroke-opacity:1"
         d="m 82.456291,238.29797 -41.170916,23.76999 v 47.53997 l 41.170916,-23.77 z"
         id="path4864-5-2-3-9-2-5-2"
         inkscape:connector-curvature="0" />
      <path
         id="path4873-3-7-6-2-0-4-0"
         d="M 0.06262036,238.29797 41.233537,262.06796 v 47.53997 l -41.17091664,-23.77 z"
         style="opacity:1;fill:#ccd0e0;fill-opacity:0.01960784;stroke:#000005;stroke-width:0.41598952;stroke-miterlimit:4;stroke-dasharray:3.32791622, 3.32791622;stroke-dashoffset:0;stroke-opacity:1"
         inkscape:connector-curvature="0" />
      <path
         style="opacity:1;fill:#ccd0e0;fill-opacity:0.01960784;stroke:#000005;stroke-width:0.41598952;stroke-miterlimit:4;stroke-dasharray:3.32791622, 3.32791622;stroke-dashoffset:0;stroke-opacity:1"
         d="m 41.285375,214.52797 -41.17091764,23.77 41.17091764,23.76999 41.170916,-23.76999 z"
         id="path4845-5-0-0-2-6-7-6"
         inkscape:connector-curvature="0" />
    </g>
    <g
       style="fill:#ccd0e0;fill-opacity:0.01960784;stroke:#000005;stroke-width:0.41598952;stroke-miterlimit:4;stroke-dasharray:3.32791622, 3.32791622;stroke-dashoffset:0;stroke-opacity:1"
       id="g890-1-1-8"
       transform="matrix(0.58198976,0,0,0.58198976,247.93266,253.5646)">
      <path
         style="opacity:1;fill:#ccd0e0;fill-opacity:0.01960784;stroke:#000005;stroke-width:0.41598952;stroke-miterlimit:4;stroke-dasharray:3.32791622, 3.32791622;stroke-dashoffset:0;stroke-opacity:1"
         d="m 82.456291,238.29797 -41.170916,23.76999 v 47.53997 l 41.170916,-23.77 z"
         id="path4864-5-2-9-9"
         inkscape:connector-curvature="0" />
      <path
         id="path4873-3-7-4-2"
         d="M 0.06262036,238.29797 41.233537,262.06796 v 47.53997 l -41.17091664,-23.77 z"
         style="opacity:1;fill:#ccd0e0;fill-opacity:0.01960784;stroke:#000005;stroke-width:0.41598952;stroke-miterlimit:4;stroke-dasharray:3.32791622, 3.32791622;stroke-dashoffset:0;stroke-opacity:1"
         inkscape:connector-curvature="0" />
      <path
         style="opacity:1;fill:#ccd0e0;fill-opacity:0.01960784;stroke:#000005;stroke-width:0.41598952;stroke-miterlimit:4;stroke-dasharray:3.32791622, 3.32791622;stroke-dashoffset:0;stroke-opacity:1"
         d="m 41.285375,214.52797 -41.17091764,23.77 41.17091764,23.76999 41.170916,-23.76999 z"
         id="path4845-5-0-78-6"
         inkscape:connector-curvature="0" />
    </g>
    <g
       style="fill:#ccd0e0;fill-opacity:0.01960784;stroke:#000005;stroke-width:0.41598952;stroke-miterlimit:4;stroke-dasharray:3.32791622, 3.32791622;stroke-dashoffset:0;stroke-opacity:1"
       id="g890-1-9-4-64"
       transform="matrix(0.58198976,0,0,0.58198976,247.93266,198.22904)">
      <path
         style="opacity:1;fill:#ccd0e0;fill-opacity:0.01960784;stroke:#000005;stroke-width:0.41598952;stroke-miterlimit:4;stroke-dasharray:3.32791622, 3.32791622;stroke-dashoffset:0;stroke-opacity:1"
         d="m 82.456291,238.29797 -41.170916,23.76999 v 47.53997 l 41.170916,-23.77 z"
         id="path4864-5-2-3-5-9"
         inkscape:connector-curvature="0" />
      <path
         id="path4873-3-7-6-0-5"
         d="M 0.06262036,238.29797 41.233537,262.06796 v 47.53997 l -41.17091664,-23.77 z"
         style="opacity:1;fill:#ccd0e0;fill-opacity:0.01960784;stroke:#000005;stroke-width:0.41598952;stroke-miterlimit:4;stroke-dasharray:3.32791622, 3.32791622;stroke-dashoffset:0;stroke-opacity:1"
         inkscape:connector-curvature="0" />
      <path
         style="opacity:1;fill:#ccd0e0;fill-opacity:0.01960784;stroke:#000005;stroke-width:0.41598952;stroke-miterlimit:4;stroke-dasharray:3.32791622, 3.32791622;stroke-dashoffset:0;stroke-opacity:1"
         d="m 41.285375,214.52797 -41.17091764,23.77 41.17091764,23.76999 41.170916,-23.76999 z"
         id="path4845-5-0-0-3-0"
         inkscape:connector-curvature="0" />
    </g>
    <g
       style="fill:#ccd0e0;fill-opacity:0.01960784;stroke:#000005;stroke-width:0.41598952;stroke-miterlimit:4;stroke-dasharray:3.32791622, 3.32791622;stroke-dashoffset:0;stroke-opacity:1"
       id="g890-1-0-6-4"
       transform="matrix(0.58198976,0,0,0.58198976,295.85476,281.23237)">
      <path
         style="opacity:1;fill:#ccd0e0;fill-opacity:0.01960784;stroke:#000005;stroke-width:0.41598952;stroke-miterlimit:4;stroke-dasharray:3.32791622, 3.32791622;stroke-dashoffset:0;stroke-opacity:1"
         d="m 82.456291,238.29797 -41.170916,23.76999 v 47.53997 l 41.170916,-23.77 z"
         id="path4864-5-2-2-1-8"
         inkscape:connector-curvature="0" />
      <path
         id="path4873-3-7-3-0-7"
         d="M 0.06262036,238.29797 41.233537,262.06796 v 47.53997 l -41.17091664,-23.77 z"
         style="opacity:1;fill:#ccd0e0;fill-opacity:0.01960784;stroke:#000005;stroke-width:0.41598952;stroke-miterlimit:4;stroke-dasharray:3.32791622, 3.32791622;stroke-dashoffset:0;stroke-opacity:1"
         inkscape:connector-curvature="0" />
      <path
         style="opacity:1;fill:#ccd0e0;fill-opacity:0.01960784;stroke:#000005;stroke-width:0.41598952;stroke-miterlimit:4;stroke-dasharray:3.32791622, 3.32791622;stroke-dashoffset:0;stroke-opacity:1"
         d="m 41.285375,214.52797 -41.17091764,23.77 41.17091764,23.76999 41.170916,-23.76999 z"
         id="path4845-5-0-7-6-1"
         inkscape:connector-curvature="0" />
    </g>
    <g
       style="fill:#ccd0e0;fill-opacity:0.01960784;stroke:#000005;stroke-width:0.41598952;stroke-miterlimit:4;stroke-dasharray:3.32791622, 3.32791622;stroke-dashoffset:0;stroke-opacity:1"
       id="g890-1-9-5-3-7"
       transform="matrix(0.58198976,0,0,0.58198976,295.85476,225.89681)">
      <path
         style="opacity:1;fill:#ccd0e0;fill-opacity:0.01960784;stroke:#000005;stroke-width:0.41598952;stroke-miterlimit:4;stroke-dasharray:3.32791622, 3.32791622;stroke-dashoffset:0;stroke-opacity:1"
         d="m 82.456291,238.29797 -41.170916,23.76999 v 47.53997 l 41.170916,-23.77 z"
         id="path4864-5-2-3-9-2-2"
         inkscape:connector-curvature="0" />
      <path
         id="path4873-3-7-6-2-0-7"
         d="M 0.06262036,238.29797 41.233537,262.06796 v 47.53997 l -41.17091664,-23.77 z"
         style="opacity:1;fill:#ccd0e0;fill-opacity:0.01960784;stroke:#000005;stroke-width:0.41598952;stroke-miterlimit:4;stroke-dasharray:3.32791622, 3.32791622;stroke-dashoffset:0;stroke-opacity:1"
         inkscape:connector-curvature="0" />
      <path
         style="opacity:1;fill:#ccd0e0;fill-opacity:0.01960784;stroke:#000005;stroke-width:0.41598952;stroke-miterlimit:4;stroke-dasharray:3.32791622, 3.32791622;stroke-dashoffset:0;stroke-opacity:1"
         d="m 41.285375,214.52797 -41.17091764,23.77 41.17091764,23.76999 41.170916,-23.76999 z"
         id="path4845-5-0-0-2-6-2"
         inkscape:connector-curvature="0" />
    </g>
    <g
       style="fill:#ccd0e0;fill-opacity:0.01960784;stroke:#000005;stroke-width:0.41598952;stroke-miterlimit:4;stroke-dasharray:3.32791622, 3.32791622;stroke-dashoffset:0;stroke-opacity:1"
       id="g890-1-1-5-4-9"
       transform="matrix(0.80045985,0,0,0.80045985,7.7512309,51.845306)">
      <path
         style="opacity:1;fill:#ccd0e0;fill-opacity:0.01960784;stroke:#000005;stroke-width:0.41598952;stroke-miterlimit:4;stroke-dasharray:3.32791622, 3.32791622;stroke-dashoffset:0;stroke-opacity:1"
         d="m 82.456291,238.29797 -41.170916,23.76999 v 47.53997 l 41.170916,-23.77 z"
         id="path4864-5-2-9-5-3-1"
         inkscape:connector-curvature="0" />
      <path
         id="path4873-3-7-4-4-0-04"
         d="M 0.06262036,238.29797 41.233537,262.06796 v 47.53997 l -41.17091664,-23.77 z"
         style="opacity:1;fill:#ccd0e0;fill-opacity:0.01960784;stroke:#000005;stroke-width:0.41598952;stroke-miterlimit:4;stroke-dasharray:3.32791622, 3.32791622;stroke-dashoffset:0;stroke-opacity:1"
         inkscape:connector-curvature="0" />
      <path
         style="opacity:1;fill:#ccd0e0;fill-opacity:0.01960784;stroke:#000005;stroke-width:0.41598952;stroke-miterlimit:4;stroke-dasharray:3.32791622, 3.32791622;stroke-dashoffset:0;stroke-opacity:1"
         d="m 41.285375,214.52797 -41.17091764,23.77 41.17091764,23.76999 41.170916,-23.76999 z"
         id="path4845-5-0-78-7-7-2"
         inkscape:connector-curvature="0" />
    </g>
    <g
       style="fill:#ccd0e0;fill-opacity:0.01960784;stroke:#000005;stroke-width:1.19996977;stroke-miterlimit:4;stroke-dasharray:none;stroke-dashoffset:0;stroke-opacity:1"
       id="g890-1-9-5-3-7-3"
       transform="matrix(0.80045985,0,0,0.80045985,7.7960229,51.843469)">
      <path
         style="opacity:1;fill:#ccd0e0;fill-opacity:0.01960784;stroke:#000005;stroke-width:1.19996977;stroke-miterlimit:4;stroke-dasharray:none;stroke-dashoffset:0;stroke-opacity:1"
         d="m 82.456291,238.29797 -41.170916,23.76999 v 47.53997 l 41.170916,-23.77 z"
         id="path4864-5-2-3-9-2-2-4"
         inkscape:connector-curvature="0" />
      <path
         id="path4873-3-7-6-2-0-7-22"
         d="M 0.06262036,238.29797 41.233537,262.06796 v 47.53997 l -41.17091664,-23.77 z"
         style="opacity:1;fill:#ccd0e0;fill-opacity:0.01960784;stroke:#000005;stroke-width:1.19996977;stroke-miterlimit:4;stroke-dasharray:none;stroke-dashoffset:0;stroke-opacity:1"
         inkscape:connector-curvature="0" />
      <path
         style="opacity:1;fill:#ccd0e0;fill-opacity:0.01960784;stroke:#000005;stroke-width:1.19996977;stroke-miterlimit:4;stroke-dasharray:none;stroke-dashoffset:0;stroke-opacity:1"
         d="m 41.285375,214.52797 -41.17091764,23.77 41.17091764,23.76999 41.170916,-23.76999 z"
         id="path4845-5-0-0-2-6-2-4"
         inkscape:connector-curvature="0" />
    </g>
    <path
       style="opacity:1;fill:#ccd0e0;fill-opacity:0.01960784;stroke:#000005;stroke-width:0.24134368;stroke-miterlimit:4;stroke-dasharray:none;stroke-opacity:1"
       d="m 464.8713,130.98707 -95.84181,55.33418 V 296.98958 L 464.8713,241.6554 Z"
       id="path4864-5-6"
       inkscape:connector-curvature="0" />
    <path
       id="path4873-3-2"
       d="m 273.06703,130.98707 95.84179,55.33418 V 296.98958 L 273.06703,241.6554 Z"
       style="opacity:1;fill:#ccd0e0;fill-opacity:0.01960784;stroke:#000005;stroke-width:0.24134368;stroke-miterlimit:4;stroke-dasharray:none;stroke-opacity:1"
       inkscape:connector-curvature="0" />
    <path
       style="opacity:1;fill:#ccd0e0;fill-opacity:0.01960784;stroke:#000005;stroke-width:0.24134368;stroke-miterlimit:4;stroke-dasharray:none;stroke-opacity:1"
       d="m 369.02949,75.652882 -95.8418,55.334188 95.8418,55.33418 95.84181,-55.33418 z"
       id="path4845-5-9"
       inkscape:connector-curvature="0" />
    <text
       xml:space="preserve"
       style="font-style:normal;font-weight:normal;font-size:65%;line-height:1.25;font-family:sans-serif;letter-spacing:0px;word-spacing:0px;baseline-shift:sub;fill:#000000;fill-opacity:1;stroke:none;stroke-width:0.264583"
       x="44.968025"
       y="273.84161"
       id="text2725"><tspan
         sodipodi:role="line"
         id="tspan2723"
         x="44.968025"
         y="273.84161"
         style="font-style:normal;font-variant:normal;font-weight:normal;font-stretch:normal;font-size:7.05556px;font-family:'Time Roman';-inkscape-font-specification:'Time Roman, Normal';font-variant-ligatures:normal;font-variant-caps:normal;font-variant-numeric:normal;font-feature-settings:normal;text-align:start;writing-mode:lr-tb;baseline-shift:baseline;text-anchor:start;stroke-width:0.264583">r<tspan
   style="font-size:65%;baseline-shift:sub"
   id="tspan6328">cell</tspan> ≥ r<tspan
   style="font-size:65%;baseline-shift:sub"
   id="tspan6330">c</tspan></tspan></text>
    <path
       style="fill:none;stroke:#000000;stroke-width:0.30000001;stroke-linecap:butt;stroke-linejoin:miter;stroke-miterlimit:4;stroke-dasharray:none;stroke-opacity:1;marker-start:url(#marker5906);marker-end:url(#marker5988)"
       d="M 41.810106,301.51017 73.928874,282.9664"
       id="path819-3"
       inkscape:connector-curvature="0" />
    <path
       style="fill:none;stroke:#000000;stroke-width:0.3;stroke-linecap:butt;stroke-linejoin:miter;stroke-miterlimit:4;stroke-dasharray:none;stroke-opacity:1;marker-start:url(#Arrow1Lstart);marker-end:url(#Arrow1Lend)"
       d="m 42.94065,262.29548 8e-6,35.09685"
       id="path819-2"
       inkscape:connector-curvature="0" />
    <path
       style="fill:none;stroke:#000000;stroke-width:0.30000001;stroke-linecap:butt;stroke-linejoin:miter;stroke-miterlimit:4;stroke-dasharray:none;stroke-opacity:1;marker-start:url(#marker5906-3);marker-end:url(#marker5988-29)"
       d="M 7.8204249,282.95363 39.939186,301.49742"
       id="path819-3-2"
       inkscape:connector-curvature="0" />
    <text
       xml:space="preserve"
       style="font-style:normal;font-weight:normal;font-size:10.5833px;line-height:1.25;font-family:sans-serif;letter-spacing:0px;word-spacing:0px;fill:#000000;fill-opacity:1;stroke:none;stroke-width:0.264583"
       x="61.645714"
       y="273.38437"
       id="text6302"><tspan
         sodipodi:role="line"
         id="tspan6300"
         x="61.645714"
         y="273.38437"
         style="stroke-width:0.264583"> </tspan></text>
  </g>
</svg>
