<?xml version="1.0" encoding="UTF-8" standalone="no"?>
<!-- Created with Inkscape (http://www.inkscape.org/) -->

<svg
   xmlns:dc="http://purl.org/dc/elements/1.1/"
   xmlns:cc="http://creativecommons.org/ns#"
   xmlns:rdf="http://www.w3.org/1999/02/22-rdf-syntax-ns#"
   xmlns:svg="http://www.w3.org/2000/svg"
   xmlns="http://www.w3.org/2000/svg"
   xmlns:sodipodi="http://sodipodi.sourceforge.net/DTD/sodipodi-0.dtd"
   xmlns:inkscape="http://www.inkscape.org/namespaces/inkscape"
   width="0.5in"
   height="0.5in"
   viewBox="0 0 45.000002 45.000003"
   id="svg2"
   version="1.1"
   inkscape:version="0.92.5 (2060ec1f9f, 2020-04-08)"
   sodipodi:docname="trans_chains.svg">
  <defs
     id="defs4">
    <marker
       inkscape:stockid="Arrow1Mend"
       orient="auto"
       refY="0"
       refX="0"
       id="marker14894"
       style="overflow:visible"
       inkscape:isstock="true">
      <path
         id="path14896"
         d="M 0,0 5,-5 -12.5,0 5,5 Z"
         style="fill:#000000;fill-opacity:1;fill-rule:evenodd;stroke:#000000;stroke-width:1.00000003pt;stroke-opacity:1"
         transform="matrix(-0.4,0,0,-0.4,-4,0)"
         inkscape:connector-curvature="0" />
    </marker>
    <marker
       inkscape:isstock="true"
       style="overflow:visible"
       id="marker13676"
       refX="0"
       refY="0"
       orient="auto"
       inkscape:stockid="Arrow1Mend">
      <path
         transform="matrix(-0.4,0,0,-0.4,-4,0)"
         style="fill:#000000;fill-opacity:1;fill-rule:evenodd;stroke:#000000;stroke-width:1.00000003pt;stroke-opacity:1"
         d="M 0,0 5,-5 -12.5,0 5,5 Z"
         id="path13678"
         inkscape:connector-curvature="0" />
    </marker>
    <marker
       inkscape:isstock="true"
       style="overflow:visible"
       id="marker12113"
       refX="0"
       refY="0"
       orient="auto"
       inkscape:stockid="Arrow2Lend">
      <path
         transform="matrix(-1.1,0,0,-1.1,-1.1,0)"
         d="M 8.7185878,4.0337352 -2.2072895,0.01601326 8.7185884,-4.0017078 c -1.7454984,2.3720609 -1.7354408,5.6174519 -6e-7,8.035443 z"
         style="fill:#000000;fill-opacity:1;fill-rule:evenodd;stroke:#000000;stroke-width:0.625;stroke-linejoin:round;stroke-opacity:1"
         id="path12115"
         inkscape:connector-curvature="0" />
    </marker>
    <marker
       inkscape:isstock="true"
       style="overflow:visible"
       id="marker11851"
       refX="0"
       refY="0"
       orient="auto"
       inkscape:stockid="Arrow2Lend">
      <path
         transform="matrix(-1.1,0,0,-1.1,-1.1,0)"
         d="M 8.7185878,4.0337352 -2.2072895,0.01601326 8.7185884,-4.0017078 c -1.7454984,2.3720609 -1.7354408,5.6174519 -6e-7,8.035443 z"
         style="fill:#000000;fill-opacity:1;fill-rule:evenodd;stroke:#000000;stroke-width:0.625;stroke-linejoin:round;stroke-opacity:1"
         id="path11853"
         inkscape:connector-curvature="0" />
    </marker>
    <marker
       inkscape:isstock="true"
       style="overflow:visible"
       id="marker11691"
       refX="0"
       refY="0"
       orient="auto"
       inkscape:stockid="DotM">
      <path
         inkscape:connector-curvature="0"
         transform="matrix(0.4,0,0,0.4,2.96,0.4)"
         style="fill:#000000;fill-opacity:1;fill-rule:evenodd;stroke:#000000;stroke-width:1.00000003pt;stroke-opacity:1"
         d="m -2.5,-1 c 0,2.76 -2.24,5 -5,5 -2.76,0 -5,-2.24 -5,-5 0,-2.76 2.24,-5 5,-5 2.76,0 5,2.24 5,5 z"
         id="path11693" />
    </marker>
    <marker
       inkscape:isstock="true"
       style="overflow:visible"
       id="marker11585"
       refX="0"
       refY="0"
       orient="auto"
       inkscape:stockid="DotM">
      <path
         inkscape:connector-curvature="0"
         transform="matrix(0.4,0,0,0.4,2.96,0.4)"
         style="fill:#000000;fill-opacity:1;fill-rule:evenodd;stroke:#000000;stroke-width:1.00000003pt;stroke-opacity:1"
         d="m -2.5,-1 c 0,2.76 -2.24,5 -5,5 -2.76,0 -5,-2.24 -5,-5 0,-2.76 2.24,-5 5,-5 2.76,0 5,2.24 5,5 z"
         id="path11587" />
    </marker>
    <marker
       inkscape:isstock="true"
       style="overflow:visible"
       id="marker11369"
       refX="0"
       refY="0"
       orient="auto"
       inkscape:stockid="Arrow2Lend">
      <path
         transform="matrix(-1.1,0,0,-1.1,-1.1,0)"
         d="M 8.7185878,4.0337352 -2.2072895,0.01601326 8.7185884,-4.0017078 c -1.7454984,2.3720609 -1.7354408,5.6174519 -6e-7,8.035443 z"
         style="fill:#000000;fill-opacity:1;fill-rule:evenodd;stroke:#000000;stroke-width:0.625;stroke-linejoin:round;stroke-opacity:1"
         id="path11371"
         inkscape:connector-curvature="0" />
    </marker>
    <marker
       inkscape:stockid="DotM"
       orient="auto"
       refY="0"
       refX="0"
       id="marker7713"
       style="overflow:visible"
       inkscape:isstock="true">
      <path
         id="path7715"
         d="m -2.5,-1 c 0,2.76 -2.24,5 -5,5 -2.76,0 -5,-2.24 -5,-5 0,-2.76 2.24,-5 5,-5 2.76,0 5,2.24 5,5 z"
         style="fill:#000000;fill-opacity:1;fill-rule:evenodd;stroke:#000000;stroke-width:1.00000003pt;stroke-opacity:1"
         transform="matrix(0.4,0,0,0.4,2.96,0.4)"
         inkscape:connector-curvature="0" />
    </marker>
    <marker
       inkscape:stockid="DotM"
       orient="auto"
       refY="0"
       refX="0"
       id="marker7631"
       style="overflow:visible"
       inkscape:isstock="true">
      <path
         id="path7633"
         d="m -2.5,-1 c 0,2.76 -2.24,5 -5,5 -2.76,0 -5,-2.24 -5,-5 0,-2.76 2.24,-5 5,-5 2.76,0 5,2.24 5,5 z"
         style="fill:#000000;fill-opacity:1;fill-rule:evenodd;stroke:#000000;stroke-width:1.00000003pt;stroke-opacity:1"
         transform="matrix(0.4,0,0,0.4,2.96,0.4)"
         inkscape:connector-curvature="0" />
    </marker>
    <marker
       inkscape:stockid="DotM"
       orient="auto"
       refY="0"
       refX="0"
       id="DotM"
       style="overflow:visible"
       inkscape:isstock="true">
      <path
         id="path4479"
         d="m -2.5,-1 c 0,2.76 -2.24,5 -5,5 -2.76,0 -5,-2.24 -5,-5 0,-2.76 2.24,-5 5,-5 2.76,0 5,2.24 5,5 z"
         style="fill:#000000;fill-opacity:1;fill-rule:evenodd;stroke:#000000;stroke-width:1.00000003pt;stroke-opacity:1"
         transform="matrix(0.4,0,0,0.4,2.96,0.4)"
         inkscape:connector-curvature="0" />
    </marker>
    <marker
       inkscape:stockid="Arrow2Lend"
       orient="auto"
       refY="0"
       refX="0"
       id="marker4425"
       style="overflow:visible"
       inkscape:isstock="true">
      <path
         inkscape:connector-curvature="0"
         id="path4427"
         style="fill:#000000;fill-opacity:1;fill-rule:evenodd;stroke:#000000;stroke-width:0.625;stroke-linejoin:round;stroke-opacity:1"
         d="M 8.7185878,4.0337352 -2.2072895,0.01601326 8.7185884,-4.0017078 c -1.7454984,2.3720609 -1.7354408,5.6174519 -6e-7,8.035443 z"
         transform="matrix(-1.1,0,0,-1.1,-1.1,0)" />
    </marker>
    <marker
       inkscape:isstock="true"
       style="overflow:visible"
       id="marker5339"
       refX="0"
       refY="0"
       orient="auto"
       inkscape:stockid="Arrow2Lend">
      <path
         transform="matrix(-1.1,0,0,-1.1,-1.1,0)"
         d="M 8.7185878,4.0337352 -2.2072895,0.01601326 8.7185884,-4.0017078 c -1.7454984,2.3720609 -1.7354408,5.6174519 -6e-7,8.035443 z"
         style="fill:#000000;fill-opacity:1;fill-rule:evenodd;stroke:#000000;stroke-width:0.625;stroke-linejoin:round;stroke-opacity:1"
         id="path5341"
         inkscape:connector-curvature="0" />
    </marker>
    <marker
       inkscape:stockid="Arrow1Mend"
       orient="auto"
       refY="0"
       refX="0"
       id="Arrow1Mend"
       style="overflow:visible"
       inkscape:isstock="true">
      <path
         id="path4153"
         d="M 0,0 5,-5 -12.5,0 5,5 Z"
         style="fill:#000000;fill-opacity:1;fill-rule:evenodd;stroke:#000000;stroke-width:1.00000003pt;stroke-opacity:1"
         transform="matrix(-0.4,0,0,-0.4,-4,0)"
         inkscape:connector-curvature="0" />
    </marker>
  </defs>
  <sodipodi:namedview
     id="base"
     pagecolor="#ffffff"
     bordercolor="#666666"
     borderopacity="1.0"
     inkscape:pageopacity="0.0"
     inkscape:pageshadow="2"
     inkscape:zoom="7.919596"
     inkscape:cx="24.397581"
     inkscape:cy="29.793325"
     inkscape:document-units="px"
     inkscape:current-layer="layer1"
     showgrid="false"
     units="in"
     showborder="true"
     inkscape:showpageshadow="false"
     borderlayer="false"
     inkscape:snap-bbox="false"
     inkscape:object-paths="true"
     inkscape:object-nodes="true"
     inkscape:snap-global="true"
     inkscape:window-width="764"
     inkscape:window-height="836"
     inkscape:window-x="836"
     inkscape:window-y="27"
     inkscape:window-maximized="0"
     fit-margin-top="0"
     fit-margin-left="0"
     fit-margin-right="0"
     fit-margin-bottom="0"
     inkscape:snap-smooth-nodes="true" />
  <metadata
     id="metadata7">
    <rdf:RDF>
      <cc:Work
         rdf:about="">
        <dc:format>image/svg+xml</dc:format>
        <dc:type
           rdf:resource="http://purl.org/dc/dcmitype/StillImage" />
        <dc:title></dc:title>
      </cc:Work>
    </rdf:RDF>
  </metadata>
  <g
     inkscape:label="Layer 1"
     inkscape:groupmode="layer"
     id="layer1"
     transform="translate(83.849416,-1001.6828)">
    <g
       id="g6236"
       transform="matrix(0.65869944,0,0,0.65366252,-373.57848,497.00419)"
       style="stroke:#800080">
      <g
         style="stroke:#800080"
         transform="rotate(90,328.2143,935.01519)"
         id="g6153">
        <path
           sodipodi:nodetypes="cc"
           style="fill:none;fill-rule:evenodd;stroke:#800080;stroke-width:1px;stroke-linecap:butt;stroke-linejoin:miter;stroke-opacity:1"
           d="m 190.71429,764.50498 h 22.85714"
           id="path6155"
           inkscape:connector-curvature="0" />
        <path
           sodipodi:nodetypes="cc"
           inkscape:connector-curvature="0"
           id="path6157"
           d="m 190.71429,773.48455 h 22.85714"
           style="fill:none;fill-rule:evenodd;stroke:#800080;stroke-width:1px;stroke-linecap:butt;stroke-linejoin:miter;stroke-opacity:1" />
        <path
           sodipodi:nodetypes="cc"
           inkscape:connector-curvature="0"
           id="path6159"
           d="m 190.71429,782.46417 h 22.85714"
           style="fill:none;fill-rule:evenodd;stroke:#800080;stroke-width:1px;stroke-linecap:butt;stroke-linejoin:miter;stroke-opacity:1" />
        <path
           sodipodi:nodetypes="cc"
           style="fill:none;fill-rule:evenodd;stroke:#800080;stroke-width:1px;stroke-linecap:butt;stroke-linejoin:miter;stroke-opacity:1"
           d="m 190.71429,791.44374 h 22.85714"
           id="path6161"
           inkscape:connector-curvature="0" />
        <path
           sodipodi:nodetypes="cc"
           inkscape:connector-curvature="0"
           id="path6163"
           d="m 190.71429,800.42334 h 22.85714"
           style="fill:none;fill-rule:evenodd;stroke:#800080;stroke-width:1px;stroke-linecap:butt;stroke-linejoin:miter;stroke-opacity:1" />
        <path
           sodipodi:nodetypes="cc"
           style="fill:none;fill-rule:evenodd;stroke:#800080;stroke-width:1px;stroke-linecap:butt;stroke-linejoin:miter;stroke-opacity:1"
           d="m 190.71429,809.40294 h 22.85714"
           id="path6165"
           inkscape:connector-curvature="0" />
        <path
           sodipodi:nodetypes="cc"
           style="fill:none;fill-rule:evenodd;stroke:#800080;stroke-width:1px;stroke-linecap:butt;stroke-linejoin:miter;stroke-opacity:1"
           d="m 190.71429,818.38252 h 22.85714"
           id="path6167"
           inkscape:connector-curvature="0" />
      </g>
      <path
         sodipodi:nodetypes="caccccacac"
         inkscape:connector-curvature="0"
         id="path6187"
         d="m 444.84698,797.51518 c 0,0 -0.13458,-2.85552 -0.59284,-4.18936 -0.52682,-1.5334 -1.68395,-2.77874 -2.4223,-4.21808 -0.78436,-1.28937 -1.20233,-2.80588 -1.04345,-4.31607 -0.0345,-1.49799 -0.66311,-3.24764 0.42279,-4.53068 1.99128,-1.64328 4.70522,-1.77432 7.16478,-1.97588 2.56123,-0.0518 6.88064,-1.81658 7.6682,0.62401 0.97738,3.02884 -7.60918,4.0796 -7.26882,6.19086 0.34024,3.08529 4.41642,2.16372 5.37109,4.23394 1.14287,2.47834 -0.44612,5.40334 -0.31985,8.18126"
         style="fill:none;fill-rule:evenodd;stroke:#800080;stroke-width:1px;stroke-linecap:butt;stroke-linejoin:miter;stroke-opacity:1" />
      <path
         style="fill:none;fill-rule:evenodd;stroke:#800080;stroke-width:1px;stroke-linecap:butt;stroke-linejoin:miter;stroke-opacity:1"
         d="m 453.82656,820.37232 c 0.0154,2.11428 0.44028,4.57265 2.01309,5.95907 1.21377,1.06994 3.15568,0.7347 4.75734,0.96427 1.07195,0.15365 2.66664,1.19548 3.23706,0.27499 0.64212,-1.0362 -1.69564,-1.92343 -1.89905,-3.12537 -0.23167,-1.36889 0.72731,-2.68008 0.87113,-4.07296"
         id="path6189"
         inkscape:connector-curvature="0"
         sodipodi:nodetypes="caaaac" />
      <path
         sodipodi:nodetypes="caaaacaccc"
         inkscape:connector-curvature="0"
         id="path6191"
         d="m 462.80616,797.51518 c 0.0595,-2.75068 -0.11651,-1.94382 0.26327,-2.8014 0.39906,-0.90112 1.81763,-1.21352 1.99377,-2.18318 0.19899,-1.09549 -1.45813,-2.00903 -1.24115,-3.1011 0.14333,-0.7214 0.86007,-1.30082 1.54073,-1.57951 1.95112,-0.79888 4.2149,0.38904 6.32367,0.13018 1.94989,-0.0862 4.8108,-1.76525 6.03885,-0.1693 0.99932,1.2987 -0.81561,3.15698 -1.39217,4.71479 -0.8721,1.71024 -2.1788,0.92265 -3.75694,2.0458 -0.29203,0.20311 -0.72443,1.27004 -0.79043,2.94372"
         style="fill:none;fill-rule:evenodd;stroke:#800080;stroke-width:1px;stroke-linecap:butt;stroke-linejoin:miter;stroke-opacity:1" />
      <path
         sodipodi:nodetypes="ccccccc"
         inkscape:connector-curvature="0"
         id="path6193"
         d="m 471.78576,820.37232 c -0.0276,3.73201 0.9301,6.85199 0.69122,10.2643 -0.12788,1.73315 0.91346,3.44787 2.62975,3.90287 2.6285,0.90862 5.46175,0.52198 8.17983,0.85734 2.05306,0.636 2.57198,-1.78527 1.46283,-3.07508 -1.10416,-1.51212 -2.60088,-2.79062 -3.23077,-4.61782 -0.94713,-2.32012 -0.7914,-4.88063 -0.75333,-7.33166"
         style="fill:none;fill-rule:evenodd;stroke:#800080;stroke-width:1px;stroke-linecap:butt;stroke-linejoin:miter;stroke-opacity:1" />
      <path
         sodipodi:nodetypes="cccaac"
         inkscape:connector-curvature="0"
         id="path6195"
         d="m 480.76533,797.51518 c -0.14208,-3.52188 -1.18572,-6.84457 -0.26048,-10.27079 1.29462,-2.05719 4.47928,-1.92201 6.42448,-0.98836 2.22773,1.65545 3.41372,1.34521 4.56355,2.68399 0.68955,0.80286 1.23049,1.89137 1.17794,2.94839 -0.10497,2.11131 -2.78064,0.75015 -2.92535,5.62674"
         style="fill:none;fill-rule:evenodd;stroke:#800080;stroke-width:1px;stroke-linecap:butt;stroke-linejoin:miter;stroke-opacity:1" />
      <path
         sodipodi:nodetypes="cccac"
         inkscape:connector-curvature="0"
         id="path6197"
         d="m 489.74495,820.37232 c -0.1537,3.86983 1.31524,7.9077 4.32908,10.42693 2.46002,1.11679 6.07927,0.0242 7.35328,-2.32839 0.42492,-2.03906 0.57701,-2.95635 0.13983,-4.3341 -0.47556,-1.49874 -3.1785,0.7556 -2.84261,-3.76444"
         style="fill:none;fill-rule:evenodd;stroke:#800080;stroke-width:1px;stroke-linecap:butt;stroke-linejoin:miter;stroke-opacity:1" />
      <path
         inkscape:connector-curvature="0"
         id="path6199"
         d="m 498.72452,797.51518 c 0.005,-2.73871 -1.31637,-5.22125 -1.92514,-7.84085 -0.58032,-2.13745 -1.20256,-4.51216 -0.31856,-6.65356 0.88965,-1.65042 2.89777,-1.98359 4.47797,-2.66067 2.11066,-0.77587 4.52203,-1.46714 5.82863,-3.45209 0.83836,-1.34915 1.08604,-2.98163 1.06972,-4.54589"
         style="fill:none;fill-rule:evenodd;stroke:#800080;stroke-width:1px;stroke-linecap:butt;stroke-linejoin:miter;stroke-opacity:1" />
      <path
         sodipodi:nodetypes="ccccc"
         inkscape:connector-curvature="0"
         id="path6201"
         d="m 444.84698,820.37232 c -0.17307,2.95317 1.30104,5.59549 2.90566,8.03221 1.99987,0.7504 1.13438,4.30459 2.48368,4.75238 0.96163,1.16766 0.70249,4.02037 -0.36283,5.44613 -1.75428,1.98979 -4.64929,1.52784 -7.01635,1.61627"
         style="fill:none;fill-rule:evenodd;stroke:#800080;stroke-width:1px;stroke-linecap:butt;stroke-linejoin:miter;stroke-opacity:1" />
    </g>
  </g>
</svg>
