<?xml version="1.0" encoding="UTF-8" standalone="no"?>
<svg
   xmlns:dc="http://purl.org/dc/elements/1.1/"
   xmlns:cc="http://creativecommons.org/ns#"
   xmlns:rdf="http://www.w3.org/1999/02/22-rdf-syntax-ns#"
   xmlns:svg="http://www.w3.org/2000/svg"
   xmlns="http://www.w3.org/2000/svg"
   xmlns:sodipodi="http://sodipodi.sourceforge.net/DTD/sodipodi-0.dtd"
   xmlns:inkscape="http://www.inkscape.org/namespaces/inkscape"
   width="234.8055pt"
   height="139.68259pt"
   viewBox="0 0 234.8055 139.68259"
   version="1.1"
   id="svg770"
   sodipodi:docname="fig-MCFEL_simple.svg"
   inkscape:version="0.92.3 (2405546, 2018-03-11)">
  <metadata
     id="metadata774">
    <rdf:RDF>
      <cc:Work
         rdf:about="">
        <dc:format>image/svg+xml</dc:format>
        <dc:type
           rdf:resource="http://purl.org/dc/dcmitype/StillImage" />
        <dc:title />
      </cc:Work>
    </rdf:RDF>
  </metadata>
  <sodipodi:namedview
     pagecolor="#ffffff"
     bordercolor="#666666"
     borderopacity="1"
     objecttolerance="10"
     gridtolerance="10"
     guidetolerance="10"
     inkscape:pageopacity="0"
     inkscape:pageshadow="2"
     inkscape:window-width="1920"
     inkscape:window-height="971"
     id="namedview772"
     showgrid="false"
     inkscape:zoom="2.3578861"
     inkscape:cx="159.70321"
     inkscape:cy="77.995735"
     inkscape:window-x="0"
     inkscape:window-y="25"
     inkscape:window-maximized="1"
     inkscape:current-layer="svg770"
     fit-margin-top="0"
     fit-margin-left="0"
     fit-margin-right="0"
     fit-margin-bottom="0" />
  <defs
     id="defs17">
    <marker
       inkscape:isstock="true"
       style="overflow:visible"
       id="marker2643"
       refX="0"
       refY="0"
       orient="auto"
       inkscape:stockid="Arrow2Send">
      <path
         transform="matrix(-0.3,0,0,-0.3,0.69,0)"
         d="M 8.7185878,4.0337352 -2.2072895,0.01601326 8.7185884,-4.0017078 c -1.7454984,2.3720609 -1.7354408,5.6174519 -6e-7,8.035443 z"
         style="fill:#5c5c5c;fill-opacity:1;fill-rule:evenodd;stroke:#5c5c5c;stroke-width:0.625;stroke-linejoin:round;stroke-opacity:1"
         id="path2641"
         inkscape:connector-curvature="0" />
    </marker>
    <marker
       inkscape:stockid="Arrow2Send"
       orient="auto"
       refY="0"
       refX="0"
       id="Arrow2Send"
       style="overflow:visible"
       inkscape:isstock="true"
       inkscape:collect="always">
      <path
         id="path2318"
         style="fill:#5c5c5c;fill-opacity:1;fill-rule:evenodd;stroke:#5c5c5c;stroke-width:0.625;stroke-linejoin:round;stroke-opacity:1"
         d="M 8.7185878,4.0337352 -2.2072895,0.01601326 8.7185884,-4.0017078 c -1.7454984,2.3720609 -1.7354408,5.6174519 -6e-7,8.035443 z"
         transform="matrix(-0.3,0,0,-0.3,0.69,0)"
         inkscape:connector-curvature="0" />
    </marker>
    <marker
       inkscape:stockid="Arrow2Mend"
       orient="auto"
       refY="0"
       refX="0"
       id="Arrow2Mend"
       style="overflow:visible"
       inkscape:isstock="true">
      <path
         id="path2312"
         style="fill:#000000;fill-opacity:1;fill-rule:evenodd;stroke:#000000;stroke-width:0.625;stroke-linejoin:round;stroke-opacity:1"
         d="M 8.7185878,4.0337352 -2.2072895,0.01601326 8.7185884,-4.0017078 c -1.7454984,2.3720609 -1.7354408,5.6174519 -6e-7,8.035443 z"
         transform="scale(-0.6)"
         inkscape:connector-curvature="0" />
    </marker>
    <marker
       inkscape:stockid="Arrow1Mend"
       orient="auto"
       refY="0"
       refX="0"
       id="Arrow1Mend"
       style="overflow:visible"
       inkscape:isstock="true">
      <path
         id="path2294"
         d="M 0,0 5,-5 -12.5,0 5,5 Z"
         style="fill:#000000;fill-opacity:1;fill-rule:evenodd;stroke:#000000;stroke-width:1.00000003pt;stroke-opacity:1"
         transform="matrix(-0.4,0,0,-0.4,-4,0)"
         inkscape:connector-curvature="0" />
    </marker>
    <clipPath
       id="clip1">
      <path
         d="M 0,0 H 223.19922 V 396 H 0 Z m 0,0"
         id="path2"
         inkscape:connector-curvature="0" />
    </clipPath>
    <clipPath
       id="clip2">
      <path
         d="M 0,0 H 223.19922 V 166 H 0 Z m 0,0"
         id="path5"
         inkscape:connector-curvature="0" />
    </clipPath>
    <clipPath
       id="clip3">
      <path
         d="M 0,213 H 223.19922 V 396 H 0 Z m 0,0"
         id="path8"
         inkscape:connector-curvature="0" />
    </clipPath>
    <clipPath
       id="clip4">
      <path
         d="m 144,92 h 79.19922 v 59 H 144 Z m 0,0"
         id="path11"
         inkscape:connector-curvature="0" />
    </clipPath>
    <clipPath
       id="clip5">
      <path
         d="m 119,280 h 104.19922 v 58 H 119 Z m 0,0"
         id="path14"
         inkscape:connector-curvature="0" />
    </clipPath>
  </defs>
  <g
     style="clip-rule:nonzero"
     id="g21"
     clip-path="url(#clip1)"
     transform="translate(-10.8411,-10.144403)" />
  <rect
     style="opacity:1;vector-effect:none;fill:#596b85;fill-opacity:0.2;stroke:#596b85;stroke-width:1.5;stroke-linecap:butt;stroke-linejoin:miter;stroke-miterlimit:4;stroke-dasharray:5.99999994, 2.99999997;stroke-dashoffset:0;stroke-opacity:1"
     id="rect2052"
     width="232.79289"
     height="66.41851"
     x="1.2626009"
     y="0.75"
     ry="4.5083604" />
  <path
     style="fill:none;fill-rule:evenodd;stroke:#5c5c5c;stroke-width:1.27499998;stroke-linecap:butt;stroke-linejoin:miter;stroke-miterlimit:4;stroke-dasharray:none;stroke-opacity:1;marker-end:url(#Arrow2Send)"
     d="m 119.37387,19.948818 v 4.621407"
     id="path2283"
     inkscape:connector-curvature="0"
     sodipodi:nodetypes="cc" />
  <g
     id="g3186"
     transform="translate(-10.8411,-10.144403)">
    <g
       transform="translate(-41.52065,1.0252013)"
       id="g2050">
      <path
         inkscape:connector-curvature="0"
         id="path27"
         d="m 67.753906,16.074219 c -0.04297,3.4375 -3.273437,3.816406 -6.964844,3.605469 l -0.710937,3.648437 h -2.179687 l 2.011718,-10.402344 c 3.648438,0 7.882813,-0.503906 7.84375,3.148438 z m -2.222656,0.08203 c 0,-1.804688 -2.015625,-1.511719 -3.777344,-1.511719 L 61.125,18 c 2.097656,0 4.40625,0.296875 4.40625,-1.84375 z m 0,0"
         style="fill:#596b85;fill-opacity:1;fill-rule:nonzero;stroke:none" />
      <path
         inkscape:connector-curvature="0"
         id="path29"
         d="m 74,18.925781 c 0.335938,-0.964843 0.335938,-2.265625 -0.921875,-2.140625 -2.851563,0.292969 -2.265625,4.109375 -3.019531,6.542969 h -2.097656 l 2.097656,-10.945313 h 2.097656 l -0.878906,4.320313 c 0.628906,-0.839844 1.382812,-1.511719 2.765625,-1.511719 3.984375,0 1.425781,5.367188 1.175781,8.136719 h -2.054688 z m 0,0"
         style="fill:#596b85;fill-opacity:1;fill-rule:nonzero;stroke:none" />
      <path
         inkscape:connector-curvature="0"
         id="path31"
         d="m 83.859375,21.148438 c -0.167969,0.710937 0.207031,1.214843 1.003906,0.964843 l -0.125,1.128907 c -1.257812,0.464843 -3.105469,0.04297 -2.808593,-1.425782 -0.628907,0.882813 -1.21875,1.679688 -2.6875,1.679688 -1.382813,0 -2.222657,-0.796875 -2.261719,-2.222656 0,-2.683594 2.640625,-2.808594 5.367187,-2.808594 0.417969,-0.925782 0.125,-2.226563 -1.214844,-1.890625 -0.546874,0.128906 -0.925781,0.421875 -1.050781,1.007812 l -1.929687,-0.210937 c 0.210937,-2.683594 6.542968,-3.226563 6.417968,0 -0.04297,1.386718 -0.460937,2.519531 -0.710937,3.777344 z m -2.894531,-1.511719 c -1.847656,-0.375 -2.683594,2.390625 -0.796875,2.390625 1.300781,0 1.761719,-1.171875 1.96875,-2.390625 z m 0,0"
         style="fill:#596b85;fill-opacity:1;fill-rule:nonzero;stroke:none" />
      <path
         inkscape:connector-curvature="0"
         id="path33"
         d="m 91.324219,17.582031 c -0.04297,-1.214843 -2.9375,-1.46875 -2.980469,-0.08203 0.671875,1.71875 4.320312,0.417969 4.320312,3.355469 0,2.851562 -4.066406,3.144531 -6.039062,2.09375 -0.585938,-0.335938 -0.964844,-0.921875 -1.171875,-1.632813 l 1.84375,-0.253906 c 0.125,1.34375 3.355469,1.511719 3.4375,0.04297 -0.628906,-1.761719 -4.320313,-0.460938 -4.320313,-3.4375 0,-3.230469 6.585938,-3.316407 6.753907,-0.335938 z m 0,0"
         style="fill:#596b85;fill-opacity:1;fill-rule:nonzero;stroke:none" />
      <path
         inkscape:connector-curvature="0"
         id="path35"
         d="m 98.453125,15.191406 c 2.640625,-0.08203 3.648435,2.011719 3.019535,4.613282 H 96.3125 c -0.125,1.175781 0.04297,2.308593 1.300781,2.265624 0.882813,-0.04297 1.34375,-0.546874 1.550781,-1.214843 l 1.847658,0.542969 c -0.62891,1.34375 -1.593751,2.097656 -3.523439,2.097656 -2.097656,0 -3.355469,-1.089844 -3.355469,-3.230469 0,-2.976563 1.382813,-4.988281 4.320313,-5.074219 z m 1.257813,3.230469 C 100.29688,16.449219 97.613281,15.863281 96.902344,17.5 c -0.128906,0.25 -0.253906,0.542969 -0.335938,0.921875 z m 0,0"
         style="fill:#596b85;fill-opacity:1;fill-rule:nonzero;stroke:none" />
      <path
         inkscape:connector-curvature="0"
         id="path37"
         d="m 116.73047,17.371094 c -0.125,3.734375 -2.22266,5.957031 -5.95703,5.957031 h -4.27735 l 2.01172,-10.402344 c 4.40625,-0.207031 8.39063,0.125 8.22266,4.445313 z m -2.05469,0.08594 c 0.043,-2.390625 -1.76172,-3.019531 -4.32031,-2.851562 l -1.34375,7.046875 c 3.52344,0.25 5.66406,-0.925782 5.66406,-4.195313 z m 0,0"
         style="fill:#596b85;fill-opacity:1;fill-rule:nonzero;stroke:none" />
      <path
         inkscape:connector-curvature="0"
         id="path39"
         d="m 119.20313,13.933594 0.29296,-1.550782 h 2.0586 l -0.29688,1.550782 z m -1.84375,9.394531 1.55078,-7.96875 h 2.05468 l -1.55078,7.96875 z m 0,0"
         style="fill:#596b85;fill-opacity:1;fill-rule:nonzero;stroke:none" />
      <path
         inkscape:connector-curvature="0"
         id="path41"
         d="m 128.26172,21.148438 c -0.16406,0.710937 0.21094,1.214843 1.00781,0.964843 l -0.125,1.128907 c -1.25781,0.464843 -3.10547,0.04297 -2.80859,-1.425782 -0.62891,0.882813 -1.21875,1.679688 -2.6875,1.679688 -1.38281,0 -2.22266,-0.796875 -2.26172,-2.222656 0,-2.683594 2.64062,-2.808594 5.36719,-2.808594 0.41797,-0.925782 0.125,-2.226563 -1.21485,-1.890625 -0.54687,0.128906 -0.92578,0.421875 -1.05078,1.007812 l -1.92969,-0.210937 c 0.21094,-2.683594 6.54297,-3.226563 6.41797,0 -0.043,1.386718 -0.46094,2.519531 -0.71484,3.777344 z m -2.89063,-1.511719 c -1.84765,-0.375 -2.6875,2.390625 -0.79687,2.390625 1.29687,0 1.76172,-1.171875 1.96875,-2.390625 z m 0,0"
         style="fill:#596b85;fill-opacity:1;fill-rule:nonzero;stroke:none" />
      <path
         inkscape:connector-curvature="0"
         id="path43"
         d="m 131.57812,16.15625 c 1.21485,-1.34375 4.32032,-1.214844 4.78125,0.585938 0.082,-0.460938 0.20704,-0.964844 0.33594,-1.382813 h 1.96875 l -1.59375,7.882813 c -0.125,2.9375 -3.85937,4.027343 -6.5,2.6875 -0.5039,-0.253907 -0.83984,-0.839844 -0.92187,-1.554688 l 2.09765,-0.207031 c 0.082,1.171875 2.01172,1.132812 2.64063,0.460937 0.54687,-0.546875 0.83984,-1.886718 0.8789,-2.769531 -0.54296,0.839844 -1.25781,1.46875 -2.59765,1.511719 -3.64844,0.125 -2.51563,-5.621094 -1.08985,-7.214844 z m 2.05469,5.703125 c 1.71875,-0.125 2.30469,-1.800781 2.30469,-3.605469 0,-1.007812 -0.50391,-1.636718 -1.46875,-1.636718 -1.80078,0 -2.13672,2.011718 -2.13672,3.773437 0,0.925781 0.37891,1.554687 1.30078,1.46875 z m 0,0"
         style="fill:#596b85;fill-opacity:1;fill-rule:nonzero;stroke:none" />
      <path
         inkscape:connector-curvature="0"
         id="path45"
         d="m 142.39844,16.996094 c 0.54297,-1.050782 1.42578,-2.140625 3.01953,-1.679688 l -0.33594,1.71875 c -3.39844,-0.835937 -3.23047,3.609375 -3.85937,6.292969 H 139.125 l 1.51172,-7.96875 h 1.96875 z m 0,0"
         style="fill:#596b85;fill-opacity:1;fill-rule:nonzero;stroke:none" />
      <path
         inkscape:connector-curvature="0"
         id="path47"
         d="m 151.70703,21.148438 c -0.16797,0.710937 0.21094,1.214843 1.00781,0.964843 l -0.125,1.128907 c -1.25781,0.464843 -3.10547,0.04297 -2.8125,-1.425782 -0.6289,0.882813 -1.21484,1.679688 -2.68359,1.679688 -1.38281,0 -2.22266,-0.796875 -2.26563,-2.222656 0,-2.683594 2.64454,-2.808594 5.3711,-2.808594 0.41797,-0.925782 0.125,-2.226563 -1.21875,-1.890625 -0.54297,0.128906 -0.92188,0.421875 -1.04688,1.007812 l -1.92968,-0.210937 c 0.21093,-2.683594 6.54296,-3.226563 6.41796,0 -0.043,1.386718 -0.46093,2.519531 -0.71484,3.777344 z m -2.89453,-1.511719 c -1.84375,-0.375 -2.68359,2.390625 -0.79688,2.390625 1.30079,0 1.76172,-1.171875 1.97266,-2.390625 z m 0,0"
         style="fill:#596b85;fill-opacity:1;fill-rule:nonzero;stroke:none" />
      <path
         inkscape:connector-curvature="0"
         id="path49"
         d="m 163.82812,15.191406 c 3.77344,0 1.21485,5.410156 1.00782,8.136719 h -2.05469 L 163.82812,17.625 c -0.29296,-1.636719 -2.22265,-0.589844 -2.51562,0.375 -0.50391,1.59375 -0.75391,3.566406 -1.17578,5.328125 h -2.05469 L 159.13281,17.625 c 0.082,-1.21875 -1.63672,-0.964844 -2.09765,-0.292969 -1.00782,1.464844 -1.05079,4.023438 -1.55079,5.996094 h -2.09765 l 1.50781,-7.96875 h 2.01563 c -0.043,0.417969 -0.25391,1.007813 -0.16797,1.34375 0.5,-0.839844 1.13281,-1.511719 2.39062,-1.511719 1.25781,0 1.92969,0.628906 2.09375,1.71875 0.58985,-0.878906 1.21875,-1.71875 2.60156,-1.71875 z m 0,0"
         style="fill:#596b85;fill-opacity:1;fill-rule:nonzero;stroke:none" />
    </g>
    <g
       transform="translate(51.596382,3.831575)"
       id="g2005">
      <path
         inkscape:connector-curvature="0"
         id="path153"
         d="m 177.43359,33.75 c 6.4375,0 11.61329,8.054688 11.61329,18 0,9.945312 -5.17579,18 -11.61329,18 h -34.96484 c -6.43359,0 -11.65234,-8.054688 -11.65234,-18 0,-9.945312 5.21875,-18 11.65234,-18 z m 0,0"
         style="fill:#c7e6ab;fill-opacity:1;fill-rule:nonzero;stroke:#5c5c5c;stroke-width:1.35000002;stroke-linecap:butt;stroke-linejoin:miter;stroke-miterlimit:4;stroke-opacity:1" />
      <path
         inkscape:connector-curvature="0"
         id="path155"
         d="m 149.89062,48.191406 0.0469,-5.101562 -1.59766,5.101562 h -0.92578 l -1.57422,-5.101562 0.0508,5.101562 h -1.15234 v -6.199218 h 1.75 l 1.40234,4.625 1.42188,-4.625 h 1.72656 v 6.199218 z m 0,0"
         style="fill:#303030;fill-opacity:1;fill-rule:nonzero;stroke:none" />
      <path
         inkscape:connector-curvature="0"
         id="path157"
         d="m 156.23828,46.992188 c -0.32422,0.75 -0.92578,1.324218 -2.05078,1.296874 -1.5,-0.04687 -2.22266,-0.921874 -2.22266,-2.5 0,-1.574218 0.75,-2.449218 2.25,-2.449218 1.54688,0 2.07422,1.125 2.09766,2.699218 h -3.05078 c 0,0.777344 0.20312,1.375 0.97656,1.402344 0.44922,0 0.75,-0.175781 0.85156,-0.550781 z m -1.125,-1.726563 c 0.125,-1.148437 -1.42578,-1.574219 -1.75,-0.523437 -0.0508,0.148437 -0.10156,0.324218 -0.10156,0.523437 z m 0,0"
         style="fill:#303030;fill-opacity:1;fill-rule:nonzero;stroke:none" />
      <path
         inkscape:connector-curvature="0"
         id="path159"
         d="m 157.23828,48.191406 v -6.523437 h 1.25 v 6.523437 z m 0,0"
         style="fill:#303030;fill-opacity:1;fill-rule:nonzero;stroke:none" />
      <path
         inkscape:connector-curvature="0"
         id="path161"
         d="m 161.98828,48.117188 c -0.90234,0.347656 -2.17578,0.171874 -2.17578,-1.050782 v -2.800781 h -0.59766 v -0.824219 h 0.67188 l 0.375,-1.125 h 0.77734 v 1.125 h 0.89844 v 0.824219 h -0.89844 v 2.476563 c -0.0273,0.574218 0.39844,0.773437 0.94922,0.625 z m 0,0"
         style="fill:#303030;fill-opacity:1;fill-rule:nonzero;stroke:none" />
      <path
         inkscape:connector-curvature="0"
         id="path163"
         d="m 162.71094,42.589844 v -0.921875 h 1.25 v 0.921875 z m 0,5.601562 v -4.75 h 1.25 v 4.75 z m 0,0"
         style="fill:#303030;fill-opacity:1;fill-rule:nonzero;stroke:none" />
      <path
         inkscape:connector-curvature="0"
         id="path165"
         d="m 167.96094,43.339844 c 2.17578,-0.02344 1.44922,2.824218 1.57422,4.851562 h -1.25 c -0.17188,-1.425781 0.57812,-3.925781 -0.84766,-3.925781 -1.47656,0 -0.85156,2.425781 -0.97656,3.925781 h -1.25 l -0.0234,-4.75 h 1.17578 c 0.0508,0.300782 -0.0273,0.699219 0.0742,0.949219 0.30078,-0.648437 0.69922,-1.023437 1.52344,-1.050781 z m 0,0"
         style="fill:#303030;fill-opacity:1;fill-rule:nonzero;stroke:none" />
      <path
         inkscape:connector-curvature="0"
         id="path167"
         d="m 174.9375,48.039062 c 0.27344,2.203126 -3,2.652344 -4.10156,1.300782 -0.0977,-0.148438 -0.14844,-0.324219 -0.19922,-0.523438 l 1.22656,-0.152344 c 0.0742,0.402344 0.39844,0.601563 0.84766,0.625 1,0 1.05078,-0.921874 1,-1.972656 -0.27344,0.550782 -0.75,0.875 -1.52344,0.875 -1.32422,0 -1.75,-1.074218 -1.75,-2.425781 0,-1.398437 0.44922,-2.398437 1.82422,-2.425781 0.75,0 1.14844,0.351562 1.47656,0.851562 l 0.0469,-0.75 h 1.17578 z m -2.25,-0.722656 c 0.80078,0 1.02344,-0.675781 1.02344,-1.574218 0,-0.875 -0.22266,-1.550782 -1,-1.550782 -0.80078,0 -0.97266,0.722656 -1,1.574219 0,0.898437 0.22656,1.550781 0.97656,1.550781 z m 0,0"
         style="fill:#303030;fill-opacity:1;fill-rule:nonzero;stroke:none" />
      <path
         inkscape:connector-curvature="0"
         id="path169"
         d="m 146.28516,55.867188 c 0,1.324218 0.52734,2.171874 1.82812,2.199218 0.92188,0.02344 1.34766,-0.550781 1.625,-1.175781 l 1.125,0.425781 c -0.42578,1.050782 -1.27734,1.773438 -2.75,1.773438 -2.05078,0 -3,-1.148438 -3.125,-3.222656 -0.17578,-2.75 2.72266,-3.902344 4.89844,-2.675782 0.44922,0.25 0.72656,0.722656 0.89844,1.25 l -1.14844,0.300782 c -0.19922,-0.625 -0.75,-1.027344 -1.55078,-1.027344 -1.30078,0 -1.77344,0.851562 -1.80078,2.152344 z m 0,0"
         style="fill:#303030;fill-opacity:1;fill-rule:nonzero;stroke:none" />
      <path
         inkscape:connector-curvature="0"
         id="path171"
         d="m 153.21094,59.089844 c -2.17578,0.02734 -1.44922,-2.824219 -1.57422,-4.847656 h 1.25 c 0.17578,1.421874 -0.57422,3.75 0.82422,3.921874 1.5,-0.125 0.875,-2.421874 1,-3.921874 h 1.25 l 0.0234,4.75 h -1.17187 c -0.0508,-0.300782 0.0234,-0.703126 -0.0781,-0.953126 -0.29687,0.625 -0.69921,1.050782 -1.52343,1.050782 z m 0,0"
         style="fill:#303030;fill-opacity:1;fill-rule:nonzero;stroke:none" />
      <path
         inkscape:connector-curvature="0"
         id="path173"
         d="m 159.93359,55.242188 c -0.97265,-0.300782 -1.49609,0.324218 -1.49609,1.421874 v 2.328126 h -1.25 l -0.0273,-4.75 h 1.17578 c 0.0508,0.324218 -0.0234,0.722656 0.0742,1 0.15234,-0.703126 0.67578,-1.328126 1.52343,-1.027344 z m 0,0"
         style="fill:#303030;fill-opacity:1;fill-rule:nonzero;stroke:none" />
      <path
         inkscape:connector-curvature="0"
         id="path175"
         d="m 163.26172,58.992188 h -1.47656 l -1.69922,-4.75 h 1.32422 l 1.125,3.75 1.19921,-3.75 h 1.30079 z m 0,0"
         style="fill:#303030;fill-opacity:1;fill-rule:nonzero;stroke:none" />
      <path
         inkscape:connector-curvature="0"
         id="path177"
         d="m 169.68359,57.789062 c -0.32422,0.75 -0.92578,1.328126 -2.05078,1.300782 -1.49609,-0.05078 -2.22265,-0.925782 -2.22265,-2.5 0,-1.574219 0.75,-2.449219 2.25,-2.449219 1.55078,0 2.07421,1.125 2.09765,2.699219 h -3.04687 c 0,0.777344 0.19922,1.375 0.97265,1.402344 0.44922,0 0.75,-0.175782 0.85157,-0.550782 z m -1.125,-1.722656 c 0.125,-1.152344 -1.42578,-1.574218 -1.75,-0.527344 -0.0469,0.152344 -0.0977,0.328126 -0.0977,0.527344 z m 0,0"
         style="fill:#303030;fill-opacity:1;fill-rule:nonzero;stroke:none" />
      <path
         inkscape:connector-curvature="0"
         id="path179"
         d="m 173.48437,55.539062 c 0.0234,-0.722656 -1.75,-0.847656 -1.77343,-0.09766 0.375,1.148438 2.94922,0.175782 2.97265,2.148438 0.0273,2.074218 -4.09765,1.902344 -4.30078,0.226562 l 1.07813,-0.175781 c 0.0977,0.476563 0.5,0.625 1.09765,0.625 0.82422,0.199219 1.42578,-0.75 0.60157,-1.023437 -1.07422,-0.351563 -2.55079,-0.277344 -2.60157,-1.652344 -0.0508,-2 3.85157,-1.847656 4.02735,-0.175782 z m 0,0"
         style="fill:#303030;fill-opacity:1;fill-rule:nonzero;stroke:none" />
    </g>
    <g
       transform="translate(64.798169,3.831575)"
       id="g1989">
      <path
         inkscape:connector-curvature="0"
         id="path291"
         d="m 90.718749,33.75 c 8.777344,0 15.886721,8.054688 15.886721,18 0,9.945312 -7.109377,18 -15.886721,18 H 43.109375 c -8.773438,0 -15.882813,-8.054688 -15.882813,-18 0,-9.945312 7.109375,-18 15.882813,-18 z m 0,0"
         style="fill:#c7e6ab;fill-opacity:1;fill-rule:nonzero;stroke:#5c5c5c;stroke-width:1.35000002;stroke-linecap:butt;stroke-linejoin:miter;stroke-miterlimit:4;stroke-opacity:1" />
      <path
         inkscape:connector-curvature="0"
         id="path293"
         d="m 41.789062,48.191406 v -2.652344 h -2.75 v 2.652344 h -1.300781 v -6.199218 h 1.300781 v 2.472656 h 2.75 v -2.472656 h 1.25 v 6.199218 z m 0,0"
         style="fill:#303030;fill-opacity:1;fill-rule:nonzero;stroke:none" />
      <path
         inkscape:connector-curvature="0"
         id="path295"
         d="m 48.238281,46.992188 c -0.324219,0.75 -0.925781,1.324218 -2.050781,1.296874 -1.5,-0.04687 -2.226562,-0.921874 -2.226562,-2.5 0,-1.574218 0.75,-2.449218 2.25,-2.449218 1.550781,0 2.078124,1.125 2.101562,2.699218 h -3.050781 c 0,0.777344 0.199219,1.375 0.976562,1.402344 0.449219,0 0.75,-0.175781 0.847657,-0.550781 z m -1.125,-1.726563 c 0.125,-1.148437 -1.425781,-1.574219 -1.75,-0.523437 -0.05078,0.148437 -0.101562,0.324218 -0.101562,0.523437 z m 0,0"
         style="fill:#303030;fill-opacity:1;fill-rule:nonzero;stroke:none" />
      <path
         inkscape:connector-curvature="0"
         id="path297"
         d="m 51.9375,47.339844 c -0.402344,0.476562 -0.75,0.976562 -1.601562,0.949218 -0.921876,-0.02344 -1.449219,-0.5 -1.449219,-1.449218 -0.02344,-1.5 1.375,-1.574219 2.898437,-1.523438 0.02734,-0.652344 -0.07422,-1.175781 -0.699218,-1.175781 -0.449219,0.02344 -0.648438,0.226563 -0.699219,0.675781 l -1.300781,-0.05078 c 0.175781,-0.949219 0.902343,-1.449219 2.050781,-1.425781 1.148437,0.02734 1.851562,0.550781 1.875,1.699218 l 0.02344,2.050782 c -0.02344,0.351562 0.300782,0.449218 0.625,0.375 v 0.675781 c -0.75,0.199219 -1.773437,0.125 -1.722656,-0.800781 z m -1.199219,0.07422 c 0.722657,0 1.074219,-0.597656 1.046875,-1.421874 -0.796875,0 -1.648437,-0.07813 -1.621094,0.75 0,0.421874 0.199219,0.671874 0.574219,0.671874 z m 0,0"
         style="fill:#303030;fill-opacity:1;fill-rule:nonzero;stroke:none" />
      <path
         inkscape:connector-curvature="0"
         id="path299"
         d="M 56.488281,48.117188 C 55.585938,48.464844 54.3125,48.289062 54.3125,47.066406 v -2.800781 h -0.601562 v -0.824219 h 0.675781 l 0.375,-1.125 h 0.773437 v 1.125 H 56.4375 v 0.824219 h -0.902344 v 2.476563 c -0.02344,0.574218 0.402344,0.773437 0.953125,0.625 z m 0,0"
         style="fill:#303030;fill-opacity:1;fill-rule:nonzero;stroke:none" />
      <path
         inkscape:connector-curvature="0"
         id="path301"
         d="m 60.765625,45.066406 c 0,1.324219 0.523437,2.175782 1.824219,2.199219 0.925781,0.02344 1.347656,-0.550781 1.625,-1.175781 l 1.125,0.425781 c -0.425782,1.050781 -1.277344,1.773437 -2.75,1.773437 -2.050782,0 -3,-1.148437 -3.125,-3.222656 -0.175782,-2.75 2.722656,-3.898437 4.898437,-2.675781 0.449219,0.25 0.726563,0.726563 0.902344,1.25 l -1.152344,0.300781 c -0.199219,-0.625 -0.75,-1.023437 -1.550781,-1.023437 -1.296875,0 -1.773438,0.847656 -1.796875,2.148437 z m 0,0"
         style="fill:#303030;fill-opacity:1;fill-rule:nonzero;stroke:none" />
      <path
         inkscape:connector-curvature="0"
         id="path303"
         d="m 68.886719,47.339844 c -0.398438,0.476562 -0.75,0.976562 -1.597657,0.949218 -0.925781,-0.02344 -1.449218,-0.5 -1.449218,-1.449218 -0.02734,-1.5 1.375,-1.574219 2.898437,-1.523438 0.02344,-0.652344 -0.07422,-1.175781 -0.699219,-1.175781 -0.449218,0.02344 -0.652343,0.226563 -0.699218,0.675781 l -1.300782,-0.05078 c 0.175782,-0.949219 0.898438,-1.449219 2.050782,-1.425781 1.148437,0.02734 1.847656,0.550781 1.875,1.699218 l 0.02344,2.050782 c -0.02344,0.351562 0.300781,0.449218 0.625,0.375 v 0.675781 c -0.75,0.199219 -1.773437,0.125 -1.726562,-0.800781 z m -1.199219,0.07422 c 0.726562,0 1.074219,-0.597656 1.050781,-1.421874 -0.800781,0 -1.648437,-0.07813 -1.625,0.75 0,0.421874 0.199219,0.671874 0.574219,0.671874 z m 0,0"
         style="fill:#303030;fill-opacity:1;fill-rule:nonzero;stroke:none" />
      <path
         inkscape:connector-curvature="0"
         id="path305"
         d="m 73.9375,43.339844 c 1.324219,0 1.75,1.101562 1.75,2.449218 0,1.402344 -0.476562,2.453126 -1.824219,2.5 -0.773437,0.02734 -1.125,-0.421874 -1.476562,-0.847656 0.07813,0.824219 0.05078,1.722656 0.05078,2.625 h -1.25 l -0.02344,-6.625 h 1.199219 c 0.05078,0.25 0,0.574219 0.07422,0.773438 0.277344,-0.597656 0.726562,-0.875 1.5,-0.875 z m -0.523438,4.101562 c 0.824219,0 0.972657,-0.777344 1,-1.652344 0,-0.949218 -0.226562,-1.597656 -1,-1.597656 -1.402343,0 -1.375,3.25 0,3.25 z m 0,0"
         style="fill:#303030;fill-opacity:1;fill-rule:nonzero;stroke:none" />
      <path
         inkscape:connector-curvature="0"
         id="path307"
         d="m 79.363281,47.339844 c -0.402343,0.476562 -0.75,0.976562 -1.601562,0.949218 -0.925781,-0.02344 -1.449219,-0.5 -1.449219,-1.449218 -0.02344,-1.5 1.375,-1.574219 2.898438,-1.523438 0.02734,-0.652344 -0.07422,-1.175781 -0.699219,-1.175781 -0.449219,0.02344 -0.648438,0.226563 -0.699219,0.675781 l -1.300781,-0.05078 c 0.175781,-0.949219 0.902343,-1.449219 2.050781,-1.425781 1.148438,0.02734 1.851562,0.550781 1.875,1.699218 l 0.02344,2.050782 c -0.02344,0.351562 0.300781,0.449218 0.625,0.375 v 0.675781 c -0.75,0.199219 -1.773438,0.125 -1.722657,-0.800781 z m -1.199219,0.07422 c 0.722657,0 1.074219,-0.597656 1.046876,-1.421874 -0.796876,0 -1.648438,-0.07813 -1.625,0.75 0,0.421874 0.203124,0.671874 0.578124,0.671874 z m 0,0"
         style="fill:#303030;fill-opacity:1;fill-rule:nonzero;stroke:none" />
      <path
         inkscape:connector-curvature="0"
         id="path309"
         d="m 85.785156,46.617188 c -0.171875,1.046874 -0.949218,1.671874 -2.148437,1.671874 -1.472657,0 -2.097657,-0.949218 -2.25,-2.449218 -0.300781,-2.75 3.851562,-3.421875 4.351562,-0.898438 l -1.226562,0.05078 c -0.05078,-0.476563 -0.375,-0.800782 -0.875,-0.800782 -0.75,0 -0.875,0.699219 -0.949219,1.597656 -0.148438,1.851563 1.625,2.175782 1.847656,0.75 z m 0,0"
         style="fill:#303030;fill-opacity:1;fill-rule:nonzero;stroke:none" />
      <path
         inkscape:connector-curvature="0"
         id="path311"
         d="m 86.660156,42.589844 v -0.921875 h 1.25 v 0.921875 z m 0,5.601562 v -4.75 h 1.25 v 4.75 z m 0,0"
         style="fill:#303030;fill-opacity:1;fill-rule:nonzero;stroke:none" />
      <path
         inkscape:connector-curvature="0"
         id="path313"
         d="m 91.410156,48.117188 c -0.898437,0.347656 -2.171875,0.171874 -2.171875,-1.050782 V 44.265625 H 88.636719 V 43.441406 H 89.3125 l 0.375,-1.125 h 0.773438 v 1.125 h 0.898437 v 0.824219 h -0.898437 v 2.476563 c -0.02344,0.574218 0.398437,0.773437 0.949218,0.625 z m 0,0"
         style="fill:#303030;fill-opacity:1;fill-rule:nonzero;stroke:none" />
      <path
         inkscape:connector-curvature="0"
         id="path315"
         d="m 94.585938,48.441406 c -0.375,1.074219 -1.074219,1.898438 -2.601563,1.550782 v -0.875 c 0.875,0.199218 1.328125,-0.277344 1.476563,-0.976563 l -1.875,-4.699219 h 1.300781 l 1.199219,3.699219 c 0.300781,-1.300781 0.699218,-2.5 1.101562,-3.699219 h 1.273438 z m 0,0"
         style="fill:#303030;fill-opacity:1;fill-rule:nonzero;stroke:none" />
      <path
         inkscape:connector-curvature="0"
         id="path317"
         d="m 41.386719,52.792969 c 2.324219,0.02344 5.152343,-0.402344 5.101562,1.972656 -0.02734,1.875 -1.726562,2.199219 -3.800781,2.050781 v 2.175782 h -1.300781 z m 1.300781,3.023437 c 1.175781,0 2.5,0.175782 2.5,-1.027344 0,-1.171874 -1.351562,-0.972656 -2.5,-0.972656 z m 0,0"
         style="fill:#303030;fill-opacity:1;fill-rule:nonzero;stroke:none" />
      <path
         inkscape:connector-curvature="0"
         id="path319"
         d="m 50.160156,55.242188 c -0.972656,-0.300782 -1.496094,0.324218 -1.496094,1.421874 v 2.328126 h -1.25 l -0.02734,-4.75 H 48.5625 c 0.05078,0.324218 -0.02344,0.722656 0.07422,1 0.152343,-0.703126 0.675781,-1.328126 1.523437,-1.027344 z m 0,0"
         style="fill:#303030;fill-opacity:1;fill-rule:nonzero;stroke:none" />
      <path
         inkscape:connector-curvature="0"
         id="path321"
         d="m 53.035156,54.140625 c 1.601563,0 2.402344,0.898437 2.402344,2.476563 0,1.597656 -0.875,2.472656 -2.425781,2.472656 -1.523438,0 -2.375,-0.898438 -2.375,-2.472656 0,-1.550782 0.851562,-2.476563 2.398437,-2.476563 z m -0.02344,4.101563 c 0.875,0 1.125,-0.703126 1.125,-1.625 0,-1 -0.25,-1.625 -1.074219,-1.625 -0.851562,0 -1.125,0.648437 -1.125,1.625 0,0.898437 0.25,1.625 1.074219,1.625 z m 0,0"
         style="fill:#303030;fill-opacity:1;fill-rule:nonzero;stroke:none" />
      <path
         inkscape:connector-curvature="0"
         id="path323"
         d="m 58.785156,53.339844 c -0.675781,-0.171875 -1.074218,0.125 -0.949218,0.902344 h 0.949218 v 0.824218 h -0.949218 v 3.925782 h -1.222657 v -3.925782 h -0.703125 v -0.824218 h 0.703125 c -0.226562,-1.476563 0.796875,-2.027344 2.171875,-1.699219 z m 0,0"
         style="fill:#303030;fill-opacity:1;fill-rule:nonzero;stroke:none" />
      <path
         inkscape:connector-curvature="0"
         id="path325"
         d="m 59.359375,53.390625 v -0.925781 h 1.25 v 0.925781 z m 0,5.601563 v -4.75 h 1.25 v 4.75 z m 0,0"
         style="fill:#303030;fill-opacity:1;fill-rule:nonzero;stroke:none" />
      <path
         inkscape:connector-curvature="0"
         id="path327"
         d="m 61.859375,58.992188 v -6.527344 h 1.25 v 6.527344 z m 0,0"
         style="fill:#303030;fill-opacity:1;fill-rule:nonzero;stroke:none" />
      <path
         inkscape:connector-curvature="0"
         id="path329"
         d="m 68.359375,57.789062 c -0.324219,0.75 -0.925781,1.328126 -2.050781,1.300782 -1.496094,-0.05078 -2.222656,-0.925782 -2.222656,-2.5 0,-1.574219 0.75,-2.449219 2.25,-2.449219 1.550781,0 2.074218,1.125 2.097656,2.699219 h -3.046875 c 0,0.777344 0.199219,1.375 0.972656,1.402344 0.449219,0 0.75,-0.175782 0.851563,-0.550782 z m -1.125,-1.722656 c 0.125,-1.152344 -1.425781,-1.574218 -1.75,-0.527344 -0.05078,0.152344 -0.09766,0.328126 -0.09766,0.527344 z m 0,0"
         style="fill:#303030;fill-opacity:1;fill-rule:nonzero;stroke:none" />
      <path
         inkscape:connector-curvature="0"
         id="path331"
         d="m 72.160156,55.539062 c 0.02344,-0.722656 -1.75,-0.847656 -1.773437,-0.09766 0.375,1.148438 2.949219,0.175782 2.972656,2.148438 0.02344,2.074218 -4.097656,1.902344 -4.300781,0.226562 l 1.078125,-0.175781 c 0.09766,0.476563 0.5,0.625 1.097656,0.625 0.824219,0.199219 1.425781,-0.75 0.601563,-1.023437 -1.074219,-0.351563 -2.550782,-0.277344 -2.601563,-1.652344 -0.05078,-2 3.851563,-1.847656 4.023437,-0.175782 z m 0,0"
         style="fill:#303030;fill-opacity:1;fill-rule:nonzero;stroke:none" />
      <path
         inkscape:connector-curvature="0"
         id="path333"
         d="m 77.90625,56.664062 c 0,1.851563 0.546875,3.078126 1.324219,4.203126 h -1.25 c -0.75,-1.125 -1.300781,-2.328126 -1.300781,-4.203126 0,-1.875 0.550781,-3.074218 1.300781,-4.199218 h 1.25 c -0.800781,1.101562 -1.324219,2.351562 -1.324219,4.199218 z m 0,0"
         style="fill:#303030;fill-opacity:1;fill-rule:nonzero;stroke:none" />
      <path
         inkscape:connector-curvature="0"
         id="path335"
         d="m 80.878906,55.867188 c 0,1.324218 0.527344,2.171874 1.824219,2.199218 0.925781,0.02344 1.351563,-0.550781 1.625,-1.175781 l 1.125,0.425781 c -0.425781,1.050782 -1.273437,1.773438 -2.75,1.773438 -2.046875,0 -3,-1.148438 -3.125,-3.222656 -0.171875,-2.75 2.726563,-3.902344 4.902344,-2.675782 0.449219,0.25 0.722656,0.722656 0.898437,1.25 l -1.148437,0.300782 c -0.203125,-0.625 -0.75,-1.027344 -1.550781,-1.027344 -1.300782,0 -1.773438,0.851562 -1.800782,2.152344 z m 0,0"
         style="fill:#303030;fill-opacity:1;fill-rule:nonzero;stroke:none" />
      <path
         inkscape:connector-curvature="0"
         id="path337"
         d="m 88.25,60.25 h -0.925781 l -1.609375,-4.339844 h 0.960937 l 1.121094,3.605469 c 0.296875,-1.257813 0.734375,-2.398437 1.101563,-3.605469 h 0.945312 z m 0,0"
         style="fill:#303030;fill-opacity:1;fill-rule:nonzero;stroke:none" />
      <path
         inkscape:connector-curvature="0"
         id="path339"
         d="m 92.414062,56.664062 c 0,1.851563 -0.550781,3.078126 -1.300781,4.203126 h -1.25 c 0.75,-1.152344 1.351563,-2.328126 1.328125,-4.203126 0,-1.847656 -0.550781,-3.074218 -1.328125,-4.199218 h 1.25 c 0.75,1.125 1.300781,2.351562 1.300781,4.199218 z m 0,0"
         style="fill:#303030;fill-opacity:1;fill-rule:nonzero;stroke:none" />
    </g>
    <g
       transform="translate(-64.075078,-69.969985)"
       id="g2036">
      <path
         inkscape:connector-curvature="0"
         id="path587"
         d="m 79.921875,102.60156 c 0,-1.48828 1.214844,-2.703122 2.699219,-2.703122 h 61.289066 c 1.48437,0 2.69921,1.214842 2.69921,2.703122 v 37.79688 c 0,1.48828 -1.21484,2.70312 -2.69921,2.70312 H 82.621094 c -1.484375,0 -2.699219,-1.21484 -2.699219,-2.70312 z m 0,0"
         style="fill:#ffde70;fill-opacity:1;fill-rule:nonzero;stroke:#5c5c5c;stroke-width:1.35000002;stroke-linecap:butt;stroke-linejoin:miter;stroke-miterlimit:4;stroke-opacity:1" />
      <path
         inkscape:connector-curvature="0"
         id="path589"
         d="M 90.832031,112.5 H 89.308594 L 88.207031,107.60156 87.109375,112.5 h -1.550781 l -1.601563,-6.19922 h 1.324219 l 1.101562,4.97266 1.125,-4.97266 h 1.449219 l 1.074219,4.97266 1.101562,-4.97266 h 1.300782 z m 0,0"
         style="fill:#303030;fill-opacity:1;fill-rule:nonzero;stroke:none" />
      <path
         inkscape:connector-curvature="0"
         id="path591"
         d="m 95.433594,111.64844 c -0.402344,0.47656 -0.75,0.97656 -1.601563,0.95312 -0.925781,-0.0273 -1.449219,-0.5 -1.449219,-1.45312 -0.02734,-1.5 1.375,-1.57422 2.898438,-1.52344 0.02734,-0.64844 -0.07422,-1.17578 -0.699219,-1.17578 -0.449219,0.0273 -0.648437,0.22656 -0.699219,0.67578 l -1.300781,-0.0508 c 0.175781,-0.94922 0.898438,-1.44922 2.050781,-1.42188 1.148438,0.0234 1.847657,0.54688 1.875,1.69922 l 0.02344,2.04688 c -0.02344,0.35156 0.300781,0.45312 0.625,0.375 v 0.67578 c -0.75,0.19922 -1.773438,0.125 -1.722656,-0.80078 z m -1.203125,0.0781 c 0.726562,0 1.078125,-0.60156 1.050781,-1.42578 -0.800781,0 -1.648438,-0.0742 -1.625,0.75 0,0.42578 0.199219,0.67578 0.574219,0.67578 z m 0,0"
         style="fill:#303030;fill-opacity:1;fill-rule:nonzero;stroke:none" />
      <path
         inkscape:connector-curvature="0"
         id="path593"
         d="m 100.48047,107.65234 c 2.17578,-0.0273 1.44922,2.82422 1.57422,4.84766 h -1.25 c -0.17188,-1.42578 0.57812,-3.92578 -0.847659,-3.92578 -1.476562,0 -0.851562,2.42578 -0.976562,3.92578 h -1.25 l -0.02344,-4.75 h 1.175781 c 0.04688,0.30078 -0.02734,0.69922 0.07422,0.94922 0.300781,-0.64844 0.699219,-1.02344 1.52344,-1.04688 z m 0,0"
         style="fill:#303030;fill-opacity:1;fill-rule:nonzero;stroke:none" />
      <path
         inkscape:connector-curvature="0"
         id="path595"
         d="m 107.45703,112.35156 c 0.27344,2.19922 -3,2.64844 -4.10156,1.29688 -0.0977,-0.14844 -0.14844,-0.32422 -0.19922,-0.52344 l 1.22266,-0.14844 c 0.0781,0.39844 0.40234,0.59766 0.85156,0.625 1,0 1.05078,-0.92578 1,-1.97656 -0.27344,0.55078 -0.75,0.875 -1.52344,0.875 -1.32422,0 -1.75,-1.07422 -1.75,-2.42578 0,-1.39844 0.44922,-2.39844 1.82422,-2.42188 0.75,0 1.14844,0.34766 1.47266,0.84766 l 0.0508,-0.75 h 1.17578 z m -2.25,-0.72656 c 0.79688,0 1.02344,-0.67578 1.02344,-1.57422 0,-0.875 -0.22656,-1.55078 -1,-1.55078 -0.80078,0 -0.97656,0.72656 -1,1.57422 0,0.90234 0.22656,1.55078 0.97656,1.55078 z m 0,0"
         style="fill:#303030;fill-opacity:1;fill-rule:nonzero;stroke:none" />
      <path
         inkscape:connector-curvature="0"
         id="path597"
         d="M 108.40625,110.69922 V 109.625 h 2.27344 v 1.07422 z m 0,0"
         style="fill:#303030;fill-opacity:1;fill-rule:nonzero;stroke:none" />
      <path
         inkscape:connector-curvature="0"
         id="path599"
         d="m 111.62891,112.5 v -6.19922 h 1.30078 V 111.5 h 3.32422 v 1 z m 0,0"
         style="fill:#303030;fill-opacity:1;fill-rule:nonzero;stroke:none" />
      <path
         inkscape:connector-curvature="0"
         id="path601"
         d="m 119.82813,111.64844 c -0.39844,0.47656 -0.75,0.97656 -1.59766,0.95312 -0.92578,-0.0273 -1.44922,-0.5 -1.44922,-1.45312 -0.0273,-1.5 1.375,-1.57422 2.89844,-1.52344 0.0234,-0.64844 -0.0742,-1.17578 -0.69922,-1.17578 -0.44922,0.0273 -0.65234,0.22656 -0.69922,0.67578 l -1.30078,-0.0508 c 0.17578,-0.94922 0.89844,-1.44922 2.05078,-1.42188 1.14844,0.0234 1.84766,0.54688 1.87109,1.69922 l 0.0273,2.04688 c -0.0273,0.35156 0.30078,0.45312 0.625,0.375 v 0.67578 c -0.75,0.19922 -1.77735,0.125 -1.72656,-0.80078 z m -1.19922,0.0781 c 0.72656,0 1.07422,-0.60156 1.05078,-1.42578 -0.80078,0 -1.64844,-0.0742 -1.625,0.75 0,0.42578 0.19922,0.67578 0.57422,0.67578 z m 0,0"
         style="fill:#303030;fill-opacity:1;fill-rule:nonzero;stroke:none" />
      <path
         inkscape:connector-curvature="0"
         id="path603"
         d="m 124.87891,107.65234 c 2.17578,-0.0273 1.44922,2.82422 1.57422,4.84766 h -1.25 c -0.17579,-1.42578 0.57421,-3.92578 -0.84766,-3.92578 -1.47656,0 -0.85156,2.42578 -0.97656,3.92578 h -1.25 l -0.0234,-4.75 h 1.17187 c 0.0508,0.30078 -0.0234,0.69922 0.0781,0.94922 0.29687,-0.64844 0.69922,-1.02344 1.52344,-1.04688 z m 0,0"
         style="fill:#303030;fill-opacity:1;fill-rule:nonzero;stroke:none" />
      <path
         inkscape:connector-curvature="0"
         id="path605"
         d="m 129.17969,107.65234 c 0.77343,-0.0273 1.14843,0.375 1.44922,0.84766 l -0.0273,-2.52344 h 1.25 l 0.0273,6.52344 h -1.19922 c -0.0508,-0.25 0,-0.57422 -0.0781,-0.77344 -0.27344,0.57422 -0.72265,0.875 -1.52344,0.875 -1.30078,0 -1.69921,-1.125 -1.72656,-2.47656 0,-1.39844 0.47657,-2.42578 1.82813,-2.47266 z m 0.42187,4.09766 c 0.82813,0 1,-0.75 1.02735,-1.64844 0.0234,-0.92578 -0.22657,-1.60156 -1.02735,-1.60156 -0.79687,0 -0.94922,0.75 -0.97265,1.625 0,1.07422 0.32421,1.625 0.97265,1.625 z m 0,0"
         style="fill:#303030;fill-opacity:1;fill-rule:nonzero;stroke:none" />
      <path
         inkscape:connector-curvature="0"
         id="path607"
         d="m 135.77734,111.64844 c -0.39843,0.47656 -0.75,0.97656 -1.59765,0.95312 -0.92578,-0.0273 -1.45313,-0.5 -1.45313,-1.45312 -0.0234,-1.5 1.375,-1.57422 2.90235,-1.52344 0.0234,-0.64844 -0.0781,-1.17578 -0.69922,-1.17578 -0.45313,0.0273 -0.65235,0.22656 -0.70313,0.67578 l -1.29687,-0.0508 c 0.17187,-0.94922 0.89843,-1.44922 2.04687,-1.42188 1.15235,0.0234 1.85156,0.54688 1.875,1.69922 l 0.0273,2.04688 c -0.0273,0.35156 0.29687,0.45312 0.625,0.375 v 0.67578 c -0.75,0.19922 -1.77735,0.125 -1.72657,-0.80078 z m -1.19922,0.0781 c 0.72266,0 1.07422,-0.60156 1.05079,-1.42578 -0.80079,0 -1.65235,-0.0742 -1.625,0.75 0,0.42578 0.19921,0.67578 0.57421,0.67578 z m 0,0"
         style="fill:#303030;fill-opacity:1;fill-rule:nonzero;stroke:none" />
      <path
         inkscape:connector-curvature="0"
         id="path609"
         d="m 139.57812,112.60156 c -2.17578,0.0234 -1.44921,-2.82812 -1.57421,-4.85156 h 1.25 c 0.17187,1.42578 -0.57813,3.75 0.82421,3.92578 1.5,-0.125 0.875,-2.42578 1,-3.92578 h 1.25 l 0.0234,4.75 h -1.17578 c -0.0469,-0.30078 0.0273,-0.69922 -0.0742,-0.94922 -0.30078,0.625 -0.69922,1.05078 -1.52344,1.05078 z m 0,0"
         style="fill:#303030;fill-opacity:1;fill-rule:nonzero;stroke:none" />
      <path
         inkscape:connector-curvature="0"
         id="path611"
         d="m 93.269531,123.30078 0.05078,-5.10156 -1.601562,5.10156 h -0.925781 l -1.574219,-5.10156 0.05078,5.10156 h -1.148437 v -6.19922 h 1.75 l 1.398437,4.625 1.425781,-4.625 h 1.722657 v 6.19922 z m 0,0"
         style="fill:#303030;fill-opacity:1;fill-rule:nonzero;stroke:none" />
      <path
         inkscape:connector-curvature="0"
         id="path613"
         d="m 97.742188,118.44922 c 1.601562,0 2.402342,0.90234 2.402342,2.47656 0,1.59766 -0.874999,2.47266 -2.42578,2.47266 -1.523438,0 -2.375,-0.89844 -2.375,-2.47266 0,-1.55078 0.851562,-2.47656 2.398438,-2.47656 z m -0.02344,4.10156 c 0.875,0 1.125,-0.69922 1.125,-1.625 0,-1 -0.25,-1.625 -1.074219,-1.625 -0.851562,0 -1.125,0.64844 -1.125,1.625 0,0.89844 0.25,1.625 1.074219,1.625 z m 0,0"
         style="fill:#303030;fill-opacity:1;fill-rule:nonzero;stroke:none" />
      <path
         inkscape:connector-curvature="0"
         id="path615"
         d="m 103.84375,118.44922 c 2.17578,-0.0234 1.44922,2.82422 1.57422,4.85156 h -1.25 c -0.17578,-1.42578 0.57422,-3.92578 -0.85156,-3.92578 -1.47266,0 -0.84766,2.42578 -0.97266,3.92578 h -1.25 l -0.0273,-4.75 h 1.17578 c 0.0508,0.30078 -0.0234,0.69922 0.0742,0.94922 0.30078,-0.64844 0.70312,-1.02344 1.52734,-1.05078 z m 0,0"
         style="fill:#303030;fill-opacity:1;fill-rule:nonzero;stroke:none" />
      <path
         inkscape:connector-curvature="0"
         id="path617"
         d="m 108.81641,123.22656 c -0.89844,0.34766 -2.17188,0.17188 -2.17188,-1.05078 V 119.375 h -0.60156 v -0.82422 h 0.67578 l 0.375,-1.125 h 0.77344 v 1.125 h 0.89844 v 0.82422 h -0.89844 v 2.47656 c -0.0234,0.57422 0.39844,0.77344 0.94922,0.625 z m 0,0"
         style="fill:#303030;fill-opacity:1;fill-rule:nonzero;stroke:none" />
      <path
         inkscape:connector-curvature="0"
         id="path619"
         d="m 113.54297,122.10156 c -0.32422,0.75 -0.92578,1.32422 -2.05078,1.29688 -1.5,-0.0469 -2.22656,-0.92188 -2.22656,-2.5 0,-1.57422 0.75,-2.44922 2.25,-2.44922 1.55078,0 2.07812,1.125 2.10156,2.69922 h -3.05078 c 0,0.77734 0.19922,1.375 0.97656,1.40234 0.44922,0 0.75,-0.17578 0.84766,-0.55078 z m -1.125,-1.72656 c 0.125,-1.14844 -1.42578,-1.57422 -1.75,-0.52344 -0.0508,0.14844 -0.10156,0.32422 -0.10156,0.52344 z m 0,0"
         style="fill:#303030;fill-opacity:1;fill-rule:nonzero;stroke:none" />
      <path
         inkscape:connector-curvature="0"
         id="path621"
         d="m 118.09375,120.17578 c 0,1.32422 0.52734,2.17578 1.82422,2.19922 0.92578,0.0234 1.35156,-0.55078 1.625,-1.17578 l 1.125,0.42578 c -0.42578,1.05078 -1.27344,1.77344 -2.75,1.77344 -2.04688,0 -3,-1.14844 -3.125,-3.22266 -0.17188,-2.75 2.72656,-3.89844 4.90234,-2.67578 0.44922,0.25 0.72266,0.72656 0.89844,1.25 l -1.14844,0.30078 c -0.20312,-0.625 -0.75,-1.02344 -1.55078,-1.02344 -1.30078,0 -1.77344,0.84766 -1.80078,2.14844 z m 0,0"
         style="fill:#303030;fill-opacity:1;fill-rule:nonzero;stroke:none" />
      <path
         inkscape:connector-curvature="0"
         id="path623"
         d="m 126.21875,122.44922 c -0.39844,0.47656 -0.75,0.97656 -1.60156,0.94922 -0.92188,-0.0234 -1.44922,-0.5 -1.44922,-1.44922 -0.0234,-1.5 1.375,-1.57422 2.90234,-1.52344 0.0234,-0.65234 -0.0781,-1.17578 -0.70312,-1.17578 -0.44922,0.0273 -0.64844,0.22656 -0.69922,0.67578 l -1.30078,-0.0508 c 0.17578,-0.94922 0.90234,-1.44922 2.05078,-1.42578 1.15234,0.0273 1.85156,0.55078 1.875,1.69922 l 0.0273,2.05078 c -0.0273,0.35156 0.29688,0.44922 0.6211,0.375 v 0.6758 c -0.7461,0.19922 -1.77344,0.125 -1.72266,-0.80078 z m -1.19922,0.0742 c 0.72266,0 1.07422,-0.59766 1.05078,-1.42188 -0.80078,0 -1.65234,-0.0781 -1.625,0.75 0,0.42188 0.19922,0.67188 0.57422,0.67188 z m 0,0"
         style="fill:#303030;fill-opacity:1;fill-rule:nonzero;stroke:none" />
      <path
         inkscape:connector-curvature="0"
         id="path625"
         d="m 131.26953,119.55078 c -0.97656,-0.30078 -1.5,0.32422 -1.5,1.42578 v 2.32422 h -1.25 l -0.0273,-4.75 h 1.17578 c 0.0508,0.32422 -0.0234,0.72656 0.0742,1 0.15234,-0.69922 0.67578,-1.32422 1.52734,-1.02344 z m 0,0"
         style="fill:#303030;fill-opacity:1;fill-rule:nonzero;stroke:none" />
      <path
         inkscape:connector-curvature="0"
         id="path627"
         d="m 132.01953,123.30078 v -6.52344 h 1.25 v 6.52344 z m 0,0"
         style="fill:#303030;fill-opacity:1;fill-rule:nonzero;stroke:none" />
      <path
         inkscape:connector-curvature="0"
         id="path629"
         d="m 136.64062,118.44922 c 1.60157,0 2.40235,0.90234 2.40235,2.47656 0,1.59766 -0.875,2.47266 -2.42578,2.47266 -1.52344,0 -2.375,-0.89844 -2.375,-2.47266 0,-1.55078 0.85156,-2.47656 2.39843,-2.47656 z m -0.0234,4.10156 c 0.875,0 1.125,-0.69922 1.125,-1.625 0,-1 -0.25,-1.625 -1.07422,-1.625 -0.85156,0 -1.125,0.64844 -1.125,1.625 0,0.89844 0.25,1.625 1.07422,1.625 z m 0,0"
         style="fill:#303030;fill-opacity:1;fill-rule:nonzero;stroke:none" />
      <path
         inkscape:connector-curvature="0"
         id="path631"
         d="m 98.191406,131.77344 c 0,1.85156 0.550782,3.07812 1.324219,4.20312 h -1.25 c -0.75,-1.125 -1.300781,-2.32812 -1.300781,-4.20312 0,-1.8711 0.550781,-3.07422 1.300781,-4.19922 h 1.25 c -0.800781,1.10156 -1.324219,2.35156 -1.324219,4.19922 z m 0,0"
         style="fill:#303030;fill-opacity:1;fill-rule:nonzero;stroke:none" />
      <path
         inkscape:connector-curvature="0"
         id="path633"
         d="m 106.36328,134.10156 h -1.52344 l -1.09765,-4.90234 -1.10156,4.90234 h -1.55079 l -1.597652,-6.19922 h 1.324222 l 1.09765,4.97266 1.125,-4.97266 h 1.44922 l 1.07813,4.97266 1.09765,-4.97266 h 1.30078 z m 0,0"
         style="fill:#303030;fill-opacity:1;fill-rule:nonzero;stroke:none" />
      <path
         inkscape:connector-curvature="0"
         id="path635"
         d="m 108.56641,134.10156 v -6.19922 h 1.29687 v 5.19922 h 3.32422 v 1 z m 0,0"
         style="fill:#303030;fill-opacity:1;fill-rule:nonzero;stroke:none" />
      <path
         inkscape:connector-curvature="0"
         id="path637"
         d="M 119.1875,134.10156 119.2383,129 l -1.59765,5.10156 h -0.92579 L 115.14063,129 l 0.0469,5.10156 h -1.14844 v -6.19922 h 1.75 l 1.39844,4.6211 1.42578,-4.6211 h 1.72656 v 6.19922 z m 0,0"
         style="fill:#303030;fill-opacity:1;fill-rule:nonzero;stroke:none" />
      <path
         inkscape:connector-curvature="0"
         id="path639"
         d="m 122.58984,130.97656 c 0,1.32422 0.52344,2.17188 1.82422,2.19922 0.92578,0.0234 1.34766,-0.55078 1.625,-1.17578 l 1.125,0.42578 c -0.42578,1.05078 -1.27734,1.77344 -2.75,1.77344 -2.05078,0 -3,-1.14844 -3.125,-3.22266 -0.17578,-2.75 2.72266,-3.90234 4.89844,-2.67578 0.44922,0.25 0.72656,0.72656 0.90234,1.25 l -1.15234,0.30078 c -0.19922,-0.625 -0.75,-1.02734 -1.55078,-1.02734 -1.29688,0 -1.77344,0.85156 -1.79688,2.15234 z m 0,0"
         style="fill:#303030;fill-opacity:1;fill-rule:nonzero;stroke:none" />
      <path
         inkscape:connector-curvature="0"
         id="path641"
         d="m 129.9375,131.77344 c 0,1.85156 -0.55078,3.07812 -1.30078,4.20312 h -1.25 c 0.75,-1.15234 1.35156,-2.32812 1.32422,-4.20312 0,-1.84766 -0.54688,-3.07422 -1.32422,-4.19922 h 1.25 c 0.75,1.125 1.30078,2.35156 1.30078,4.19922 z m 0,0"
         style="fill:#303030;fill-opacity:1;fill-rule:nonzero;stroke:none" />
      <path
         inkscape:connector-curvature="0"
         id="path735"
         d="m 113.76172,144.22656 h -0.90234 v -0.45312 h 0.90234"
         style="fill:#5c5c5c;fill-opacity:1;fill-rule:nonzero;stroke:none" />
    </g>
    <g
       id="g3025">
      <path
         style="fill:#5c5c5c;fill-opacity:1;fill-rule:evenodd;stroke:#5c5c5c;stroke-width:1.27499998;stroke-linecap:butt;stroke-linejoin:miter;stroke-miterlimit:4;stroke-dasharray:none;stroke-opacity:1"
         d="M 80.078643,29.910103 H 214.1901"
         id="path2281"
         inkscape:connector-curvature="0" />
      <path
         sodipodi:nodetypes="cc"
         inkscape:connector-curvature="0"
         id="path2639"
         d="m 213.58155,30.093221 v 4.621407"
         style="fill:none;fill-rule:evenodd;stroke:#5c5c5c;stroke-width:1.27499998;stroke-linecap:butt;stroke-linejoin:miter;stroke-miterlimit:4;stroke-dasharray:none;stroke-opacity:1;marker-end:url(#marker2643)" />
    </g>
  </g>
  <rect
     ry="4.5083604"
     y="74.564491"
     x="0.75"
     height="64.368103"
     width="233.30548"
     id="rect3097"
     style="opacity:1;vector-effect:none;fill:#596b85;fill-opacity:0.2;stroke:#596b85;stroke-width:1.5;stroke-linecap:butt;stroke-linejoin:miter;stroke-miterlimit:4;stroke-dasharray:5.99999994, 2.99999997;stroke-dashoffset:0;stroke-opacity:1" />
  <g
     id="g3284"
     transform="translate(-10.405729,-10.144403)">
    <g
       transform="translate(-19.45398,-147.07752)"
       id="g2072">
      <path
         inkscape:connector-curvature="0"
         id="path55"
         d="m 39.59375,236.23047 -0.628906,3.22656 h 4.949218 l -0.335937,1.67969 h -4.90625 l -0.757813,3.8164 h -2.179687 l 2.011719,-10.40234 h 7.296875 l -0.332031,1.67969 z m 0,0"
         style="fill:#596b85;fill-opacity:1;fill-rule:nonzero;stroke:none" />
      <path
         inkscape:connector-curvature="0"
         id="path57"
         d="m 48.191406,238.62109 c 0.542969,-1.05078 1.425782,-2.14062 3.019532,-1.67968 L 50.875,238.66016 c -3.398438,-0.83594 -3.230469,3.60937 -3.859375,6.29296 h -2.097656 l 1.511719,-7.96875 h 1.96875 z m 0,0"
         style="fill:#596b85;fill-opacity:1;fill-rule:nonzero;stroke:none" />
      <path
         inkscape:connector-curvature="0"
         id="path59"
         d="m 55.320312,236.81641 c 2.640626,-0.082 3.648438,2.01171 3.019532,4.61328 h -5.160156 c -0.125,1.17578 0.04297,2.30859 1.300781,2.26562 0.882812,-0.043 1.34375,-0.54687 1.550781,-1.21484 l 1.847656,0.54297 c -0.628906,1.34375 -1.59375,2.09765 -3.523437,2.09765 -2.097657,0 -3.355469,-1.08984 -3.355469,-3.23047 0,-2.97656 1.382812,-4.98828 4.320312,-5.07421 z m 1.257813,3.23046 c 0.585937,-1.97265 -2.097656,-2.55859 -2.808594,-0.92187 -0.128906,0.25 -0.253906,0.54297 -0.335937,0.92187 z m 0,0"
         style="fill:#596b85;fill-opacity:1;fill-rule:nonzero;stroke:none" />
      <path
         inkscape:connector-curvature="0"
         id="path61"
         d="m 63.707031,236.81641 c 2.644531,-0.082 3.648438,2.01171 3.019531,4.61328 h -5.15625 c -0.125,1.17578 0.03906,2.30859 1.300782,2.26562 0.878906,-0.043 1.339844,-0.54687 1.550781,-1.21484 l 1.84375,0.54297 c -0.628906,1.34375 -1.59375,2.09765 -3.523437,2.09765 -2.09375,0 -3.355469,-1.08984 -3.355469,-3.23047 0,-2.97656 1.386719,-4.98828 4.320312,-5.07421 z m 1.257813,3.23046 c 0.589844,-1.97265 -2.09375,-2.55859 -2.808594,-0.92187 -0.125,0.25 -0.25,0.54297 -0.335938,0.92187 z m 0,0"
         style="fill:#596b85;fill-opacity:1;fill-rule:nonzero;stroke:none" />
      <path
         inkscape:connector-curvature="0"
         id="path63"
         d="m 71.757812,244.95312 2.011719,-10.40234 h 8.179688 l -0.335938,1.67969 h -6 l -0.5,2.64062 h 5.535157 l -0.292969,1.67969 h -5.539063 l -0.542968,2.72656 H 80.5625 l -0.332031,1.67578 z m 0,0"
         style="fill:#596b85;fill-opacity:1;fill-rule:nonzero;stroke:none" />
      <path
         inkscape:connector-curvature="0"
         id="path65"
         d="m 87.902344,236.81641 c 3.984375,0 1.425781,5.36718 1.175781,8.13671 h -2.054687 l 1.046874,-5.62109 c 0,-1.21484 -1.886718,-1.04687 -2.472656,-0.375 -1.21875,1.33984 -1.132812,3.98438 -1.679687,5.99609 h -2.097657 l 1.511719,-7.96875 h 1.972657 l -0.167969,1.34375 c 0.628906,-0.83984 1.382812,-1.51171 2.765625,-1.51171 z m 0,0"
         style="fill:#596b85;fill-opacity:1;fill-rule:nonzero;stroke:none" />
      <path
         inkscape:connector-curvature="0"
         id="path67"
         d="m 95.535156,236.81641 c 2.644532,-0.082 3.648438,2.01171 3.019532,4.61328 h -5.15625 c -0.125,1.17578 0.04297,2.30859 1.300781,2.26562 0.878906,-0.043 1.339843,-0.54687 1.550781,-1.21484 l 1.84375,0.54297 c -0.628906,1.34375 -1.59375,2.09765 -3.523438,2.09765 -2.09375,0 -3.351562,-1.08984 -3.351562,-3.23047 0,-2.97656 1.382812,-4.98828 4.316406,-5.07421 z m 1.257813,3.23046 c 0.589843,-1.97265 -2.09375,-2.55859 -2.808594,-0.92187 -0.125,0.25 -0.25,0.54297 -0.335937,0.92187 z m 0,0"
         style="fill:#596b85;fill-opacity:1;fill-rule:nonzero;stroke:none" />
      <path
         inkscape:connector-curvature="0"
         id="path69"
         d="m 102.66797,238.62109 c 0.54297,-1.05078 1.42578,-2.14062 3.01953,-1.67968 l -0.33594,1.71875 c -3.39843,-0.83594 -3.23047,3.60937 -3.85937,6.29296 h -2.097659 l 1.511719,-7.96875 h 1.96875 z m 0,0"
         style="fill:#596b85;fill-opacity:1;fill-rule:nonzero;stroke:none" />
      <path
         inkscape:connector-curvature="0"
         id="path71"
         d="m 106.90234,237.78125 c 1.21485,-1.34375 4.32032,-1.21484 4.78125,0.58594 0.082,-0.46094 0.21094,-0.96485 0.33594,-1.38282 h 1.96875 l -1.58984,7.88282 c -0.12891,2.9375 -3.85938,4.02734 -6.50391,2.6875 -0.5039,-0.25391 -0.83594,-0.83985 -0.92187,-1.55469 l 2.09765,-0.20703 c 0.082,1.17187 2.01172,1.13281 2.64063,0.46094 0.54687,-0.54688 0.83984,-1.88672 0.88281,-2.76954 -0.54687,0.83985 -1.25781,1.46875 -2.60156,1.51172 -3.64844,0.125 -2.51563,-5.62109 -1.08985,-7.21484 z m 2.05469,5.70312 c 1.71875,-0.125 2.3086,-1.80078 2.3086,-3.60546 0,-1.00782 -0.50391,-1.63672 -1.46875,-1.63672 -1.80469,0 -2.14063,2.01172 -2.14063,3.77343 0,0.92579 0.37891,1.55469 1.30078,1.46875 z m 0,0"
         style="fill:#596b85;fill-opacity:1;fill-rule:nonzero;stroke:none" />
      <path
         inkscape:connector-curvature="0"
         id="path73"
         d="m 118.39453,245.37109 c -0.96484,1.55469 -2.09765,3.23047 -4.82422,2.60157 l 0.29297,-1.46875 c 1.55469,0.3789 2.14063,-0.75391 2.72656,-1.71875 l -1.55078,-7.80079 h 2.13672 l 0.75781,6.125 3.0625,-6.125 h 2.22266 z m 0,0"
         style="fill:#596b85;fill-opacity:1;fill-rule:nonzero;stroke:none" />
      <path
         inkscape:connector-curvature="0"
         id="path75"
         d="m 134.44141,244.95312 -0.42188,-2.64062 h -3.94141 l -1.46875,2.64062 h -2.13671 l 5.78515,-10.40234 h 2.5586 l 1.76171,10.40234 z m -0.58985,-4.27734 -0.6289,-4.53125 c -0.67188,1.59375 -1.50782,3.0625 -2.30469,4.53125 z m 0,0"
         style="fill:#596b85;fill-opacity:1;fill-rule:nonzero;stroke:none" />
      <path
         inkscape:connector-curvature="0"
         id="path77"
         d="m 143.96094,236.81641 c 3.98437,0 1.42578,5.36718 1.17187,8.13671 h -2.05469 l 1.05079,-5.62109 c 0,-1.21484 -1.88672,-1.04687 -2.47657,-0.375 -1.21484,1.33984 -1.13281,3.98438 -1.67578,5.99609 h -2.09765 l 1.51171,-7.96875 h 1.96875 l -0.16796,1.34375 c 0.6289,-0.83984 1.38671,-1.51171 2.76953,-1.51171 z m 0,0"
         style="fill:#596b85;fill-opacity:1;fill-rule:nonzero;stroke:none" />
      <path
         inkscape:connector-curvature="0"
         id="path79"
         d="m 153.77344,242.77344 c -0.16797,0.71093 0.21093,1.21484 1.00781,0.96484 l -0.125,1.12891 c -1.25781,0.46484 -3.10547,0.043 -2.8125,-1.42578 -0.62891,0.88281 -1.21484,1.67968 -2.68359,1.67968 -1.38282,0 -2.22266,-0.79687 -2.26563,-2.22265 0,-2.6836 2.64453,-2.8086 5.37109,-2.8086 0.41797,-0.92578 0.125,-2.22656 -1.21875,-1.89062 -0.54296,0.1289 -0.92187,0.42187 -1.04687,1.00781 l -1.92969,-0.21094 c 0.21094,-2.68359 6.54297,-3.22656 6.41797,0 -0.043,1.38672 -0.46094,2.51953 -0.71484,3.77735 z m -2.89453,-1.51172 c -1.84375,-0.375 -2.6836,2.39062 -0.79688,2.39062 1.30078,0 1.76172,-1.17187 1.97266,-2.39062 z m 0,0"
         style="fill:#596b85;fill-opacity:1;fill-rule:nonzero;stroke:none" />
      <path
         inkscape:connector-curvature="0"
         id="path81"
         d="m 155.45312,244.95312 2.13672,-10.94531 h 2.05469 l -2.13672,10.94531 z m 0,0"
         style="fill:#596b85;fill-opacity:1;fill-rule:nonzero;stroke:none" />
      <path
         inkscape:connector-curvature="0"
         id="path83"
         d="m 163.58984,245.37109 c -0.96484,1.55469 -2.09765,3.23047 -4.82422,2.60157 l 0.29297,-1.46875 c 1.55078,0.3789 2.14063,-0.75391 2.72657,-1.71875 l -1.55079,-7.80079 h 2.13672 l 0.75782,6.125 3.05859,-6.125 h 2.22266 z m 0,0"
         style="fill:#596b85;fill-opacity:1;fill-rule:nonzero;stroke:none" />
      <path
         inkscape:connector-curvature="0"
         id="path85"
         d="m 173.82031,239.20703 c -0.0391,-1.21484 -2.93359,-1.46875 -2.97656,-0.082 0.67187,1.71875 4.32031,0.41797 4.32031,3.35547 0,2.85156 -4.07031,3.14453 -6.03906,2.09375 -0.58594,-0.33594 -0.96484,-0.92188 -1.17578,-1.63281 l 1.84765,-0.25391 c 0.125,1.34375 3.35547,1.51172 3.4375,0.043 -0.6289,-1.76172 -4.32031,-0.46094 -4.32031,-3.4375 0,-3.23047 6.58594,-3.31641 6.75391,-0.33594 z m 0,0"
         style="fill:#596b85;fill-opacity:1;fill-rule:nonzero;stroke:none" />
      <path
         inkscape:connector-curvature="0"
         id="path87"
         d="m 178.26562,235.55859 0.29688,-1.55078 h 2.05469 l -0.29297,1.55078 z m -1.84375,9.39453 1.55079,-7.96875 h 2.05468 l -1.55078,7.96875 z m 0,0"
         style="fill:#596b85;fill-opacity:1;fill-rule:nonzero;stroke:none" />
      <path
         inkscape:connector-curvature="0"
         id="path89"
         d="m 186.40234,239.20703 c -0.0391,-1.21484 -2.93359,-1.46875 -2.97656,-0.082 0.67188,1.71875 4.32031,0.41797 4.32031,3.35547 0,2.85156 -4.07031,3.14453 -6.03906,2.09375 -0.58594,-0.33594 -0.96484,-0.92188 -1.17578,-1.63281 l 1.84766,-0.25391 c 0.125,1.34375 3.35546,1.51172 3.4375,0.043 -0.62891,-1.76172 -4.32032,-0.46094 -4.32032,-3.4375 0,-3.23047 6.58594,-3.31641 6.75391,-0.33594 z m 0,0"
         style="fill:#596b85;fill-opacity:1;fill-rule:nonzero;stroke:none" />
    </g>
    <g
       transform="translate(2.899707,-158.75896)"
       id="g2115">
      <path
         inkscape:connector-curvature="0"
         id="path211"
         d="m 12.511719,263.69922 c 0,-1.48438 1.214843,-2.69922 2.699218,-2.69922 H 116.05469 c 1.48437,0 2.69922,1.21484 2.69922,2.69922 v 36.58594 c 0,1.53125 -1.21485,2.69921 -2.69922,2.69921 H 15.210937 c -1.484375,0 -2.699218,-1.16796 -2.699218,-2.69921 z m 0,0"
         style="fill:#ffde70;fill-opacity:1;fill-rule:nonzero;stroke:#5c5c5c;stroke-width:1.35000002;stroke-linecap:butt;stroke-linejoin:miter;stroke-miterlimit:4;stroke-opacity:1" />
      <path
         inkscape:connector-curvature="0"
         id="path213"
         d="m 22.507812,273.60156 v -6.19922 h 4.875 v 1 h -3.574218 v 1.57422 h 3.300781 v 1 h -3.300781 v 1.625 h 3.75 v 1 z m 0,0"
         style="fill:#303030;fill-opacity:1;fill-rule:nonzero;stroke:none" />
      <path
         inkscape:connector-curvature="0"
         id="path215"
         d="m 31.507812,273.60156 -1.097656,-1.72656 -1.125,1.72656 h -1.324218 l 1.746093,-2.45312 -1.648437,-2.29688 h 1.324218 l 1.027344,1.54688 1,-1.54688 h 1.347656 l -1.675781,2.27344 1.777344,2.47656 z m 0,0"
         style="fill:#303030;fill-opacity:1;fill-rule:nonzero;stroke:none" />
      <path
         inkscape:connector-curvature="0"
         id="path217"
         d="m 36.28125,268.75 c 1.328125,0 1.75,1.10156 1.75,2.44922 0,1.40234 -0.472656,2.44922 -1.824219,2.5 -0.773437,0.0273 -1.125,-0.42578 -1.472656,-0.84766 0.07422,0.82422 0.05078,1.72266 0.05078,2.625 h -1.25 l -0.02734,-6.625 h 1.199219 c 0.05078,0.25 0,0.57422 0.07813,0.77344 0.273438,-0.59766 0.722656,-0.875 1.496094,-0.875 z m -0.523438,4.10156 c 0.824219,0 0.976563,-0.77734 1,-1.65234 0,-0.94922 -0.226562,-1.59766 -1,-1.59766 -1.398437,0 -1.375,3.25 0,3.25 z m 0,0"
         style="fill:#303030;fill-opacity:1;fill-rule:nonzero;stroke:none" />
      <path
         inkscape:connector-curvature="0"
         id="path219"
         d="m 41.707031,272.75 c -0.398437,0.47656 -0.75,0.97656 -1.597656,0.94922 -0.925781,-0.0234 -1.453125,-0.5 -1.453125,-1.44922 -0.02344,-1.5 1.375,-1.57422 2.902344,-1.52344 0.02344,-0.65234 -0.07422,-1.17578 -0.699219,-1.17578 -0.453125,0.0234 -0.652344,0.22266 -0.703125,0.67578 l -1.296875,-0.0508 c 0.171875,-0.94922 0.898437,-1.44922 2.046875,-1.42578 1.152344,0.0273 1.851562,0.55078 1.875,1.69922 l 0.02734,2.05078 c -0.02734,0.35156 0.300781,0.44922 0.625,0.375 v 0.67578 c -0.75,0.19922 -1.777344,0.125 -1.726563,-0.80078 z m -1.199219,0.0742 c 0.726563,0 1.074219,-0.59766 1.050782,-1.42578 -0.800782,0 -1.652344,-0.0742 -1.625,0.75 0,0.42578 0.199218,0.67578 0.574218,0.67578 z m 0,0"
         style="fill:#303030;fill-opacity:1;fill-rule:nonzero;stroke:none" />
      <path
         inkscape:connector-curvature="0"
         id="path221"
         d="m 46.757812,268.75 c 2.175782,-0.0234 1.449219,2.82422 1.574219,4.85156 h -1.25 c -0.175781,-1.42578 0.574219,-3.92578 -0.851562,-3.92578 -1.472657,0 -0.847657,2.42578 -0.972657,3.92578 h -1.25 l -0.02734,-4.75 h 1.175781 c 0.05078,0.30078 -0.02344,0.69922 0.07422,0.94922 0.300781,-0.64844 0.703125,-1.02344 1.527343,-1.05078 z m 0,0"
         style="fill:#303030;fill-opacity:1;fill-rule:nonzero;stroke:none" />
      <path
         inkscape:connector-curvature="0"
         id="path223"
         d="m 51.058594,268.75 c 0.773437,-0.0234 1.148437,0.375 1.449218,0.85156 l -0.02734,-2.52734 h 1.25 l 0.02734,6.52734 h -1.203124 c -0.04688,-0.25 0,-0.57812 -0.07422,-0.77734 -0.273438,0.57422 -0.722657,0.875 -1.523438,0.875 -1.300781,0 -1.699219,-1.125 -1.726562,-2.47266 0,-1.40234 0.476562,-2.42578 1.828126,-2.47656 z m 0.421875,4.10156 c 0.824219,0 1,-0.75 1.027343,-1.65234 0.02344,-0.92578 -0.226562,-1.59766 -1.027343,-1.59766 -0.796875,0 -0.949219,0.75 -0.972657,1.625 0,1.07422 0.324219,1.625 0.972657,1.625 z m 0,0"
         style="fill:#303030;fill-opacity:1;fill-rule:nonzero;stroke:none" />
      <path
         inkscape:connector-curvature="0"
         id="path225"
         d="m 58.957031,272.39844 c -0.324219,0.75 -0.925781,1.32812 -2.050781,1.30078 -1.5,-0.0508 -2.226562,-0.92578 -2.226562,-2.5 0,-1.57422 0.75,-2.44922 2.25,-2.44922 1.550781,0 2.078124,1.125 2.101562,2.69922 h -3.050781 c 0,0.77734 0.199219,1.375 0.976562,1.40234 0.449219,0 0.75,-0.17578 0.847657,-0.55078 z m -1.125,-1.72266 c 0.125,-1.14844 -1.425781,-1.57422 -1.75,-0.52734 -0.05078,0.15234 -0.101562,0.32812 -0.101562,0.52734 z m 0,0"
         style="fill:#303030;fill-opacity:1;fill-rule:nonzero;stroke:none" />
      <path
         inkscape:connector-curvature="0"
         id="path227"
         d="m 61.53125,268.75 c 0.773438,-0.0234 1.148438,0.375 1.449219,0.85156 l -0.02344,-2.52734 h 1.25 l 0.02344,6.52734 H 63.03125 c -0.05078,-0.25 0,-0.57812 -0.07422,-0.77734 -0.277343,0.57422 -0.726562,0.875 -1.527343,0.875 -1.300782,0 -1.699219,-1.125 -1.722657,-2.47266 0,-1.40234 0.472657,-2.42578 1.82422,-2.47656 z m 0.425781,4.10156 c 0.824219,0 1,-0.75 1.023438,-1.65234 0.02344,-0.92578 -0.226563,-1.59766 -1.023438,-1.59766 -0.800781,0 -0.953125,0.75 -0.976562,1.625 0,1.07422 0.324219,1.625 0.976562,1.625 z m 0,0"
         style="fill:#303030;fill-opacity:1;fill-rule:nonzero;stroke:none" />
      <path
         inkscape:connector-curvature="0"
         id="path229"
         d="m 67.875,273.60156 v -6.19922 h 4.875 v 1 h -3.574219 v 1.57422 h 3.296875 v 1 h -3.296875 v 1.625 h 3.75 v 1 z m 0,0"
         style="fill:#303030;fill-opacity:1;fill-rule:nonzero;stroke:none" />
      <path
         inkscape:connector-curvature="0"
         id="path231"
         d="m 76.648438,268.75 c 2.175781,-0.0234 1.449218,2.82422 1.574218,4.85156 h -1.25 c -0.171875,-1.42578 0.578125,-3.92578 -0.847656,-3.92578 -1.476562,0 -0.851562,2.42578 -0.976562,3.92578 h -1.25 l -0.02344,-4.75 h 1.175781 c 0.04687,0.30078 -0.02734,0.69922 0.07422,0.94922 0.300781,-0.64844 0.699219,-1.02344 1.523439,-1.05078 z m 0,0"
         style="fill:#303030;fill-opacity:1;fill-rule:nonzero;stroke:none" />
      <path
         inkscape:connector-curvature="0"
         id="path233"
         d="m 82.171875,270.14844 c 0.02734,-0.72266 -1.75,-0.84766 -1.773437,-0.0977 0.375,1.14844 2.949218,0.17578 2.976562,2.14844 0.02344,2.07422 -4.101562,1.90234 -4.300781,0.22656 L 80.148438,272.25 c 0.101562,0.47656 0.5,0.625 1.101562,0.625 0.824219,0.19922 1.421875,-0.75 0.597656,-1.02344 C 80.773438,271.5 79.296875,271.57422 79.25,270.19922 c -0.05078,-2 3.847656,-1.84766 4.023438,-0.17578 z m 0,0"
         style="fill:#303030;fill-opacity:1;fill-rule:nonzero;stroke:none" />
      <path
         inkscape:connector-curvature="0"
         id="path235"
         d="m 88.371094,272.39844 c -0.324219,0.75 -0.921875,1.32812 -2.046875,1.30078 -1.5,-0.0508 -2.226563,-0.92578 -2.226563,-2.5 0,-1.57422 0.75,-2.44922 2.25,-2.44922 1.550782,0 2.074219,1.125 2.101563,2.69922 h -3.050781 c 0,0.77734 0.199218,1.375 0.976562,1.40234 0.449219,0 0.746094,-0.17578 0.847656,-0.55078 z m -1.125,-1.72266 c 0.125,-1.14844 -1.421875,-1.57422 -1.746094,-0.52734 -0.05078,0.15234 -0.101562,0.32812 -0.101562,0.52734 z m 0,0"
         style="fill:#303030;fill-opacity:1;fill-rule:nonzero;stroke:none" />
      <path
         inkscape:connector-curvature="0"
         id="path237"
         d="m 94.246094,269.67578 c -1.324219,0.22266 -0.699219,2.5 -0.847656,3.92578 h -1.226563 v -2.67578 c 0.02734,-0.67578 -0.125,-1.22656 -0.722656,-1.25 -1.328125,0.25 -0.675781,2.5 -0.828125,3.92578 h -1.25 l -0.02344,-4.75 h 1.175782 c 0.05078,0.30078 -0.02734,0.69922 0.07422,0.94922 0.25,-1.32422 2.523438,-1.39844 2.699219,0 0.324219,-0.55078 0.601563,-1.07422 1.476563,-1.05078 2.046874,0.0273 1.273437,2.89844 1.421874,4.85156 h -1.222656 v -2.67578 c -0.02734,-0.625 -0.125,-1.19922 -0.726562,-1.25 z m 0,0"
         style="fill:#303030;fill-opacity:1;fill-rule:nonzero;stroke:none" />
      <path
         inkscape:connector-curvature="0"
         id="path239"
         d="m 100.12109,268.75 c 1.30079,0 1.75,1.07422 1.75,2.44922 0,1.40234 -0.47265,2.47656 -1.82421,2.5 -0.750005,0.0273 -1.148442,-0.375 -1.449224,-0.875 l -0.05078,0.77734 h -1.199219 l 0.02344,-6.52734 h 1.25 v 2.60156 c 0.277344,-0.57422 0.726562,-0.92578 1.499993,-0.92578 z m -0.523434,4.10156 c 0.773434,0 1.000004,-0.67578 1.000004,-1.65234 0,-0.92578 -0.17578,-1.57422 -0.976566,-1.57422 -0.800782,0 -1.023438,0.69922 -1.023438,1.625 0,0.89844 0.199219,1.60156 1,1.60156 z m 0,0"
         style="fill:#303030;fill-opacity:1;fill-rule:nonzero;stroke:none" />
      <path
         inkscape:connector-curvature="0"
         id="path241"
         d="m 102.84766,273.60156 v -6.52734 h 1.25 v 6.52734 z m 0,0"
         style="fill:#303030;fill-opacity:1;fill-rule:nonzero;stroke:none" />
      <path
         inkscape:connector-curvature="0"
         id="path243"
         d="m 109.34766,272.39844 c -0.32813,0.75 -0.92578,1.32812 -2.05078,1.30078 -1.5,-0.0508 -2.22657,-0.92578 -2.22657,-2.5 0,-1.57422 0.75,-2.44922 2.25,-2.44922 1.55078,0 2.07422,1.125 2.10157,2.69922 h -3.05079 c 0,0.77734 0.19922,1.375 0.97657,1.40234 0.44922,0 0.75,-0.17578 0.84765,-0.55078 z m -1.125,-1.72266 c 0.125,-1.14844 -1.42578,-1.57422 -1.75,-0.52734 -0.0508,0.15234 -0.10157,0.32812 -0.10157,0.52734 z m 0,0"
         style="fill:#303030;fill-opacity:1;fill-rule:nonzero;stroke:none" />
      <path
         inkscape:connector-curvature="0"
         id="path245"
         d="m 30.019531,278.19922 c 3,-0.17188 5.574219,0.125 5.527344,3.05078 -0.02734,2 -1.101563,3.14844 -3.027344,3.14844 h -2.5 z m 1.300781,5.19922 c 1.851563,0.17578 2.925782,-0.44922 2.925782,-2.14844 0,-1.67578 -1.125,-2.19922 -2.925782,-2.05078 z m 0,0"
         style="fill:#303030;fill-opacity:1;fill-rule:nonzero;stroke:none" />
      <path
         inkscape:connector-curvature="0"
         id="path247"
         d="m 40.519531,283.19922 c -0.324219,0.75 -0.925781,1.32422 -2.050781,1.30078 -1.5,-0.0508 -2.222656,-0.92578 -2.222656,-2.5 0,-1.57422 0.75,-2.44922 2.25,-2.44922 1.550781,0 2.074218,1.125 2.097656,2.69922 h -3.046875 c 0,0.77344 0.199219,1.375 0.972656,1.39844 0.449219,0 0.75,-0.17188 0.851563,-0.54688 z m -1.125,-1.72266 c 0.125,-1.15234 -1.425781,-1.57422 -1.75,-0.52734 -0.05078,0.15234 -0.09766,0.32422 -0.09766,0.52734 z m 0,0"
         style="fill:#303030;fill-opacity:1;fill-rule:nonzero;stroke:none" />
      <path
         inkscape:connector-curvature="0"
         id="path249"
         d="m 44.269531,279.55078 c 2.175781,-0.0234 1.449219,2.82422 1.574219,4.84766 h -1.25 c -0.175781,-1.42188 0.574219,-3.92188 -0.847656,-3.92188 -1.476563,0 -0.851563,2.42188 -0.976563,3.92188 h -1.25 l -0.02344,-4.7461 h 1.171875 c 0.05078,0.29688 -0.02344,0.69922 0.07813,0.94922 0.296875,-0.65234 0.699218,-1.02734 1.523437,-1.05078 z m 0,0"
         style="fill:#303030;fill-opacity:1;fill-rule:nonzero;stroke:none" />
      <path
         inkscape:connector-curvature="0"
         id="path251"
         d="m 49.792969,280.94922 c 0.02734,-0.72266 -1.75,-0.84766 -1.773438,-0.0977 0.375,1.14844 2.949219,0.17188 2.972657,2.14844 0.02734,2.07422 -4.097657,1.89844 -4.296876,0.22656 l 1.074219,-0.17578 c 0.101563,0.47266 0.5,0.625 1.097657,0.625 0.828124,0.19922 1.425781,-0.75 0.601562,-1.02734 -1.074219,-0.34762 -2.550781,-0.2734 -2.597656,-1.6484 -0.05078,-2 3.847656,-1.84766 4.023437,-0.17578 z m 0,0"
         style="fill:#303030;fill-opacity:1;fill-rule:nonzero;stroke:none" />
      <path
         inkscape:connector-curvature="0"
         id="path253"
         d="M 51.992188,278.80078 V 277.875 h 1.25 v 0.92578 z m 0,5.59766 v -4.7461 h 1.25 v 4.7461 z m 0,0"
         style="fill:#303030;fill-opacity:1;fill-rule:nonzero;stroke:none" />
      <path
         inkscape:connector-curvature="0"
         id="path255"
         d="m 56.742188,284.32422 c -0.898438,0.35156 -2.171876,0.17578 -2.171876,-1.05078 v -2.79688 H 53.96875 v -0.82422 h 0.675781 l 0.375,-1.125 h 0.773438 v 1.125 h 0.898437 v 0.82422 h -0.898437 v 2.47266 c -0.02344,0.57422 0.398437,0.77734 0.949219,0.625 z m 0,0"
         style="fill:#303030;fill-opacity:1;fill-rule:nonzero;stroke:none" />
      <path
         inkscape:connector-curvature="0"
         id="path257"
         d="m 59.917969,284.64844 c -0.375,1.07812 -1.074219,1.90234 -2.601563,1.55078 v -0.875 c 0.875,0.19922 1.328125,-0.27344 1.476563,-0.97266 l -1.875,-4.69922 h 1.300781 l 1.199219,3.69922 c 0.300781,-1.30078 0.699219,-2.5 1.101562,-3.69922 h 1.273438 z m 0,0"
         style="fill:#303030;fill-opacity:1;fill-rule:nonzero;stroke:none" />
      <path
         inkscape:connector-curvature="0"
         id="path259"
         d="m 67.054688,279.55078 c 1.601562,0 2.398437,0.89844 2.398437,2.47266 0,1.60156 -0.875,2.47656 -2.421875,2.47656 -1.527344,0 -2.375,-0.89844 -2.375,-2.47656 0,-1.54688 0.847656,-2.47266 2.398438,-2.47266 z m -0.02344,4.09766 c 0.875,0 1.125,-0.69922 1.125,-1.625 0,-1 -0.25,-1.6211 -1.078125,-1.6211 -0.847656,0 -1.125,0.64844 -1.125,1.6211 0,0.90234 0.25,1.625 1.078125,1.625 z m 0,0"
         style="fill:#303030;fill-opacity:1;fill-rule:nonzero;stroke:none" />
      <path
         inkscape:connector-curvature="0"
         id="path261"
         d="m 72.804688,278.75 c -0.675782,-0.17578 -1.074219,0.125 -0.949219,0.90234 h 0.949219 v 0.82422 h -0.949219 v 3.92188 h -1.226563 v -3.92188 h -0.699218 v -0.82422 h 0.699218 c -0.222656,-1.47656 0.800782,-2.02734 2.175782,-1.70312 z m 0,0"
         style="fill:#303030;fill-opacity:1;fill-rule:nonzero;stroke:none" />
      <path
         inkscape:connector-curvature="0"
         id="path263"
         d="m 79.507812,279.85156 c -0.02344,-1.07422 -2.347656,-1.15234 -2.421874,-0.0742 0.449218,1.64844 3.773437,0.25 3.847656,2.84766 0.07422,2.375 -4.125,2.32422 -5.097656,0.89844 -0.152344,-0.19922 -0.25,-0.47266 -0.300782,-0.75 l 1.25,-0.19922 c 0.07422,1.15234 2.800782,1.40234 2.898438,0.125 -0.425782,-1.72266 -3.75,-0.25 -3.847656,-2.84766 -0.101563,-2.17578 3.824218,-2.19922 4.699218,-0.875 0.125,0.19922 0.199219,0.44922 0.25,0.69922 z m 0,0"
         style="fill:#303030;fill-opacity:1;fill-rule:nonzero;stroke:none" />
      <path
         inkscape:connector-curvature="0"
         id="path265"
         d="m 84.160156,284.32422 c -0.902344,0.35156 -2.175781,0.17578 -2.175781,-1.05078 v -2.79688 h -0.601563 v -0.82422 h 0.675782 l 0.375,-1.125 h 0.777344 v 1.125 h 0.898437 v 0.82422 h -0.898437 v 2.47266 c -0.02734,0.57422 0.398437,0.77734 0.949218,0.625 z m 0,0"
         style="fill:#303030;fill-opacity:1;fill-rule:nonzero;stroke:none" />
      <path
         inkscape:connector-curvature="0"
         id="path267"
         d="m 87.582031,283.55078 c -0.398437,0.47266 -0.75,0.97266 -1.597656,0.94922 -0.925781,-0.0234 -1.449219,-0.5 -1.449219,-1.44922 -0.02734,-1.5 1.375,-1.57422 2.898438,-1.52734 0.02344,-0.64844 -0.07422,-1.17188 -0.699219,-1.17188 -0.449219,0.0234 -0.652344,0.22266 -0.699219,0.67188 l -1.300781,-0.0469 c 0.175781,-0.94922 0.898437,-1.44922 2.050781,-1.42578 1.148438,0.0234 1.847656,0.55078 1.875,1.69922 l 0.02344,2.05078 c -0.02344,0.34766 0.300781,0.44922 0.625,0.375 v 0.67578 c -0.75,0.19922 -1.773438,0.125 -1.726563,-0.80078 z m -1.199219,0.0742 c 0.726563,0 1.074219,-0.60156 1.050782,-1.42578 -0.800782,0 -1.648438,-0.0742 -1.625,0.75 0,0.42578 0.199218,0.67578 0.574218,0.67578 z m 0,0"
         style="fill:#303030;fill-opacity:1;fill-rule:nonzero;stroke:none" />
      <path
         inkscape:connector-curvature="0"
         id="path269"
         d="m 92.132812,284.32422 c -0.898437,0.35156 -2.175781,0.17578 -2.175781,-1.05078 v -2.79688 h -0.597656 v -0.82422 h 0.675781 l 0.375,-1.125 h 0.773438 v 1.125 h 0.898437 v 0.82422 h -0.898437 v 2.47266 c -0.02344,0.57422 0.398437,0.77734 0.949218,0.625 z m 0,0"
         style="fill:#303030;fill-opacity:1;fill-rule:nonzero;stroke:none" />
      <path
         inkscape:connector-curvature="0"
         id="path271"
         d="m 96.859375,283.19922 c -0.328125,0.75 -0.925781,1.32422 -2.050781,1.30078 -1.5,-0.0508 -2.226563,-0.92578 -2.226563,-2.5 0,-1.57422 0.75,-2.44922 2.25,-2.44922 1.550781,0 2.074219,1.125 2.101563,2.69922 h -3.050782 c 0,0.77344 0.199219,1.375 0.976563,1.39844 0.449219,0 0.75,-0.17188 0.847656,-0.54688 z m -1.125,-1.72266 c 0.125,-1.15234 -1.425781,-1.57422 -1.75,-0.52734 -0.05078,0.15234 -0.101563,0.32422 -0.101563,0.52734 z m 0,0"
         style="fill:#303030;fill-opacity:1;fill-rule:nonzero;stroke:none" />
      <path
         inkscape:connector-curvature="0"
         id="path273"
         d="m 100.65625,280.94922 c 0.0273,-0.72266 -1.75,-0.84766 -1.773438,-0.0977 0.375,1.14844 2.949218,0.17188 2.972658,2.14844 0.0273,2.07422 -4.097658,1.89844 -4.296876,0.22656 l 1.074218,-0.17578 c 0.101563,0.47266 0.5,0.625 1.101563,0.625 0.824215,0.19922 1.421875,-0.75 0.597655,-1.02734 -1.074218,-0.34762 -2.55078,-0.2734 -2.597655,-1.6484 -0.05078,-2 3.847655,-1.84766 4.023435,-0.17578 z m 0,0"
         style="fill:#303030;fill-opacity:1;fill-rule:nonzero;stroke:none" />
      <path
         inkscape:connector-curvature="0"
         id="path275"
         d="m 45.796875,292.875 c 0,1.85156 0.550781,3.07422 1.324219,4.19922 h -1.25 c -0.75,-1.125 -1.296875,-2.32422 -1.296875,-4.19922 0,-1.875 0.546875,-3.07422 1.296875,-4.19922 h 1.25 c -0.796875,1.10156 -1.324219,2.35156 -1.324219,4.19922 z m 0,0"
         style="fill:#303030;fill-opacity:1;fill-rule:nonzero;stroke:none" />
      <path
         inkscape:connector-curvature="0"
         id="path277"
         d="M 47.695312,295.19922 V 289 h 4.875 v 1 h -3.574218 v 1.57422 h 3.300781 v 1 h -3.300781 v 1.625 h 3.75 v 1 z m 0,0"
         style="fill:#303030;fill-opacity:1;fill-rule:nonzero;stroke:none" />
      <path
         inkscape:connector-curvature="0"
         id="path279"
         d="m 57.644531,295.19922 -1.546875,-2.47266 -1.550781,2.47266 h -1.375 l 2.148437,-3.25 L 53.347656,289 h 1.375 l 1.375,2.19922 1.375,-2.19922 h 1.375 l -1.875,2.94922 2.046875,3.25 z m 0,0"
         style="fill:#303030;fill-opacity:1;fill-rule:nonzero;stroke:none" />
      <path
         inkscape:connector-curvature="0"
         id="path281"
         d="M 59.695312,295.19922 V 289 h 4.875 v 1 h -3.574218 v 1.57422 h 3.300781 v 1 h -3.300781 v 1.625 h 3.75 v 1 z m 0,0"
         style="fill:#303030;fill-opacity:1;fill-rule:nonzero;stroke:none" />
      <path
         inkscape:connector-curvature="0"
         id="path283"
         d="m 65.695312,289 c 3,-0.17578 5.574219,0.125 5.523438,3.05078 -0.02344,2 -1.097656,3.14844 -3.023438,3.14844 h -2.5 z m 1.300782,5.19922 c 1.847656,0.17578 2.921875,-0.44922 2.921875,-2.14844 0,-1.67578 -1.121094,-2.19922 -2.921875,-2.05078 z m 0,0"
         style="fill:#303030;fill-opacity:1;fill-rule:nonzero;stroke:none" />
      <path
         inkscape:connector-curvature="0"
         id="path285"
         d="m 75.070312,288.92578 c 2,0 3.125,1.125 3.125,3.14844 0,2.02734 -1.152343,3.22656 -3.152343,3.22656 -2.023438,0 -3.097657,-1.19922 -3.097657,-3.22656 0,-2.02344 1.097657,-3.14844 3.125,-3.14844 z m -0.02734,5.34766 c 1.300781,0 1.828125,-0.875 1.828125,-2.19922 0,-1.25 -0.527344,-2.14844 -1.800782,-2.14844 -1.300781,0 -1.824218,0.875 -1.824218,2.14844 0,1.27734 0.546875,2.19922 1.796875,2.19922 z m 0,0"
         style="fill:#303030;fill-opacity:1;fill-rule:nonzero;stroke:none" />
      <path
         inkscape:connector-curvature="0"
         id="path287"
         d="m 82.792969,290.65234 c -0.02344,-1.07812 -2.347657,-1.15234 -2.425781,-0.0781 0.453124,1.65234 3.777343,0.25 3.851562,2.85156 0.07422,2.375 -4.125,2.32422 -5.101562,0.89844 -0.148438,-0.19922 -0.25,-0.47266 -0.296876,-0.75 l 1.25,-0.19922 c 0.07422,1.14844 2.796876,1.39844 2.898438,0.125 -0.425781,-1.72656 -3.75,-0.25 -3.851562,-2.84766 -0.09766,-2.17578 3.828124,-2.20312 4.703124,-0.875 0.125,0.19922 0.199219,0.44922 0.25,0.69922 z m 0,0"
         style="fill:#303030;fill-opacity:1;fill-rule:nonzero;stroke:none" />
      <path
         inkscape:connector-curvature="0"
         id="path289"
         d="m 87.117188,292.875 c 0,1.85156 -0.550782,3.07422 -1.300782,4.19922 h -1.246094 c 0.75,-1.14844 1.347657,-2.32422 1.324219,-4.19922 0,-1.84766 -0.550781,-3.07422 -1.324219,-4.19922 h 1.246094 c 0.75,1.125 1.300782,2.35156 1.300782,4.19922 z m 0,0"
         style="fill:#303030;fill-opacity:1;fill-rule:nonzero;stroke:none" />
      <path
         inkscape:connector-curvature="0"
         id="path753"
         d="m 51.660156,304.15625 h -0.898437 v -0.49609 h 0.898437"
         style="fill:#5c5c5c;fill-opacity:1;fill-rule:nonzero;stroke:none" />
    </g>
    <g
       transform="translate(0,1.4667031)"
       id="g3095">
      <path
         inkscape:connector-curvature="0"
         id="path341"
         d="m 207.30657,108.56767 c 10.04352,0 18.19484,7.77055 18.19484,17.34206 0,9.61323 -8.15132,17.38378 -18.19484,17.38378 h -54.67445 c -10.04351,0 -18.19483,-7.77055 -18.19483,-17.38378 0,-9.57151 8.15132,-17.34206 18.19483,-17.34206 z m 0,0"
         style="fill:#c7e6ab;fill-opacity:1;fill-rule:nonzero;stroke:#5c5c5c;stroke-width:1.27415371;stroke-linecap:butt;stroke-linejoin:miter;stroke-miterlimit:4;stroke-opacity:1" />
      <g
         id="g2146"
         transform="translate(124.82287,-223.87032)">
        <path
           style="fill:#303030;fill-opacity:1;fill-rule:nonzero;stroke:none"
           d="m 25.960938,341.37891 c 0,1.94921 -2.101563,2.14843 -2.773438,3.52343 h 2.871094 v 1.02735 h -4.347656 c -0.148438,-2.52735 2.476562,-2.5 3,-4.5 0.02344,-0.55078 -0.300782,-0.77735 -0.824219,-0.80078 -0.574219,0 -0.800781,0.35156 -0.875,0.85156 l -1.226563,-0.0781 c 0.125,-1.125 0.800782,-1.75 2.101563,-1.75 1.273437,0 2.074219,0.55078 2.074219,1.72657 z m 0,0"
           id="path343"
           inkscape:connector-curvature="0" />
        <path
           style="fill:#303030;fill-opacity:1;fill-rule:nonzero;stroke:none"
           d="m 27.011719,339.73047 c 3,-0.17578 5.574219,0.125 5.523437,3.04687 -0.02344,2 -1.101562,3.15235 -3.023437,3.15235 h -2.5 z m 1.296875,5.19922 c 1.851562,0.17578 2.925781,-0.44922 2.925781,-2.15235 0,-1.67187 -1.125,-2.19922 -2.925781,-2.04687 z m 0,0"
           id="path345"
           inkscape:connector-curvature="0" />
        <path
           style="fill:#303030;fill-opacity:1;fill-rule:nonzero;stroke:none"
           d="m 37.285156,340.73047 v 1.92187 h 3.171875 v 1 h -3.171875 v 2.27735 h -1.300781 v -6.19922 h 4.574219 v 1 z m 0,0"
           id="path347"
           inkscape:connector-curvature="0" />
        <path
           style="fill:#303030;fill-opacity:1;fill-rule:nonzero;stroke:none"
           d="m 44.234375,342.17969 c -0.976563,-0.30078 -1.5,0.32422 -1.5,1.42578 v 2.32422 h -1.25 l -0.02734,-4.75 h 1.175781 c 0.05078,0.32422 -0.02344,0.72265 0.07422,1 0.152344,-0.69922 0.675781,-1.32422 1.527344,-1.02735 z m 0,0"
           id="path349"
           inkscape:connector-curvature="0" />
        <path
           style="fill:#303030;fill-opacity:1;fill-rule:nonzero;stroke:none"
           d="m 48.980469,344.73047 c -0.324219,0.75 -0.921875,1.32422 -2.046875,1.29687 -1.5,-0.0508 -2.226563,-0.92187 -2.226563,-2.5 0,-1.57422 0.75,-2.44922 2.25,-2.44922 1.550781,0 2.074219,1.125 2.101563,2.69922 h -3.050782 c 0,0.77735 0.199219,1.375 0.972657,1.40235 0.453125,0 0.75,-0.17578 0.851562,-0.55078 z m -1.125,-1.72656 c 0.125,-1.14844 -1.421875,-1.57422 -1.746094,-0.52344 -0.05078,0.14844 -0.101563,0.32422 -0.101563,0.52344 z m 0,0"
           id="path351"
           inkscape:connector-curvature="0" />
        <path
           style="fill:#303030;fill-opacity:1;fill-rule:nonzero;stroke:none"
           d="m 53.980469,344.73047 c -0.324219,0.75 -0.921875,1.32422 -2.046875,1.29687 -1.5,-0.0508 -2.226563,-0.92187 -2.226563,-2.5 0,-1.57422 0.75,-2.44922 2.25,-2.44922 1.550781,0 2.074219,1.125 2.097657,2.69922 h -3.046876 c 0,0.77735 0.199219,1.375 0.972657,1.40235 0.453125,0 0.75,-0.17578 0.851562,-0.55078 z m -1.125,-1.72656 c 0.125,-1.14844 -1.421875,-1.57422 -1.75,-0.52344 -0.04687,0.14844 -0.09766,0.32422 -0.09766,0.52344 z m 0,0"
           id="path353"
           inkscape:connector-curvature="0" />
        <path
           style="fill:#303030;fill-opacity:1;fill-rule:nonzero;stroke:none"
           d="m 57.433594,345.92969 v -6.19922 h 4.875 v 1 h -3.574219 v 1.57422 h 3.300781 v 1 h -3.300781 v 1.625 h 3.75 v 1 z m 0,0"
           id="path355"
           inkscape:connector-curvature="0" />
        <path
           style="fill:#303030;fill-opacity:1;fill-rule:nonzero;stroke:none"
           d="m 66.210938,341.07812 c 2.171874,-0.0234 1.449218,2.82422 1.574218,4.85157 h -1.25 c -0.175781,-1.42578 0.574219,-3.92578 -0.851562,-3.92578 -1.472656,0 -0.847656,2.42578 -0.972656,3.92578 h -1.25 l -0.02734,-4.75 h 1.175781 c 0.05078,0.30078 -0.02344,0.69922 0.07422,0.94922 0.300781,-0.64844 0.699218,-1.02344 1.527344,-1.05079 z m 0,0"
           id="path357"
           inkscape:connector-curvature="0" />
        <path
           style="fill:#303030;fill-opacity:1;fill-rule:nonzero;stroke:none"
           d="m 72.933594,344.73047 c -0.324219,0.75 -0.925782,1.32422 -2.050782,1.29687 -1.5,-0.0508 -2.222656,-0.92187 -2.222656,-2.5 0,-1.57422 0.75,-2.44922 2.25,-2.44922 1.546875,0 2.074219,1.125 2.097656,2.69922 h -3.050781 c 0,0.77735 0.203125,1.375 0.976563,1.40235 0.449218,0 0.75,-0.17578 0.851562,-0.55078 z m -1.125,-1.72656 c 0.125,-1.14844 -1.425782,-1.57422 -1.75,-0.52344 -0.05078,0.14844 -0.101563,0.32422 -0.101563,0.52344 z m 0,0"
           id="path359"
           inkscape:connector-curvature="0" />
        <path
           style="fill:#303030;fill-opacity:1;fill-rule:nonzero;stroke:none"
           d="m 76.683594,342.17969 c -0.976563,-0.30078 -1.5,0.32422 -1.5,1.42578 v 2.32422 h -1.25 l -0.02344,-4.75 h 1.171875 c 0.05078,0.32422 -0.02344,0.72265 0.07422,1 0.152344,-0.69922 0.675781,-1.32422 1.527344,-1.02735 z m 0,0"
           id="path361"
           inkscape:connector-curvature="0" />
        <path
           style="fill:#303030;fill-opacity:1;fill-rule:nonzero;stroke:none"
           d="m 81.683594,345.77734 c 0.273437,2.19922 -3,2.65235 -4.101563,1.30078 -0.09766,-0.14843 -0.148437,-0.32421 -0.199219,-0.52343 l 1.226563,-0.15235 c 0.07422,0.40235 0.398437,0.60157 0.847656,0.625 1,0 1.050781,-0.92578 1,-1.97265 -0.273437,0.55078 -0.75,0.875 -1.523437,0.875 -1.324219,0 -1.75,-1.07422 -1.75,-2.42578 0,-1.39844 0.449218,-2.39844 1.824218,-2.42579 0.75,0 1.148438,0.35157 1.476563,0.85157 l 0.04687,-0.75 h 1.175781 z m -2.25,-0.72265 c 0.800781,0 1.023437,-0.67578 1.023437,-1.57422 0,-0.875 -0.222656,-1.55078 -1,-1.55078 -0.800781,0 -0.972656,0.72265 -1,1.57422 0,0.89843 0.226563,1.55078 0.976563,1.55078 z m 0,0"
           id="path363"
           inkscape:connector-curvature="0" />
        <path
           style="fill:#303030;fill-opacity:1;fill-rule:nonzero;stroke:none"
           d="m 85.355469,346.17969 c -0.375,1.07422 -1.074219,1.89843 -2.597657,1.54687 v -0.875 c 0.875,0.20313 1.324219,-0.27344 1.472657,-0.97265 l -1.871094,-4.69922 h 1.296875 l 1.199219,3.69922 c 0.300781,-1.30079 0.703125,-2.5 1.101562,-3.69922 h 1.273438 z m 0,0"
           id="path365"
           inkscape:connector-curvature="0" />
        <path
           style="fill:#303030;fill-opacity:1;fill-rule:nonzero;stroke:none"
           d="m 13.8125,356.72656 v -6.19922 h 1.300781 v 5.20313 H 18.4375 v 0.99609 z m 0,0"
           id="path367"
           inkscape:connector-curvature="0" />
        <path
           style="fill:#303030;fill-opacity:1;fill-rule:nonzero;stroke:none"
           d="m 22.011719,355.87891 c -0.402344,0.47656 -0.75,0.97265 -1.601563,0.94921 -0.921875,-0.0234 -1.449218,-0.5 -1.449218,-1.44921 -0.02344,-1.5 1.375,-1.57422 2.898437,-1.52344 0.02734,-0.65235 -0.07422,-1.17578 -0.699219,-1.17578 -0.449218,0.0234 -0.648437,0.22265 -0.699218,0.67578 l -1.300782,-0.0508 c 0.175782,-0.94922 0.902344,-1.44922 2.050782,-1.42578 1.148437,0.0234 1.851562,0.55078 1.875,1.69921 l 0.02344,2.05079 c -0.02344,0.35156 0.300781,0.44921 0.625,0.375 v 0.67578 c -0.75,0.19922 -1.773437,0.125 -1.722656,-0.80078 z m -1.199219,0.0742 c 0.722656,0 1.074219,-0.59765 1.046875,-1.42578 -0.796875,0 -1.648437,-0.0742 -1.625,0.75 0,0.42578 0.203125,0.67578 0.578125,0.67578 z m 0,0"
           id="path369"
           inkscape:connector-curvature="0" />
        <path
           style="fill:#303030;fill-opacity:1;fill-rule:nonzero;stroke:none"
           d="m 27.0625,351.87891 c 2.171875,-0.0234 1.449219,2.82421 1.574219,4.84765 h -1.25 c -0.175781,-1.42187 0.574219,-3.92187 -0.851563,-3.92187 -1.472656,0 -0.847656,2.42578 -0.972656,3.92187 h -1.25 l -0.02734,-4.74609 h 1.175782 c 0.05078,0.29687 -0.02344,0.69922 0.07422,0.94922 0.300782,-0.65235 0.699219,-1.02735 1.527344,-1.05078 z m 0,0"
           id="path371"
           inkscape:connector-curvature="0" />
        <path
           style="fill:#303030;fill-opacity:1;fill-rule:nonzero;stroke:none"
           d="m 31.359375,351.87891 c 0.777344,-0.0234 1.152344,0.375 1.449219,0.85156 l -0.02344,-2.52735 h 1.25 l 0.02344,6.52344 h -1.199219 c -0.05078,-0.24609 0,-0.57422 -0.07422,-0.77344 -0.273437,0.57422 -0.726562,0.875 -1.523437,0.875 -1.300781,0 -1.703125,-1.125 -1.726563,-2.47265 0,-1.40235 0.476563,-2.42578 1.82422,-2.47656 z m 0.425781,4.10156 c 0.824219,0 1,-0.75 1.023438,-1.65235 0.02734,-0.92578 -0.222656,-1.59765 -1.023438,-1.59765 -0.800781,0 -0.949218,0.75 -0.976562,1.625 0,1.07422 0.328125,1.625 0.976562,1.625 z m 0,0"
           id="path373"
           inkscape:connector-curvature="0" />
        <path
           style="fill:#303030;fill-opacity:1;fill-rule:nonzero;stroke:none"
           d="m 38.058594,353.27734 c 0.02734,-0.72265 -1.75,-0.84765 -1.773438,-0.0976 0.375,1.14843 2.949219,0.17578 2.972656,2.14843 0.02734,2.07422 -4.097656,1.89844 -4.296874,0.22657 l 1.074218,-0.17578 c 0.09766,0.47656 0.5,0.625 1.097656,0.625 0.828126,0.19921 1.425782,-0.75 0.601563,-1.02344 -1.074219,-0.35156 -2.550781,-0.27735 -2.597656,-1.65235 -0.05078,-2 3.847656,-1.84765 4.023437,-0.17578 z m 0,0"
           id="path375"
           inkscape:connector-curvature="0" />
        <path
           style="fill:#303030;fill-opacity:1;fill-rule:nonzero;stroke:none"
           d="m 44.382812,355.15234 c -0.175781,1.05078 -0.949218,1.67578 -2.148437,1.67578 -1.476563,0 -2.101563,-0.94921 -2.25,-2.44921 -0.300781,-2.75 3.847656,-3.42579 4.347656,-0.89844 l -1.222656,0.0469 c -0.05078,-0.47265 -0.375,-0.79687 -0.875,-0.79687 -0.75,0 -0.875,0.69922 -0.949219,1.59765 -0.152344,1.85157 1.625,2.17579 1.847656,0.75 z m 0,0"
           id="path377"
           inkscape:connector-curvature="0" />
        <path
           style="fill:#303030;fill-opacity:1;fill-rule:nonzero;stroke:none"
           d="m 47.957031,355.87891 c -0.398437,0.47656 -0.75,0.97265 -1.597656,0.94921 -0.925781,-0.0234 -1.449219,-0.5 -1.449219,-1.44921 -0.02734,-1.5 1.375,-1.57422 2.898438,-1.52344 0.02344,-0.65235 -0.07422,-1.17578 -0.699219,-1.17578 -0.449219,0.0234 -0.652344,0.22265 -0.699219,0.67578 l -1.300781,-0.0508 c 0.175781,-0.94922 0.898437,-1.44922 2.050781,-1.42578 1.148438,0.0234 1.847656,0.55078 1.875,1.69921 l 0.02344,2.05079 c -0.02344,0.35156 0.300781,0.44921 0.625,0.375 v 0.67578 c -0.75,0.19922 -1.773438,0.125 -1.726563,-0.80078 z m -1.199219,0.0742 c 0.726563,0 1.074219,-0.59765 1.050782,-1.42578 -0.800782,0 -1.648438,-0.0742 -1.625,0.75 0,0.42578 0.199218,0.67578 0.574218,0.67578 z m 0,0"
           id="path379"
           inkscape:connector-curvature="0" />
        <path
           style="fill:#303030;fill-opacity:1;fill-rule:nonzero;stroke:none"
           d="m 53.007812,351.87891 c 1.324219,0 1.75,1.10156 1.75,2.44921 0,1.40235 -0.476562,2.44922 -1.824218,2.5 -0.777344,0.0234 -1.125,-0.42578 -1.476563,-0.84765 0.07422,0.82422 0.05078,1.72265 0.05078,2.62109 h -1.25 l -0.02344,-6.62109 h 1.199219 c 0.05078,0.25 0,0.57422 0.07422,0.77344 0.273438,-0.60157 0.726563,-0.875 1.5,-0.875 z m -0.523437,4.10156 c 0.824219,0 0.972656,-0.77735 1,-1.65235 0,-0.94921 -0.226563,-1.59765 -1,-1.59765 -1.402344,0 -1.375,3.25 0,3.25 z m 0,0"
           id="path381"
           inkscape:connector-curvature="0" />
        <path
           style="fill:#303030;fill-opacity:1;fill-rule:nonzero;stroke:none"
           d="m 59.730469,355.52734 c -0.324219,0.75 -0.921875,1.32422 -2.046875,1.30078 -1.5,-0.0508 -2.226563,-0.92578 -2.226563,-2.5 0,-1.57421 0.75,-2.44921 2.25,-2.44921 1.550781,0 2.074219,1.125 2.101563,2.69921 h -3.050782 c 0,0.77735 0.199219,1.375 0.976563,1.40235 0.449219,0 0.75,-0.17578 0.847656,-0.55078 z m -1.121094,-1.72265 c 0.125,-1.15235 -1.425781,-1.57422 -1.75,-0.52735 -0.05078,0.15235 -0.101563,0.32813 -0.101563,0.52735 z m 0,0"
           id="path383"
           inkscape:connector-curvature="0" />
        <path
           style="fill:#303030;fill-opacity:1;fill-rule:nonzero;stroke:none"
           d="m 63.53125,353.27734 c 0.02734,-0.72265 -1.75,-0.84765 -1.773438,-0.0976 0.375,1.14843 2.949219,0.17578 2.972657,2.14843 0.02734,2.07422 -4.097657,1.89844 -4.296875,0.22657 l 1.074218,-0.17578 c 0.09766,0.47656 0.5,0.625 1.097657,0.625 0.828125,0.19921 1.425781,-0.75 0.601562,-1.02344 -1.074219,-0.35156 -2.550781,-0.27735 -2.601562,-1.65235 -0.04687,-2 3.851562,-1.84765 4.027343,-0.17578 z m 0,0"
           id="path385"
           inkscape:connector-curvature="0" />
        <path
           style="fill:#303030;fill-opacity:1;fill-rule:nonzero;stroke:none"
           d="m 69.265625,354.40234 c 0,1.85157 0.550781,3.07422 1.324219,4.19922 h -1.25 c -0.75,-1.125 -1.300782,-2.32422 -1.300782,-4.19922 0,-1.875 0.550782,-3.07422 1.300782,-4.19922 h 1.25 c -0.800782,1.10157 -1.324219,2.35157 -1.324219,4.19922 z m 0,0"
           id="path387"
           inkscape:connector-curvature="0" />
        <path
           style="fill:#303030;fill-opacity:1;fill-rule:nonzero;stroke:none"
           d="m 72.464844,351.52734 v 1.92578 h 3.175781 v 1 h -3.175781 v 2.27344 h -1.300782 v -6.19922 h 4.574219 v 1 z m 0,0"
           id="path389"
           inkscape:connector-curvature="0" />
        <path
           style="fill:#303030;fill-opacity:1;fill-rule:nonzero;stroke:none"
           d="m 76.640625,356.72656 v -6.19922 h 4.871094 v 1 H 77.9375 v 1.57813 h 3.300781 v 1 H 77.9375 v 1.625 h 3.75 v 0.99609 z m 0,0"
           id="path391"
           inkscape:connector-curvature="0" />
        <path
           style="fill:#303030;fill-opacity:1;fill-rule:nonzero;stroke:none"
           d="m 82.636719,356.72656 v -6.19922 H 83.9375 v 5.20313 h 3.324219 v 0.99609 z m 0,0"
           id="path393"
           inkscape:connector-curvature="0" />
        <path
           style="fill:#303030;fill-opacity:1;fill-rule:nonzero;stroke:none"
           d="m 90.9375,353.27734 c 0.02344,-0.72265 -1.75,-0.84765 -1.773438,-0.0976 0.375,1.14843 2.949219,0.17578 2.972657,2.14843 0.02734,2.07422 -4.097657,1.89844 -4.296875,0.22657 l 1.074218,-0.17578 c 0.09766,0.47656 0.5,0.625 1.097657,0.625 0.824219,0.19921 1.425781,-0.75 0.601562,-1.02344 -1.074219,-0.35156 -2.550781,-0.27735 -2.601562,-1.65235 -0.04687,-2 3.851562,-1.84765 4.027343,-0.17578 z m 0,0"
           id="path395"
           inkscape:connector-curvature="0" />
        <path
           style="fill:#303030;fill-opacity:1;fill-rule:nonzero;stroke:none"
           d="m 95.0625,354.40234 c 0,1.85157 -0.550781,3.07422 -1.300781,4.19922 h -1.25 c 0.75,-1.14844 1.351562,-2.32422 1.324219,-4.19922 0,-1.84765 -0.546876,-3.07422 -1.324219,-4.19922 h 1.25 c 0.75,1.125 1.300781,2.35157 1.300781,4.19922 z m 0,0"
           id="path397"
           inkscape:connector-curvature="0" />
        <path
           style="fill:#5c5c5c;fill-opacity:1;fill-rule:nonzero;stroke:none"
           d="m 96.480469,336.82422 h -0.08984 L 95.625,335.92578 h 0.855469"
           id="path765"
           inkscape:connector-curvature="0" />
      </g>
    </g>
    <g
       transform="translate(-31.781238,72.276687)"
       id="g3031">
      <path
         inkscape:connector-curvature="0"
         id="path3027"
         d="M 80.078643,29.910103 H 214.1901"
         style="fill:#5c5c5c;fill-opacity:1;fill-rule:evenodd;stroke:#5c5c5c;stroke-width:1.27499998;stroke-linecap:butt;stroke-linejoin:miter;stroke-miterlimit:4;stroke-dasharray:none;stroke-opacity:1" />
      <path
         style="fill:none;fill-rule:evenodd;stroke:#5c5c5c;stroke-width:1.27499998;stroke-linecap:butt;stroke-linejoin:miter;stroke-miterlimit:4;stroke-dasharray:none;stroke-opacity:1;marker-end:url(#marker2643)"
         d="m 213.58155,30.093221 v 4.621407"
         id="path3029"
         inkscape:connector-curvature="0"
         sodipodi:nodetypes="cc" />
    </g>
  </g>
</svg>
