<?xml version="1.0" encoding="UTF-8" standalone="no"?>
<!-- Created with Inkscape (http://www.inkscape.org/) -->

<svg
   width="3in"
   height="1.75in"
   viewBox="0 0 76.200001 44.45"
   version="1.1"
   id="svg5"
   inkscape:version="1.2 (dc2aedaf03, 2022-05-15)"
   sodipodi:docname="fig-ToC.svg"
   xmlns:inkscape="http://www.inkscape.org/namespaces/inkscape"
   xmlns:sodipodi="http://sodipodi.sourceforge.net/DTD/sodipodi-0.dtd"
   xmlns="http://www.w3.org/2000/svg"
   xmlns:svg="http://www.w3.org/2000/svg">
  <sodipodi:namedview
     id="namedview7"
     pagecolor="#ffffff"
     bordercolor="#000000"
     borderopacity="0.25"
     inkscape:showpageshadow="2"
     inkscape:pageopacity="0.0"
     inkscape:pagecheckerboard="0"
     inkscape:deskcolor="#d1d1d1"
     inkscape:document-units="mm"
     showgrid="false"
     inkscape:zoom="3.3638608"
     inkscape:cx="119.50554"
     inkscape:cy="112.22224"
     inkscape:window-width="2400"
     inkscape:window-height="1494"
     inkscape:window-x="-11"
     inkscape:window-y="-11"
     inkscape:window-maximized="1"
     inkscape:current-layer="layer1" />
  <defs
     id="defs2">
    <marker
       style="overflow:visible"
       id="EmptyTriangleIn"
       refX="0"
       refY="0"
       orient="auto-start-reverse"
       inkscape:stockid="EmptyTriangleIn"
       markerWidth="10"
       markerHeight="11.560694"
       viewBox="0 0 5.8241121 6.7330776"
       inkscape:isstock="true"
       inkscape:collect="always"
       preserveAspectRatio="xMidYMid">
      <path
         transform="scale(0.5)"
         style="fill:context-fill;fill-rule:evenodd;stroke:context-stroke;stroke-width:2"
         d="M 5.77,0 -2.88,5 V -5 Z"
         id="path153" />
    </marker>
    <inkscape:path-effect
       effect="simplify"
       id="path-effect1517"
       is_visible="true"
       steps="1"
       threshold="0.0001"
       smooth_angles="360"
       helper_size="0"
       simplify_individual_paths="false"
       simplify_just_coalesce="false"
       simplifyindividualpaths="false"
       simplifyJustCoalesce="false"
       lpeversion="0" />
    <inkscape:path-effect
       effect="simplify"
       id="path-effect1526"
       is_visible="true"
       steps="1"
       threshold="0.0001"
       smooth_angles="360"
       helper_size="0"
       simplify_individual_paths="false"
       simplify_just_coalesce="false"
       simplifyindividualpaths="false"
       simplifyJustCoalesce="false"
       lpeversion="0" />
    <inkscape:path-effect
       effect="simplify"
       id="path-effect1530"
       is_visible="true"
       steps="1"
       threshold="0.0001"
       smooth_angles="360"
       helper_size="0"
       simplify_individual_paths="false"
       simplify_just_coalesce="false"
       simplifyindividualpaths="false"
       simplifyJustCoalesce="false"
       lpeversion="0" />
    <inkscape:path-effect
       effect="simplify"
       id="path-effect1534"
       is_visible="true"
       steps="1"
       threshold="0.0001"
       smooth_angles="360"
       helper_size="0"
       simplify_individual_paths="false"
       simplify_just_coalesce="false"
       simplifyindividualpaths="false"
       simplifyJustCoalesce="false"
       lpeversion="0" />
    <inkscape:path-effect
       effect="simplify"
       id="path-effect1538"
       is_visible="true"
       steps="1"
       threshold="0.0001"
       smooth_angles="360"
       helper_size="0"
       simplify_individual_paths="false"
       simplify_just_coalesce="false"
       simplifyindividualpaths="false"
       simplifyJustCoalesce="false"
       lpeversion="0" />
    <inkscape:path-effect
       effect="simplify"
       id="path-effect1542"
       is_visible="true"
       steps="1"
       threshold="0.0001"
       smooth_angles="360"
       helper_size="0"
       simplify_individual_paths="false"
       simplify_just_coalesce="false"
       simplifyindividualpaths="false"
       simplifyJustCoalesce="false"
       lpeversion="0" />
    <inkscape:path-effect
       simplifyJustCoalesce="false"
       simplifyindividualpaths="false"
       simplify_just_coalesce="false"
       simplify_individual_paths="false"
       helper_size="0"
       smooth_angles="360"
       threshold="0.0001"
       steps="1"
       is_visible="true"
       id="path-effect1563"
       effect="simplify"
       lpeversion="0" />
    <inkscape:path-effect
       effect="simplify"
       id="path-effect918"
       is_visible="true"
       steps="1"
       threshold="0.0001"
       smooth_angles="360"
       helper_size="0"
       simplify_individual_paths="false"
       simplify_just_coalesce="false"
       simplifyindividualpaths="false"
       simplifyJustCoalesce="false"
       lpeversion="0" />
    <inkscape:path-effect
       effect="simplify"
       id="path-effect940"
       is_visible="true"
       steps="1"
       threshold="0.0001"
       smooth_angles="360"
       helper_size="0"
       simplify_individual_paths="false"
       simplify_just_coalesce="false"
       simplifyindividualpaths="false"
       simplifyJustCoalesce="false"
       lpeversion="0" />
    <inkscape:path-effect
       effect="simplify"
       id="path-effect944"
       is_visible="true"
       steps="1"
       threshold="0.0001"
       smooth_angles="360"
       helper_size="0"
       simplify_individual_paths="false"
       simplify_just_coalesce="false"
       simplifyindividualpaths="false"
       simplifyJustCoalesce="false"
       lpeversion="0" />
    <inkscape:path-effect
       effect="simplify"
       id="path-effect918-0"
       is_visible="true"
       steps="1"
       threshold="0.0001"
       smooth_angles="360"
       helper_size="0"
       simplify_individual_paths="false"
       simplify_just_coalesce="false"
       simplifyindividualpaths="false"
       simplifyJustCoalesce="false"
       lpeversion="0" />
    <inkscape:path-effect
       effect="simplify"
       id="path-effect940-6"
       is_visible="true"
       steps="1"
       threshold="0.0001"
       smooth_angles="360"
       helper_size="0"
       simplify_individual_paths="false"
       simplify_just_coalesce="false"
       simplifyindividualpaths="false"
       simplifyJustCoalesce="false"
       lpeversion="0" />
    <inkscape:path-effect
       effect="simplify"
       id="path-effect944-4"
       is_visible="true"
       steps="1"
       threshold="0.0001"
       smooth_angles="360"
       helper_size="0"
       simplify_individual_paths="false"
       simplify_just_coalesce="false"
       simplifyindividualpaths="false"
       simplifyJustCoalesce="false"
       lpeversion="0" />
    <inkscape:path-effect
       effect="simplify"
       id="path-effect918-4"
       is_visible="true"
       steps="1"
       threshold="0.0001"
       smooth_angles="360"
       helper_size="0"
       simplify_individual_paths="false"
       simplify_just_coalesce="false"
       simplifyindividualpaths="false"
       simplifyJustCoalesce="false"
       lpeversion="0" />
    <inkscape:path-effect
       effect="simplify"
       id="path-effect940-4"
       is_visible="true"
       steps="1"
       threshold="0.0001"
       smooth_angles="360"
       helper_size="0"
       simplify_individual_paths="false"
       simplify_just_coalesce="false"
       simplifyindividualpaths="false"
       simplifyJustCoalesce="false"
       lpeversion="0" />
    <inkscape:path-effect
       effect="simplify"
       id="path-effect944-3"
       is_visible="true"
       steps="1"
       threshold="0.0001"
       smooth_angles="360"
       helper_size="0"
       simplify_individual_paths="false"
       simplify_just_coalesce="false"
       simplifyindividualpaths="false"
       simplifyJustCoalesce="false"
       lpeversion="0" />
    <marker
       style="overflow:visible"
       id="EmptyTriangleIn-7"
       refX="0"
       refY="0"
       orient="auto-start-reverse"
       inkscape:stockid="EmptyTriangleIn"
       markerWidth="10"
       markerHeight="11.560694"
       viewBox="0 0 5.8241121 6.7330776"
       inkscape:isstock="true"
       inkscape:collect="always"
       preserveAspectRatio="xMidYMid">
      <path
         transform="scale(0.5)"
         style="fill:context-fill;fill-rule:evenodd;stroke:context-stroke;stroke-width:2"
         d="M 5.77,0 -2.88,5 V -5 Z"
         id="path153-5" />
    </marker>
    <inkscape:path-effect
       effect="simplify"
       id="path-effect918-4-4"
       is_visible="true"
       steps="1"
       threshold="0.0001"
       smooth_angles="360"
       helper_size="0"
       simplify_individual_paths="false"
       simplify_just_coalesce="false"
       simplifyindividualpaths="false"
       simplifyJustCoalesce="false"
       lpeversion="0" />
    <inkscape:path-effect
       effect="simplify"
       id="path-effect940-4-1"
       is_visible="true"
       steps="1"
       threshold="0.0001"
       smooth_angles="360"
       helper_size="0"
       simplify_individual_paths="false"
       simplify_just_coalesce="false"
       simplifyindividualpaths="false"
       simplifyJustCoalesce="false"
       lpeversion="0" />
    <inkscape:path-effect
       effect="simplify"
       id="path-effect944-3-1"
       is_visible="true"
       steps="1"
       threshold="0.0001"
       smooth_angles="360"
       helper_size="0"
       simplify_individual_paths="false"
       simplify_just_coalesce="false"
       simplifyindividualpaths="false"
       simplifyJustCoalesce="false"
       lpeversion="0" />
    <inkscape:path-effect
       effect="simplify"
       id="path-effect918-4-45"
       is_visible="true"
       steps="1"
       threshold="0.0001"
       smooth_angles="360"
       helper_size="0"
       simplify_individual_paths="false"
       simplify_just_coalesce="false"
       simplifyindividualpaths="false"
       simplifyJustCoalesce="false"
       lpeversion="0" />
    <inkscape:path-effect
       effect="simplify"
       id="path-effect940-4-3"
       is_visible="true"
       steps="1"
       threshold="0.0001"
       smooth_angles="360"
       helper_size="0"
       simplify_individual_paths="false"
       simplify_just_coalesce="false"
       simplifyindividualpaths="false"
       simplifyJustCoalesce="false"
       lpeversion="0" />
    <inkscape:path-effect
       effect="simplify"
       id="path-effect944-3-6"
       is_visible="true"
       steps="1"
       threshold="0.0001"
       smooth_angles="360"
       helper_size="0"
       simplify_individual_paths="false"
       simplify_just_coalesce="false"
       simplifyindividualpaths="false"
       simplifyJustCoalesce="false"
       lpeversion="0" />
  </defs>
  <g
     inkscape:label="Layer 1"
     inkscape:groupmode="layer"
     id="layer1"
     transform="translate(-9.3132258e-8,-7.1871649)">
    <g
       id="g4917"
       transform="matrix(1.1308405,0,0,1.1365679,-24.651557,-216.11837)"
       style="stroke:#000000;stroke-width:1.14669;stroke-opacity:1">
      <g
         style="stroke:#000000;stroke-width:0.930656;stroke-opacity:1"
         id="g1020"
         transform="matrix(1.2312684,0,0,1.2329845,-5.0620595,-55.233403)">
        <path
           style="fill:none;fill-rule:evenodd;stroke:#000000;stroke-width:0.246236px;stroke-linecap:butt;stroke-linejoin:miter;stroke-opacity:1"
           inkscape:path-effect="#path-effect1517"
           inkscape:original-d="m 23.653677,217.58418 c 0.527088,0.0694 1.065692,-0.15629 1.585836,0.24139 0.520144,0.39768 0.546475,1.62755 0.595312,2.28283 0.04884,0.65528 -0.07983,0.6034 -0.268938,1.43294 -0.189106,0.82954 -0.07728,1.18343 0.699073,1.25402 0.776352,0.0706 1.267827,0.1331 1.743486,-0.0275 0.475659,-0.1606 0.458946,-0.6434 0.846894,-0.78053 0.387948,-0.13713 0.96091,-0.15005 1.21232,-0.007 0.25141,0.14305 0.357163,0.2256 0.297834,0.42274"
           id="path1515"
           d="m 23.653677,217.58418 c 0.14603,0.0192 0.293793,0.0158 0.440572,0.009 0.163752,-0.007 0.327951,-0.0182 0.491781,-0.006 0.120091,0.009 0.239672,0.0309 0.352988,0.0723 0.112812,0.0412 0.218967,0.10069 0.312596,0.17575 0.0844,0.0677 0.15186,0.15431 0.206312,0.24725 0.0684,0.11676 0.118459,0.24341 0.158183,0.37248 0.05529,0.17964 0.09196,0.36449 0.119721,0.55021 0.04527,0.30283 0.06644,0.60855 0.086,0.91391 0.0049,0.0757 0.01072,0.15138 0.01565,0.22711 0.0075,0.11515 0.01153,0.23089 0.0025,0.34609 -0.0062,0.0795 -0.02054,0.15831 -0.04145,0.23527 -0.0249,0.0917 -0.0559,0.1815 -0.08496,0.2719 -0.0457,0.14216 -0.08635,0.28595 -0.121519,0.43107 -0.03916,0.16157 -0.0755,0.32432 -0.09428,0.48967 -0.01167,0.10273 -0.0173,0.2068 -0.0062,0.30983 0.0089,0.0822 0.0296,0.164 0.06908,0.2371 0.03339,0.0618 0.08113,0.11545 0.137409,0.15738 0.0725,0.054 0.157058,0.0896 0.243476,0.11454 0.114147,0.033 0.232466,0.0483 0.350549,0.059 0.213268,0.0193 0.426354,0.0411 0.640006,0.0558 0.181261,0.0125 0.363258,0.0205 0.544867,0.0109 0.151081,-0.008 0.302079,-0.0287 0.447607,-0.0707 0.05522,-0.0159 0.110282,-0.0332 0.16255,-0.0574 0.07685,-0.0356 0.146532,-0.0858 0.206363,-0.14561 0.07263,-0.0726 0.129709,-0.15866 0.185787,-0.24423 0.0533,-0.0813 0.106749,-0.16376 0.176121,-0.23263 0.05191,-0.0515 0.113456,-0.0941 0.18201,-0.11997 0.05582,-0.0211 0.113153,-0.038 0.171056,-0.0522 0.135795,-0.0334 0.274903,-0.0531 0.414528,-0.0602 0.12256,-0.006 0.245984,-0.004 0.367465,0.0143 0.07724,0.0116 0.154105,0.0292 0.226379,0.0594 0.03938,0.0164 0.07581,0.0389 0.112361,0.0607 0.05265,0.0314 0.10524,0.0636 0.152138,0.10326 0.03675,0.0311 0.0702,0.0684 0.08757,0.11404 0.01734,0.0456 0.0148,0.096 0.0038,0.1428 -0.0021,0.009 -0.0046,0.0181 -0.0073,0.027"
           inkscape:connector-curvature="0"
           sodipodi:nodetypes="czzzzzzzc" />
        <path
           style="fill:none;fill-rule:evenodd;stroke:#000000;stroke-width:0.246236px;stroke-linecap:butt;stroke-linejoin:miter;stroke-opacity:1"
           inkscape:path-effect="#path-effect1526"
           inkscape:original-d="m 28.499564,218.36219 c -0.275287,0.31009 -0.428554,0.71537 -0.49542,1.11723 -0.0732,0.43991 -0.07978,0.93258 0.117074,1.33274 0.178493,0.36285 0.783838,0.43214 0.8925,0.82164 0.101182,0.36269 -0.15057,0.74606 -0.314981,1.0848 -0.183693,0.37847 -0.822926,0.61506 -0.734484,1.02635 0.08812,0.4098 0.712793,0.44351 1.087484,0.63141 0.072,0.0361 0.09359,0.16697 0.222213,0.0949"
           id="path1524"
           d="m 28.499564,218.36219 c -0.128745,0.14494 -0.231477,0.31187 -0.310358,0.48865 -0.08929,0.20011 -0.149216,0.41263 -0.185062,0.62858 -0.03117,0.1878 -0.04958,0.37815 -0.04688,0.56865 0.0023,0.1631 0.02001,0.32658 0.06121,0.48464 0.02586,0.0992 0.06005,0.19668 0.107007,0.2879 0.03621,0.0703 0.08975,0.13035 0.149604,0.18147 0.07374,0.063 0.156388,0.11423 0.239387,0.16391 0.0921,0.0551 0.186099,0.10767 0.272303,0.17191 0.0646,0.0481 0.124843,0.10376 0.169767,0.17117 0.03199,0.048 0.05324,0.10251 0.06564,0.15879 0.01928,0.0875 0.01854,0.17855 0.0044,0.26676 -0.01774,0.11042 -0.05481,0.21674 -0.09874,0.31923 -0.0681,0.15888 -0.153476,0.30946 -0.229074,0.46475 -0.03535,0.0726 -0.08528,0.13703 -0.139917,0.19607 -0.07665,0.0828 -0.162505,0.15633 -0.246957,0.23095 -0.06999,0.0618 -0.140181,0.12392 -0.202515,0.19364 -0.04691,0.0525 -0.08971,0.10961 -0.118835,0.17403 -0.02342,0.0518 -0.03644,0.10871 -0.03443,0.1657 0.0021,0.0598 0.01866,0.11886 0.04646,0.17174 0.03279,0.0624 0.08224,0.11471 0.138274,0.15687 0.0671,0.0505 0.142689,0.0883 0.220036,0.12034 0.111988,0.0463 0.228144,0.0814 0.343536,0.11803 0.09729,0.0309 0.195548,0.0603 0.288442,0.10289 0.02424,0.0111 0.05007,0.0198 0.07186,0.0353 0.04067,0.0289 0.06162,0.0803 0.10817,0.10156 0.03341,0.0152 0.07108,0.003 0.101095,-0.0145"
           inkscape:connector-curvature="0"
           sodipodi:nodetypes="caaaaaac" />
        <path
           style="fill:none;fill-rule:evenodd;stroke:#000000;stroke-width:0.246236px;stroke-linecap:butt;stroke-linejoin:miter;stroke-opacity:1"
           inkscape:path-effect="#path-effect1530"
           inkscape:original-d="m 22.148223,220.62449 c 0.586416,-0.0937 1.092406,0.42662 1.351384,0.90235 0.178937,0.32861 -0.102356,0.76771 0.01683,1.12241 0.118507,0.35283 0.322409,0.74505 0.660775,0.90012 0.487083,0.22322 1.103078,-0.31953 1.60247,-0.12544 0.484689,0.18837 0.917025,0.64149 1.064902,1.14002 0.01255,0.0432 0.03778,0.1162 -0.02342,0.13291"
           id="path1528"
           d="m 22.148223,220.62449 c 0.106047,-0.0171 0.215105,-0.0139 0.320278,0.008 0.123769,0.0254 0.241506,0.0759 0.349204,0.14144 0.125368,0.0763 0.238087,0.17216 0.338819,0.27858 0.110917,0.11718 0.209174,0.24646 0.291671,0.38506 0.02205,0.0371 0.04472,0.0739 0.06325,0.11284 0.0306,0.0643 0.04503,0.13533 0.04853,0.20619 0.0046,0.0926 -0.0074,0.18502 -0.02199,0.27628 -0.01891,0.11827 -0.04372,0.23601 -0.05044,0.35586 -0.0046,0.0819 -0.0014,0.16563 0.02359,0.24411 0.01708,0.0536 0.03639,0.10645 0.05715,0.15871 0.05404,0.13605 0.11891,0.26842 0.201176,0.38975 0.06822,0.10061 0.148691,0.19401 0.244945,0.26878 0.05689,0.0442 0.118978,0.0822 0.185728,0.10948 0.07352,0.0301 0.153044,0.0437 0.232267,0.0449 0.09757,0.001 0.194524,-0.0143 0.289247,-0.0366 0.185476,-0.0435 0.364419,-0.11096 0.550325,-0.15276 0.0953,-0.0214 0.192856,-0.0362 0.29079,-0.0332 0.07597,0.002 0.15174,0.0167 0.222594,0.0446 0.159045,0.0626 0.30744,0.15104 0.441338,0.25701 0.151962,0.12027 0.286332,0.263 0.395857,0.42292 0.09503,0.13875 0.175161,0.2898 0.220283,0.45203 0.0091,0.0326 0.02251,0.0664 0.01594,0.10074 -0.0029,0.0149 -0.01306,0.0282 -0.02713,0.0342 0,0 -0.005,0.002 -0.005,0.002 0,0 -0.0055,0.002 -0.0055,0.002"
           inkscape:connector-curvature="0"
           sodipodi:nodetypes="caaaaac" />
        <path
           style="fill:none;fill-rule:evenodd;stroke:#000000;stroke-width:0.246236px;stroke-linecap:butt;stroke-linejoin:miter;stroke-opacity:1"
           inkscape:path-effect="#path-effect1534"
           inkscape:original-d="m 27.466741,219.60616 c -0.41807,-0.1574 -0.874611,-0.0644 -1.304146,0.003 -0.442535,0.069 -1.044613,0.0257 -1.280738,0.40625 -0.215062,0.34662 0.274333,0.81111 0.186522,1.20946 -0.09733,0.44155 -0.366614,0.89167 -0.751207,1.12941 -0.323218,0.19981 -0.751323,0.1365 -1.131295,0.1404 -0.417706,0.004 -1.242481,0.28893 -1.246547,-0.12878 -3.98e-4,-0.006 0.01747,-0.002 0.01747,-0.002"
           id="path1532"
           d="m 27.466741,219.60616 c -0.117139,-0.0442 -0.240915,-0.0694 -0.365512,-0.08 -0.150751,-0.0128 -0.302484,-0.005 -0.45263,0.0115 -0.166318,0.0182 -0.331003,0.0483 -0.496405,0.0731 -0.123371,0.0185 -0.247811,0.0281 -0.371911,0.0402 -0.12892,0.0126 -0.258099,0.0265 -0.3847,0.0546 -0.0936,0.0208 -0.186157,0.0492 -0.27169,0.0931 -0.07005,0.0359 -0.134906,0.0832 -0.186983,0.1425 -0.02449,0.0279 -0.04655,0.0581 -0.06462,0.0905 -0.02772,0.0497 -0.04238,0.10621 -0.04506,0.16298 -0.0034,0.072 0.01041,0.14364 0.03051,0.21245 0.02671,0.0914 0.06386,0.17929 0.09976,0.26736 0.03626,0.089 0.07257,0.17835 0.09658,0.27154 0.01943,0.0754 0.03073,0.15401 0.02202,0.23183 -0.0045,0.0405 -0.01487,0.0801 -0.02523,0.11945 -0.04545,0.17268 -0.114309,0.33922 -0.204239,0.49347 -0.08532,0.14635 -0.189688,0.28224 -0.313789,0.39783 -0.07075,0.0659 -0.147544,0.12571 -0.230904,0.1748 -0.09117,0.0537 -0.192807,0.0877 -0.296368,0.10786 -0.128097,0.0249 -0.259046,0.0302 -0.389244,0.0299 -0.146799,-2.7e-4 -0.29353,-0.01 -0.44032,-0.006 -0.0768,0.002 -0.153216,0.0106 -0.229257,0.021 -0.165506,0.0226 -0.329928,0.0536 -0.49635,0.069 -0.07647,0.007 -0.153526,0.0118 -0.230232,0.006 -0.05132,-0.004 -0.102863,-0.0121 -0.150915,-0.0312 -0.04515,-0.018 -0.08604,-0.0499 -0.108157,-0.0941 -0.01543,-0.0308 -0.02148,-0.0655 -0.02177,-0.0998 0,0 0.0026,-0.003 0.0026,-0.003 0.005,-9.8e-4 0.01002,-1.5e-4 0.01491,8.4e-4"
           inkscape:connector-curvature="0"
           sodipodi:nodetypes="caaaaaac" />
        <path
           style="fill:none;fill-rule:evenodd;stroke:#000000;stroke-width:0.246236px;stroke-linecap:butt;stroke-linejoin:miter;stroke-opacity:1"
           inkscape:path-effect="#path-effect1538"
           inkscape:original-d="m 26.437871,216.30165 c -0.203656,0.24456 -0.507298,0.39532 -0.810785,0.42175 -0.350467,0.0305 -0.672064,-0.42731 -1.006382,-0.31782 -0.214485,0.0702 -0.3586,0.32445 -0.399942,0.54633 -0.06595,0.35397 0.237246,0.68554 0.281345,1.04288 0.04839,0.3921 0.305871,0.96354 -0.02126,1.18505 -0.272767,0.18471 -0.636056,-0.19045 -0.92406,-0.35036 -0.29594,-0.16435 -0.479163,-0.6973 -0.807686,-0.61564 -0.309941,0.0771 -0.353736,0.55419 -0.401371,0.86999 -0.0015,0.01 0.001,0.0207 0.0041,0.0305 0.0033,0.0106 0.01491,0.0299 0.01491,0.0299"
           id="path1536"
           d="m 26.437871,216.30165 c -0.11354,0.13637 -0.259406,0.24487 -0.420755,0.31822 -0.123008,0.0559 -0.255363,0.0916 -0.39003,0.10353 -0.06302,0.006 -0.12652,-0.005 -0.186368,-0.0247 -0.07499,-0.0245 -0.145171,-0.0613 -0.213599,-0.10014 -0.08533,-0.0484 -0.168167,-0.10148 -0.256724,-0.14395 -0.05899,-0.0283 -0.120972,-0.052 -0.185987,-0.0617 -0.05188,-0.008 -0.105539,-0.005 -0.155871,0.0103 -0.06407,0.0194 -0.122114,0.0557 -0.171385,0.10055 -0.05959,0.0543 -0.107648,0.12042 -0.145546,0.19133 -0.04047,0.0757 -0.06975,0.15731 -0.08777,0.24126 -0.01152,0.0537 -0.01476,0.10903 -0.01075,0.16379 0.0063,0.0862 0.02955,0.17026 0.05898,0.25123 0.05477,0.1507 0.130253,0.29306 0.182048,0.44491 0.02201,0.0645 0.03948,0.13085 0.04799,0.1986 0.01086,0.0865 0.02947,0.17176 0.04872,0.2567 0.02775,0.12247 0.05826,0.24452 0.07702,0.36879 0.01187,0.0786 0.01964,0.15836 0.01485,0.23791 -0.0039,0.0641 -0.01652,0.12851 -0.04454,0.18671 -0.02352,0.0488 -0.0593,0.0914 -0.102399,0.1243 -0.0374,0.0286 -0.08148,0.0485 -0.127991,0.0564 -0.05475,0.009 -0.111098,0.002 -0.164097,-0.013 -0.06569,-0.0189 -0.127555,-0.0491 -0.186682,-0.083 -0.103636,-0.0595 -0.20015,-0.13015 -0.298616,-0.19758 -0.05482,-0.0375 -0.110985,-0.0731 -0.168499,-0.10647 -0.05823,-0.0338 -0.108967,-0.079 -0.155509,-0.12724 -0.09405,-0.0976 -0.172656,-0.20857 -0.26417,-0.30838 -0.04218,-0.046 -0.08707,-0.0902 -0.138916,-0.12533 -0.04175,-0.0283 -0.08899,-0.0497 -0.139255,-0.0568 -0.0465,-0.007 -0.09415,7.2e-4 -0.138039,0.0169 -0.04878,0.0179 -0.09238,0.0484 -0.128023,0.0861 -0.04501,0.0475 -0.07825,0.10497 -0.104139,0.16475 -0.03446,0.0796 -0.05727,0.16364 -0.07536,0.24828 -0.02543,0.119 -0.04503,0.23923 -0.05873,0.36005 -0.0025,0.0219 0.0082,0.0422 0.01901,0.0604"
           inkscape:connector-curvature="0"
           sodipodi:nodetypes="caaaaaaaaac" />
        <path
           style="fill:none;fill-rule:evenodd;stroke:#000000;stroke-width:0.246236px;stroke-linecap:butt;stroke-linejoin:miter;stroke-opacity:1"
           inkscape:path-effect="#path-effect1542"
           inkscape:original-d="m 29.066254,216.35625 c -0.381064,0.19068 -0.685078,0.49189 -0.995595,0.77575 -0.255002,0.23311 -0.631995,0.42019 -0.707682,0.7573 -0.06122,0.27268 0.04265,0.61754 0.255629,0.7985 0.276141,0.23462 0.732749,0.27819 1.075247,0.15988 0.136695,-0.0472 0.309588,-0.1709 0.298262,-0.31508 -0.03442,-0.43815 -0.641368,-0.62992 -1.044818,-0.80425 -0.357934,-0.15466 -0.784277,-0.0648 -1.15487,-0.18603 -0.381184,-0.1247 -0.837759,-0.22165 -1.071299,-0.5477 -0.178068,-0.24861 -0.231611,-0.61849 -0.132494,-0.90778 0.09,-0.26267 0.376685,-0.41296 0.600499,-0.57729 0.103766,-0.0762 0.178674,-0.22267 0.338742,-0.18547"
           id="path1540"
           d="m 29.066254,216.35625 c -0.156532,0.0783 -0.302191,0.17669 -0.439654,0.28463 -0.186883,0.14674 -0.360473,0.30927 -0.534117,0.47113 -0.03943,0.0368 -0.08037,0.0718 -0.122341,0.10563 -0.114881,0.0925 -0.236183,0.17725 -0.345714,0.2763 -0.06815,0.0616 -0.131993,0.12914 -0.181581,0.20686 -0.03804,0.0596 -0.06651,0.12561 -0.08128,0.1949 -0.01985,0.0932 -0.02048,0.18988 -0.0065,0.2839 0.01608,0.10833 0.05091,0.21411 0.104185,0.30987 0.04415,0.0794 0.10173,0.15182 0.172446,0.20919 0.08782,0.0713 0.190651,0.1226 0.298146,0.15675 0.126196,0.0401 0.259133,0.0579 0.391387,0.0556 0.123589,-0.002 0.247182,-0.0215 0.364591,-0.0606 0.05909,-0.0197 0.11522,-0.0484 0.165477,-0.0852 0.03997,-0.0292 0.07682,-0.0637 0.104207,-0.1052 0.02345,-0.0355 0.03956,-0.0777 0.03702,-0.12072 -0.004,-0.068 -0.02364,-0.13481 -0.0555,-0.19495 -0.03772,-0.0712 -0.09152,-0.13268 -0.151824,-0.18559 -0.07047,-0.0618 -0.1495,-0.11317 -0.231283,-0.15864 -0.117032,-0.0651 -0.239873,-0.11885 -0.363316,-0.1704 -0.08388,-0.035 -0.167904,-0.0697 -0.25169,-0.10499 -0.09783,-0.0412 -0.202183,-0.0647 -0.307076,-0.079 -0.201635,-0.0276 -0.406112,-0.0238 -0.607702,-0.0519 -0.08154,-0.0114 -0.162249,-0.0291 -0.240638,-0.0545 -0.179255,-0.0581 -0.361663,-0.10731 -0.536986,-0.17698 -0.109345,-0.0434 -0.216228,-0.0949 -0.313054,-0.16221 -0.08121,-0.0565 -0.154662,-0.12496 -0.212311,-0.20559 -0.06578,-0.092 -0.112678,-0.19676 -0.142426,-0.30565 -0.03375,-0.12353 -0.04653,-0.25299 -0.03562,-0.38063 0.0068,-0.0796 0.02224,-0.15875 0.04991,-0.23373 0.02521,-0.0683 0.06508,-0.13052 0.112475,-0.18554 0.05943,-0.069 0.129788,-0.12754 0.202609,-0.18178 0.09189,-0.0685 0.188959,-0.12959 0.281053,-0.19774 0.04385,-0.0324 0.07986,-0.0738 0.119821,-0.11063 0.03005,-0.0277 0.06311,-0.0533 0.101536,-0.0683 0.03724,-0.0145 0.07871,-0.0159 0.117385,-0.007"
           inkscape:connector-curvature="0"
           sodipodi:nodetypes="caaaaaaaaaac" />
        <path
           sodipodi:nodetypes="caaaaaaaaac"
           inkscape:connector-curvature="0"
           d="m 30.270053,216.73794 c 0.0604,0.17205 0.07803,0.35826 0.05549,0.53898 -0.01612,0.12924 -0.05287,0.25601 -0.109576,0.37334 -0.02753,0.057 -0.06937,0.10593 -0.116867,0.14726 -0.0618,0.0538 -0.132276,0.0963 -0.203408,0.13638 -0.08532,0.0481 -0.173215,0.092 -0.254582,0.14679 -0.05621,0.0378 -0.109739,0.0813 -0.150958,0.13552 -0.03131,0.0412 -0.05375,0.0892 -0.06454,0.13988 -0.01414,0.0664 -0.01047,0.13573 0.0049,0.20159 0.01878,0.0806 0.0537,0.1569 0.09806,0.22653 0.04489,0.0704 0.09933,0.13491 0.161871,0.19034 0.05564,0.0493 0.121562,0.086 0.190919,0.11224 0.08746,0.0331 0.179753,0.0508 0.271969,0.0645 0.132824,0.0197 0.267163,0.0305 0.398373,0.06 0.06393,0.0144 0.126462,0.0348 0.186724,0.0608 0.08376,0.0361 0.170464,0.0646 0.257112,0.0928 0.115964,0.0377 0.232765,0.0736 0.345435,0.12053 0.07304,0.0304 0.14485,0.0651 0.209768,0.11064 0.05232,0.0367 0.100095,0.0814 0.13426,0.13582 0.02895,0.0461 0.04568,0.0994 0.05048,0.15367 0.0041,0.0462 -0.0029,0.0934 -0.02072,0.13622 -0.02145,0.0515 -0.05736,0.0957 -0.09836,0.1329 -0.05304,0.0482 -0.114019,0.0866 -0.176691,0.12089 -0.127456,0.0697 -0.262337,0.12406 -0.393067,0.18706 -0.03627,0.0175 -0.07063,0.0386 -0.106453,0.0569 -0.06309,0.0323 -0.131832,0.0517 -0.200885,0.0664 -0.126637,0.0269 -0.256124,0.0375 -0.382752,0.0644 -0.06311,0.0134 -0.12612,0.0305 -0.183915,0.0598 -0.04474,0.0227 -0.0858,0.0541 -0.115251,0.0951 -0.03021,0.0421 -0.04677,0.0929 -0.05175,0.14419 -0.0055,0.0566 0.0052,0.11395 0.02591,0.16666 0.02556,0.0651 0.0646,0.12395 0.108607,0.17789 0.06108,0.0749 0.131534,0.14147 0.204293,0.2048 0.07004,0.061 0.139945,0.12233 0.214605,0.17749 0.01764,0.013 0.0404,0.015 0.06159,0.0151"
           id="path1561"
           inkscape:original-d="m 30.270053,216.73794 c 0.105393,0.3003 0.07897,0.63828 -0.05409,0.91232 -0.153671,0.31645 -0.711637,0.35754 -0.789226,0.70067 -0.04981,0.22011 0.09445,0.47428 0.26367,0.62362 0.269964,0.23826 0.710138,0.14818 1.039468,0.2937 0.361367,0.15969 0.983958,0.23194 1.006203,0.62638 0.01856,0.3289 -0.489866,0.44819 -0.774909,0.61332 -0.292927,0.16966 -0.844376,0.0534 -0.942876,0.3773 -0.09288,0.30558 0.294127,0.588 0.540729,0.79094 0.0078,0.006 0.01828,0.01 0.02828,0.0121 0.01079,0.003 0.03331,0.003 0.03331,0.003"
           inkscape:path-effect="#path-effect1563"
           style="fill:none;fill-rule:evenodd;stroke:#000000;stroke-width:0.246236px;stroke-linecap:butt;stroke-linejoin:miter;stroke-opacity:1" />
      </g>
    </g>
    <g
       id="g12013"
       transform="translate(0,-3.7041668)">
      <path
         style="fill:none;fill-rule:evenodd;stroke:#000000;stroke-width:0.343957px;stroke-linecap:butt;stroke-linejoin:miter;stroke-opacity:1"
         inkscape:path-effect="#path-effect918-4"
         inkscape:original-d="m 32.181222,50.208625 c -0.176237,-0.572303 -0.980954,-2.835804 -0.900507,-3.46188 -0.0023,-1.544128 -5.32e-4,-3.088273 -0.0011,-4.632401 0.203199,-0.654219 0.04576,-1.366904 0.238462,-2.01643 0.28698,-0.570929 0.024,-1.819175 0.530267,-1.870785 m 1.167961,0.111299 c 0.613267,-0.02632 0.521044,2.802851 0.521044,2.802851 l 0.02546,1.750635 -0.751283,1.870953 0.681928,2.429277 c 0,0 6e-5,1.912003 2.2e-5,2.868004 m 2.248301,0.280712 c 0.210013,-1.438041 -0.115363,-0.230443 0.165568,-2.119784 0.08216,-0.589383 -0.852442,-1.797082 -0.852442,-1.797082 l 0.533953,-2.012022 c 0,0 -0.82442,-1.144655 -0.915373,-1.756919 -0.09808,-0.482745 1.386115,-1.07627 1.230802,-1.529698 -0.196473,-1.042376 -1.080392,-2.080209 -1.040829,-3.150778"
         id="path916-6"
         d="m 32.181222,50.208625 c -0.05671,-0.181844 -0.11737,-0.362427 -0.176842,-0.54338 -0.172591,-0.525137 -0.343464,-1.051161 -0.489481,-1.584404 -0.07162,-0.261555 -0.140289,-0.524358 -0.18884,-0.791277 -0.02447,-0.13453 -0.04146,-0.270407 -0.05042,-0.407054 -0.0042,-0.06354 0.0051,-0.126584 0.005,-0.190051 -0.0022,-1.526037 -0.454497,-3.121011 -0.001,-4.578115 0.06718,-0.215849 0.09518,-0.441593 0.109148,-0.666548 0.01993,-0.320828 0.01161,-0.643481 0.05118,-0.962979 0.01618,-0.130679 0.01939,-0.26895 0.07814,-0.386903 0.05524,-0.110932 0.08609,-0.232206 0.107523,-0.353683 0.03603,-0.204261 0.04779,-0.411674 0.06313,-0.618225 0.01159,-0.155994 0.02154,-0.312678 0.05061,-0.466574 0.01706,-0.09028 0.03923,-0.180992 0.08177,-0.263007 0.02989,-0.05763 0.07299,-0.110775 0.131391,-0.141313 0.0297,-0.01553 0.06254,-0.02465 0.09584,-0.02798 m 1.167961,0.111299 c 0.04983,-0.0027 0.09884,0.01678 0.13712,0.04803 0.05567,0.04544 0.0945,0.107867 0.125218,0.17191 0.0552,0.115113 0.09038,0.238685 0.118191,0.362884 0.04989,0.222787 0.07866,0.449751 0.099,0.676943 0.0324,0.362019 0.04474,0.725588 0.0463,1.08896 6.56e-4,0.15257 -0.0069,0.305126 -0.0047,0.457679 0.0085,0.58236 0.242437,1.206605 0.02541,1.74708 -0.250428,0.623651 -0.932916,1.22391 -0.751283,1.870953 0.227309,0.809759 0.681906,1.588219 0.681928,2.429277 2.5e-5,0.956001 5.1e-5,1.912003 2.2e-5,2.868004 m 2.248301,0.280712 c 0.02604,-0.180943 0.05309,-0.361982 0.06732,-0.544289 0.0064,-0.08228 0.01237,-0.165175 0.0047,-0.247576 -0.0052,-0.05584 -0.02035,-0.110216 -0.02457,-0.166227 -0.0068,-0.08984 -0.0015,-0.180068 0.0059,-0.269676 0.01666,-0.203729 0.04559,-0.406184 0.07147,-0.608893 0.01357,-0.106281 0.03748,-0.211459 0.0445,-0.318351 0.0068,-0.103194 -0.0116,-0.206377 -0.03908,-0.305447 -0.04416,-0.159209 -0.110016,-0.311557 -0.184049,-0.458919 -0.115863,-0.230626 -0.250733,-0.451283 -0.395306,-0.664901 -0.07638,-0.112854 -0.272633,-0.200863 -0.237676,-0.332587 0.177984,-0.670674 0.935631,-1.446216 0.533953,-2.012022 -0.117898,-0.166072 -0.230497,-0.335912 -0.337987,-0.50889 -0.136808,-0.220158 -0.267717,-0.444552 -0.378852,-0.678871 -0.06638,-0.139959 -0.127661,-0.283146 -0.169012,-0.432695 -0.01445,-0.05226 -0.0274,-0.10524 -0.03297,-0.159172 -0.0068,-0.0655 0.01518,-0.130445 0.04698,-0.186824 0.04638,-0.08221 0.110167,-0.153058 0.177517,-0.21849 0.120096,-0.116676 0.252481,-0.21963 0.383988,-0.322929 0.134461,-0.105619 0.271522,-0.208678 0.395838,-0.326319 0.06834,-0.06467 0.135093,-0.132823 0.184688,-0.213273 0.03227,-0.05235 0.05679,-0.111948 0.0566,-0.174493 -1.16e-4,-0.03894 -0.01315,-0.07575 -0.02107,-0.113519 -0.05748,-0.274052 -0.156729,-0.537256 -0.26744,-0.793741 -0.177441,-0.411078 -0.387518,-0.80789 -0.547277,-1.22658 -0.0961,-0.251863 -0.174344,-0.512672 -0.20451,-0.781334 -0.01119,-0.09962 -0.01561,-0.200062 -0.01189,-0.300265"
         inkscape:connector-curvature="0"
         sodipodi:nodetypes="cccccccccccccccccc" />
      <path
         style="fill:none;fill-rule:evenodd;stroke:#000000;stroke-width:0.343957px;stroke-linecap:butt;stroke-linejoin:miter;stroke-opacity:1"
         inkscape:path-effect="#path-effect940-4"
         inkscape:original-d="m 38.401467,38.820586 c 3e-5,0.573929 -0.133602,1.643696 -0.370996,2.591383 -0.22437,0.895692 -1.109413,1.670462 -1.109363,2.212912 0.300631,0.797266 0.721041,1.665267 0.750295,2.497112 0.03016,0.465933 0.09537,0.926484 0.06742,1.399272 8.76e-4,0.562011 -0.0027,1.124023 -4.9e-4,1.686035 0.358512,0.541361 0.702539,1.510654 1.129423,1.255386 m 0.688228,-0.66855 c 0.573527,-0.292262 0.395838,-1.627318 0.331386,-2.221446 0.0037,-0.540053 -0.746271,-1.080174 -0.746293,-1.620311 -3.1e-5,-0.797701 1.082394,-1.595453 1.083826,-2.393121 0.287978,-0.963041 -0.992762,-1.710055 -0.770795,-2.680186 0.101959,-0.390973 0.167905,-0.9088 0.716806,-0.736018 m 1.278139,-1.022513 c -0.486239,0.296385 -0.24569,0.513821 0.267134,0.996599 0.02401,0.711445 0.528885,2.172467 0.642646,2.880106 -0.02143,0.627015 -0.701361,1.246084 -0.60065,1.86274 0.0969,0.729799 0.336466,1.447579 0.290045,2.194106 -0.01,1.527165 -0.295972,2.661967 -0.298952,4.189467"
         id="path938-1"
         d="m 38.401467,38.820586 c -4.71e-4,0.205937 -0.01431,0.411627 -0.03364,0.616566 -0.03596,0.381195 -0.08988,0.760624 -0.158224,1.137317 -0.05226,0.288032 -0.109971,0.575361 -0.184512,0.858471 -0.0626,0.237765 -0.168637,0.461649 -0.289766,0.674745 -0.148208,0.260734 -0.322525,0.505181 -0.485119,0.756873 -0.08693,0.134561 -0.173182,0.270529 -0.239354,0.416724 -0.04373,0.09661 -0.08396,0.198384 -0.08831,0.305077 -7.87e-4,0.01932 -0.0016,0.03804 0.0056,0.05722 0.177687,0.468056 0.380164,0.927087 0.532561,1.404448 0.09333,0.292336 0.167806,0.592101 0.198871,0.897999 0.0063,0.06213 0.0084,0.124585 0.01251,0.186885 0.0247,0.374487 0.07146,0.747851 0.07345,1.123584 4.68e-4,0.0883 -0.0069,0.176466 -0.0067,0.264769 8.76e-4,0.562012 -0.309497,1.216593 -4.9e-4,1.686035 0.10248,0.155687 0.190431,0.320232 0.280256,0.483365 0.08871,0.161102 0.175904,0.323643 0.28044,0.475184 0.05842,0.08469 0.121064,0.167915 0.198851,0.235865 0.05297,0.04627 0.114749,0.08584 0.184938,0.09911 0.05796,0.01095 0.118325,-0.0021 0.169964,-0.02966 0.0051,-0.0027 0.01005,-0.0055 0.01497,-0.0085 m 0.688228,-0.66855 c 0.08828,-0.04454 0.160067,-0.117012 0.212872,-0.199872 0.06999,-0.10983 0.111923,-0.235112 0.139592,-0.361629 0.04032,-0.184361 0.05383,-0.373529 0.05586,-0.561867 0.0037,-0.342956 -0.02108,-0.685995 -0.06892,-1.025168 -0.0061,-0.04313 -0.0065,-0.08656 -0.01036,-0.129869 -0.01072,-0.120347 -0.05457,-0.23511 -0.109451,-0.341764 -0.0779,-0.151375 -0.176662,-0.290539 -0.27311,-0.430389 -0.09314,-0.135047 -0.187763,-0.270175 -0.260282,-0.417748 -0.05161,-0.105034 -0.0936,-0.217754 -0.09989,-0.335473 -0.0054,-0.100952 0.0088,-0.202301 0.03479,-0.299725 0.04585,-0.172077 0.12551,-0.332998 0.215066,-0.486109 0.183673,-0.314022 0.410473,-0.600553 0.591578,-0.916127 0.08635,-0.150457 0.163707,-0.308119 0.207186,-0.476748 0.02124,-0.08237 0.0093,-0.170881 0.03399,-0.25239 0.04168,-0.137661 0.05192,-0.284137 0.03325,-0.426651 -0.02331,-0.178019 -0.08837,-0.347675 -0.167614,-0.507743 -0.150761,-0.304542 -0.351406,-0.58152 -0.498012,-0.888259 -0.07752,-0.162201 -0.139292,-0.334434 -0.158405,-0.514138 -0.01352,-0.127157 -0.002,-0.256329 0.02945,-0.380395 0.0359,-0.141773 0.06519,-0.286195 0.120906,-0.421918 0.03383,-0.0824 0.07838,-0.162904 0.145297,-0.223237 0.0522,-0.04707 0.119327,-0.07632 0.189012,-0.08485 0.08505,-0.01041 0.171074,0.0056 0.252122,0.03099 m 1.278139,-1.022513 c -0.07048,0.04339 -0.139655,0.09132 -0.194351,0.15412 -0.03816,0.04382 -0.06695,0.09844 -0.0698,0.157478 -0.0032,0.06529 0.02327,0.127945 0.0571,0.182327 0.04935,0.07934 0.112292,0.14906 0.177153,0.215857 0.09591,0.09877 0.291902,0.149281 0.297039,0.286817 0.0058,0.154057 0.02849,0.306945 0.05645,0.458347 0.05162,0.27952 0.120067,0.555584 0.191256,0.830658 0.09512,0.367557 0.199638,0.732676 0.290017,1.101449 0.03973,0.162126 0.110687,0.322746 0.10492,0.489652 -0.0052,0.14917 -0.04693,0.294546 -0.10213,0.432324 -0.0866,0.216149 -0.204045,0.417838 -0.306547,0.626469 -0.07198,0.146501 -0.138937,0.297142 -0.175776,0.456787 -0.02617,0.11341 -0.0316,0.231344 -0.0162,0.34716 0.06854,0.515416 0.206499,1.019087 0.266988,1.535765 0.02556,0.218291 0.02433,0.438361 0.02306,0.658341 -0.0027,0.463761 -0.0333,0.926922 -0.07771,1.388429 -0.05873,0.610388 -0.138649,1.218725 -0.183338,1.830455 -0.02359,0.322972 -0.03736,0.646724 -0.03791,0.970583"
         inkscape:connector-curvature="0"
         sodipodi:nodetypes="cscccccccsccccccccc" />
      <path
         style="fill:none;fill-rule:evenodd;stroke:#000000;stroke-width:0.343957px;stroke-linecap:butt;stroke-linejoin:miter;stroke-opacity:1"
         inkscape:path-effect="#path-effect944-3"
         inkscape:original-d="m 43.839672,50.585937 c -0.109236,-0.667025 -0.232267,-1.337436 -0.195179,-2.016447 -0.700568,-0.433983 -0.732784,-2.430634 -0.0098,-2.854946 0.01066,-1.47698 0.294504,-0.844015 0.296835,-2.321866 1.512172,-0.360027 -0.598816,-2.106781 -0.149149,-2.3512 0.332105,-0.429274 -1.036879,-2.320073 -0.573293,-2.388176 m 2.938271,0.85729 c 0.412067,0.0084 -0.5129,1.515851 -0.477247,1.789523 0.800055,1.055875 0.82748,2.04151 -0.0038,2.949082 -0.28205,0.917203 -0.67984,1.834406 -0.106089,2.751609 0,0 -0.223507,3.00262 -0.220127,3.191024"
         id="path942-8"
         d="m 43.839672,50.585937 c -0.07258,-0.443265 -0.151051,-0.886485 -0.18494,-1.334845 -0.01714,-0.226699 0.182968,-0.561616 -0.01024,-0.681602 -0.109231,-0.06784 -0.194963,-0.167859 -0.261616,-0.276636 -0.09052,-0.147725 -0.151199,-0.312003 -0.193463,-0.479447 -0.06028,-0.238818 -0.08637,-0.485794 -0.08362,-0.731856 0.0026,-0.229254 0.02809,-0.459325 0.08915,-0.680629 0.04276,-0.154977 0.102077,-0.307114 0.191449,-0.441456 0.06476,-0.09734 0.247239,-0.127278 0.248304,-0.244922 0.002,-0.215544 0.0079,-0.431477 0.03226,-0.645805 0.01529,-0.134608 0.04018,-0.268434 0.08046,-0.397948 0.03128,-0.100588 0.06955,-0.198956 0.09672,-0.300842 0.0468,-0.175481 0.06542,-0.357048 0.07588,-0.537884 0.0085,-0.146297 -0.130916,-0.405049 0.01152,-0.439387 0.12125,-0.02923 0.241783,-0.07105 0.345119,-0.142461 0.0744,-0.05141 0.136869,-0.121815 0.172355,-0.205665 0.03941,-0.09313 0.04369,-0.197461 0.02909,-0.296453 -0.01967,-0.133355 -0.06764,-0.260775 -0.124492,-0.38231 -0.09804,-0.209575 -0.222398,-0.405224 -0.343948,-0.60164 -0.07473,-0.120765 -0.152407,-0.240247 -0.215057,-0.367859 -0.03005,-0.06121 -0.05931,-0.124138 -0.07171,-0.191587 -0.0073,-0.03956 -0.0084,-0.08336 0.0125,-0.119248 0.01097,-0.01884 0.03374,-0.02682 0.04699,-0.04398 0.03607,-0.04669 0.04947,-0.10667 0.05192,-0.16452 0.0039,-0.09172 -0.01289,-0.182976 -0.03566,-0.271396 -0.04108,-0.159519 -0.100396,-0.313635 -0.16354,-0.465523 -0.117149,-0.281794 -0.25292,-0.555431 -0.370382,-0.837064 -0.04807,-0.115265 -0.09635,-0.231188 -0.127397,-0.352348 -0.01467,-0.05726 -0.02641,-0.116085 -0.02464,-0.175576 0.0014,-0.04567 0.02096,-0.09568 0.06679,-0.113999 0.0095,-0.0038 0.01951,-0.0063 0.02962,-0.0078 m 2.938271,0.85729 c 0.03979,-0.0013 0.07882,0.02219 0.09348,0.06031 0.01535,0.03992 0.01455,0.08381 0.0098,0.125578 -0.0099,0.08606 -0.03419,0.169736 -0.06171,0.251585 -0.05543,0.164815 -0.124068,0.324773 -0.193546,0.484044 -0.07846,0.17987 -0.162327,0.357477 -0.234766,0.539896 -0.03017,0.07599 -0.06139,0.152155 -0.07982,0.231949 -0.0073,0.03142 -0.03029,0.07018 -0.01063,0.09616 0.179036,0.236579 0.336876,0.491291 0.449006,0.766654 0.09423,0.231393 0.153494,0.4785 0.160301,0.728888 0.006,0.219823 -0.03116,0.44023 -0.105405,0.647126 -0.08902,0.248073 -0.229706,0.475129 -0.396455,0.678273 -0.03589,0.04373 -0.09464,0.07406 -0.111247,0.128141 -0.107542,0.350181 -0.231396,0.69596 -0.313804,1.05335 -0.05679,0.246297 -0.09273,0.499092 -0.08373,0.752393 0.0076,0.212981 0.04994,0.424924 0.128008,0.623412 0.04417,0.112315 0.172341,0.202124 0.163433,0.322454 -0.05841,0.789031 -0.117434,1.578029 -0.17057,2.367434 -0.01623,0.241149 -0.035,0.482176 -0.04606,0.723624 -0.0015,0.0333 -0.0035,0.06662 -0.0035,0.09997"
         inkscape:connector-curvature="0"
         sodipodi:nodetypes="ccccccccccc" />
    </g>
    <g
       id="g11696"
       transform="matrix(1.6651737,0,0,1.6761956,-48.492782,-348.47718)"
       style="stroke:#000000;stroke-width:0.778127;stroke-opacity:1">
      <path
         style="fill:#3d65a5;fill-opacity:1;stroke:#000000;stroke-width:0.205905;stroke-dasharray:none;stroke-dashoffset:0;stroke-opacity:1"
         d="m 67.750149,221.91021 0.0047,7.06889"
         id="path11587"
         sodipodi:nodetypes="cc" />
      <path
         style="fill:#3d65a5;fill-opacity:1;stroke:#000000;stroke-width:0.205905;stroke-dasharray:none;stroke-dashoffset:0;stroke-opacity:1"
         d="m 70.091798,221.91021 0.0047,7.06889"
         id="path11587-75"
         sodipodi:nodetypes="cc" />
      <path
         style="fill:#3d65a5;fill-opacity:1;stroke:#000000;stroke-width:0.205905;stroke-dasharray:none;stroke-dashoffset:0;stroke-opacity:1"
         d="m 71.262622,221.91021 0.0047,7.06889"
         id="path11587-8"
         sodipodi:nodetypes="cc" />
      <path
         style="fill:#3d65a5;fill-opacity:1;stroke:#000000;stroke-width:0.205905;stroke-dasharray:none;stroke-dashoffset:0;stroke-opacity:1"
         d="m 72.433446,221.91021 0.0047,7.06889"
         id="path11587-9"
         sodipodi:nodetypes="cc" />
      <path
         style="fill:#3d65a5;fill-opacity:1;stroke:#000000;stroke-width:0.205905;stroke-dasharray:none;stroke-dashoffset:0;stroke-opacity:1"
         d="m 73.604271,221.91021 0.0047,7.06889"
         id="path11587-4"
         sodipodi:nodetypes="cc" />
      <path
         style="fill:#3d65a5;fill-opacity:1;stroke:#000000;stroke-width:0.205905;stroke-dasharray:none;stroke-dashoffset:0;stroke-opacity:1"
         d="m 74.775095,221.91021 0.0047,7.06889"
         id="path11587-0"
         sodipodi:nodetypes="cc" />
      <path
         style="fill:#3d65a5;fill-opacity:1;stroke:#000000;stroke-width:0.205905;stroke-dasharray:none;stroke-dashoffset:0;stroke-opacity:1"
         d="m 68.920973,221.91021 0.0047,7.06889"
         id="path11587-01"
         sodipodi:nodetypes="cc" />
    </g>
    <g
       id="g968-3-8"
       transform="matrix(1.6651737,0,0,1.6761956,-28.190284,-344.6947)"
       style="stroke:#000000;stroke-width:0.778127;stroke-opacity:1">
      <g
         transform="translate(0.05708793,0.17279538)"
         id="g961-4-1"
         style="stroke:#000000;stroke-width:0.778127;stroke-opacity:1" />
    </g>
    <path
       style="fill:none;fill-opacity:1;stroke:#3d65a5;stroke-width:0.499999;stroke-dasharray:none;stroke-dashoffset:0;stroke-opacity:1;marker-end:url(#EmptyTriangleIn)"
       d="m 8.4947034,22.603478 c 0,0 25.0121816,-11.247617 29.9674256,-11.404926 4.955243,-0.157309 24.146981,9.989142 24.146981,9.989142"
       id="path11223"
       sodipodi:nodetypes="csc" />
    <path
       style="fill:none;fill-opacity:1;stroke:#e57a77;stroke-width:0.499999;stroke-dasharray:none;stroke-dashoffset:0;stroke-opacity:1;marker-end:url(#EmptyTriangleIn-7)"
       d="m 9.2565973,36.703301 c 6.3797357,3.196988 10.2652487,4.250783 17.3033347,4.262203"
       id="path11223-3"
       sodipodi:nodetypes="cc" />
    <path
       style="fill:none;fill-opacity:1;stroke:#e57a77;stroke-width:0.499999;stroke-dasharray:none;stroke-dashoffset:0;stroke-opacity:1;marker-start:url(#EmptyTriangleIn-7)"
       d="m 63.983215,38.301048 c -1.927608,2.683574 -7.954877,3.520612 -16.924064,3.124951"
       id="path11223-3-4"
       sodipodi:nodetypes="cc" />
    <text
       xml:space="preserve"
       style="font-style:normal;font-variant:normal;font-weight:normal;font-stretch:normal;font-size:3.88056px;font-family:sans-serif;-inkscape-font-specification:'sans-serif, Normal';font-variant-ligatures:normal;font-variant-caps:normal;font-variant-numeric:normal;font-variant-east-asian:normal;fill:#3d65a5;fill-opacity:1;stroke:none;stroke-width:0.499999;stroke-dasharray:none;stroke-dashoffset:0;stroke-opacity:0.333333"
       x="14.725013"
       y="9.884676"
       id="text11299"><tspan
         sodipodi:role="line"
         id="tspan11297"
         style="font-style:normal;font-variant:normal;font-weight:normal;font-stretch:normal;font-size:3.52778px;font-family:sans-serif;-inkscape-font-specification:'sans-serif, Normal';font-variant-ligatures:normal;font-variant-caps:normal;font-variant-numeric:normal;font-variant-east-asian:normal;fill:#3d65a5;fill-opacity:1;stroke:none;stroke-width:0.5;stroke-opacity:0.333333"
         x="14.725013"
         y="9.884676">Discrete Bending Stiffness</tspan></text>
    <text
       xml:space="preserve"
       style="font-style:normal;font-variant:normal;font-weight:normal;font-stretch:normal;font-size:3.88056px;font-family:sans-serif;-inkscape-font-specification:'sans-serif, Normal';font-variant-ligatures:normal;font-variant-caps:normal;font-variant-numeric:normal;font-variant-east-asian:normal;fill:#3d65a5;fill-opacity:1;stroke:none;stroke-width:0.499999;stroke-dasharray:none;stroke-dashoffset:0;stroke-opacity:0.333333"
       x="3.2531004"
       y="28.567785"
       id="text11299-3"
       transform="rotate(-20.643403)"><tspan
         sodipodi:role="line"
         id="tspan11297-2"
         style="font-style:normal;font-variant:normal;font-weight:normal;font-stretch:normal;font-size:3.52778px;font-family:sans-serif;-inkscape-font-specification:'sans-serif, Normal';font-variant-ligatures:normal;font-variant-caps:normal;font-variant-numeric:normal;font-variant-east-asian:normal;fill:#3d65a5;fill-opacity:1;stroke:none;stroke-width:0.5;stroke-opacity:0.333333"
         x="3.2531004"
         y="28.567785">1-Step Nucleation</tspan></text>
    <text
       xml:space="preserve"
       style="font-style:normal;font-variant:normal;font-weight:normal;font-stretch:normal;font-size:3.88056px;font-family:sans-serif;-inkscape-font-specification:'sans-serif, Normal';font-variant-ligatures:normal;font-variant-caps:normal;font-variant-numeric:normal;font-variant-east-asian:normal;fill:#e57a77;fill-opacity:1;stroke:none;stroke-width:0.5;stroke-dasharray:none;stroke-dashoffset:0;stroke-opacity:0.333333"
       x="12.092957"
       y="50.908527"
       id="text11299-1"><tspan
         sodipodi:role="line"
         id="tspan11297-8"
         style="font-style:normal;font-variant:normal;font-weight:normal;font-stretch:normal;font-size:3.52778px;font-family:sans-serif;-inkscape-font-specification:'sans-serif, Normal';font-variant-ligatures:normal;font-variant-caps:normal;font-variant-numeric:normal;font-variant-east-asian:normal;fill:#e57a77;fill-opacity:1;stroke:none;stroke-width:0.5;stroke-dasharray:none;stroke-opacity:0.333333"
         x="12.092957"
         y="50.908527">Continuous Bending Stiffness</tspan></text>
    <text
       xml:space="preserve"
       style="font-style:normal;font-variant:normal;font-weight:normal;font-stretch:normal;font-size:3.88056px;font-family:sans-serif;-inkscape-font-specification:'sans-serif, Normal';font-variant-ligatures:normal;font-variant-caps:normal;font-variant-numeric:normal;font-variant-east-asian:normal;fill:#e57a77;fill-opacity:1;stroke:none;stroke-width:0.5;stroke-dasharray:none;stroke-dashoffset:0;stroke-opacity:0.333333"
       x="20.569748"
       y="31.818089"
       id="text11299-1-0"
       transform="rotate(14.53561)"><tspan
         sodipodi:role="line"
         id="tspan11297-8-9"
         style="font-style:normal;font-variant:normal;font-weight:normal;font-stretch:normal;font-size:3.52778px;font-family:sans-serif;-inkscape-font-specification:'sans-serif, Normal';font-variant-ligatures:normal;font-variant-caps:normal;font-variant-numeric:normal;font-variant-east-asian:normal;fill:#e57a77;fill-opacity:1;stroke:none;stroke-width:0.5;stroke-dasharray:none;stroke-opacity:0.333333"
         x="20.569748"
         y="31.818089">2-Step</tspan></text>
  </g>
</svg>
