<?xml version="1.0" encoding="UTF-8" standalone="no"?>
<svg
   xmlns:dc="http://purl.org/dc/elements/1.1/"
   xmlns:cc="http://creativecommons.org/ns#"
   xmlns:rdf="http://www.w3.org/1999/02/22-rdf-syntax-ns#"
   xmlns:svg="http://www.w3.org/2000/svg"
   xmlns="http://www.w3.org/2000/svg"
   xmlns:sodipodi="http://sodipodi.sourceforge.net/DTD/sodipodi-0.dtd"
   xmlns:inkscape="http://www.inkscape.org/namespaces/inkscape"
   width="8.5in"
   height="1.5in"
   viewBox="0 0 215.90001 38.1"
   version="1.1"
   id="svg8"
   inkscape:version="1.0.1 (c497b03c, 2020-09-10)"
   sodipodi:docname="fig-ORC-logo.svg">
  <defs
     id="defs2" />
  <sodipodi:namedview
     id="base"
     pagecolor="#ffffff"
     bordercolor="#666666"
     borderopacity="1.0"
     inkscape:pageopacity="0.0"
     inkscape:pageshadow="2"
     inkscape:zoom="0.79289367"
     inkscape:cx="416.97045"
     inkscape:cy="372.68719"
     inkscape:document-units="mm"
     inkscape:current-layer="layer1"
     inkscape:document-rotation="0"
     showgrid="false"
     units="in"
     inkscape:window-width="1440"
     inkscape:window-height="855"
     inkscape:window-x="0"
     inkscape:window-y="23"
     inkscape:window-maximized="1"
     inkscape:snap-others="false" />
  <metadata
     id="metadata5">
    <rdf:RDF>
      <cc:Work
         rdf:about="">
        <dc:format>image/svg+xml</dc:format>
        <dc:type
           rdf:resource="http://purl.org/dc/dcmitype/StillImage" />
        <dc:title></dc:title>
      </cc:Work>
    </rdf:RDF>
  </metadata>
  <g
     inkscape:label="Layer 1"
     inkscape:groupmode="layer"
     id="layer1">
    <g
       id="g38"
       transform="matrix(0.01340979,0,0,-0.01340979,3.0480015,20.083562)"
       style="stroke-width:2.63075">
      <path
         d="m 4249.36,1135.4 c 0,32.9 1.9,53.8 24,65.1 25.7,12.68 53.07,21.64 81.3,26.6 h 0.7 c 1.6,0 1.7,5.1 -0.7,5.1 h -611.3 c -2.5,0 -2.4,-4.7 -0.8,-5.1 h 0.7 c 28.18,-5.04 55.52,-14.03 81.2,-26.7 22.2,-11.2 24,-32.3 24,-65.2 V 524.301 C 3848.46,385 3768.46,278 3610.36,278 c -158.1,0 -238.2,107 -238.2,246.301 V 1135 c 0,33 1.9,54.2 24,65.5 25.66,12.68 53.01,21.64 81.2,26.6 h 0.8 c 1.6,0 1.6,5.1 -0.8,5.1 h -577.1 c -2.5,0 -2.4,-4.7 -0.8,-5.1 h 0.7 c 17.58,-3.52 33.91,-11.67 47.3,-23.6 19.1,-16.2 24,-35.4 24,-68.3 V 535.199 C 2971.46,245.801 3129.86,0 3610.46,0 c 480.6,0 639,245.801 639,535.199 l -0.1,600.201"
         style="fill:#1e2f58;fill-opacity:1;fill-rule:nonzero;stroke:none;stroke-width:2.63075"
         id="path40" />
      <path
         d="M 106.957,1135.4 V 119 c 0,-33 -2,-54.3008 -24.0976,-65.5 C 57.0859,40.8008 29.6484,31.8203 1.35938,26.8008 v 0 c -1.699224,0 -1.800786,-5.1016 0.69921,-5.1016 H 824.156 c 346.704,0 492.604,137.6018 492.604,352.1988 0,158.704 -73.9,257 -220,293.403 -0.9,0 -1,2.301 0,2.597 93.2,29.102 178.9,97.403 178.9,262.602 0,224.1 -151.3,300 -481.504,300 H 1.85938 c -2.402349,0 -2.300786,-4.7 -0.69922,-5.1 h 0.69922 c 28.21872,-4.98 55.59372,-13.94 81.30082,-26.6 22.0978,-11.6 23.7968,-32.4 23.7968,-65.4 z M 492.758,552.699 h 161.101 c 107.297,0 238.7,0 238.7,-148.597 0,-110 -94.102,-148.602 -220.602,-148.602 H 492.758 Z m 0,451.301 h 185.801 c 121,0 192.097,-18.801 192.097,-128.898 0,-71.5 -44.097,-135.301 -187.199,-135.301 H 492.758 V 1004"
         style="fill:#1e2f58;fill-opacity:1;fill-rule:nonzero;stroke:none;stroke-width:2.63075"
         id="path42" />
      <path
         d="m 2285.56,1227.1 c 20.5,0 52.3,-1.5 50,-50 -1.8,-41.8 -216.7,-346.202 -241.8,-391.901 -75.4,114.301 -240,346.501 -242.1,391.901 -1.3,37.2 30,50 57.2,50 h 0.7 c 1.6,0 1.8,5.1 -0.7,5.1 h -593.7 c -2.4,0 -2.3,-4.7 -0.7,-5.1 h 0.7 c 23.37,-3.6 45.98,-11.07 66.9,-22.1 5.27,-2.91 10.29,-6.25 15,-10 22.06,-19.7 41.1,-42.55 56.5,-67.8 l 418.8,-620.001 V 118.898 c 0,-32.898 -1.9,-54.1988 -24,-65.4996 -25.74,-12.5898 -53.1,-21.539 -81.3,-26.5976 h -0.7 c -1.6,-0.5 -1.7,-5.1016 0.8,-5.1016 h 644.2 c 2.5,0 2.5,4.6016 0.8,5.1016 h -0.8 c -28.17,5.0586 -55.5,14.0078 -81.2,26.5976 -22.2,11.3008 -24,32.5 -24,65.4026 v 385.801 l 419.3,622.598 c 15.41,25.28 34.44,48.16 56.5,67.9 4.75,4.12 9.76,7.93 15,11.4 14.07,10.24 30.22,17.27 47.3,20.6 h 0.7 c 1.7,0 1.7,5.1 -0.8,5.1 h -558.7 c -2.5,0 -2.4,-4.7 -0.7,-5.1 h 0.8"
         style="fill:#1e2f58;fill-opacity:1;fill-rule:nonzero;stroke:none;stroke-width:2.63075"
         id="path44" />
    </g>
    <text
       xml:space="preserve"
       style="font-style:normal;font-variant:normal;font-weight:bold;font-stretch:normal;font-size:12.5476px;line-height:1.25;font-family:sans-serif;-inkscape-font-specification:'sans-serif, Bold';font-variant-ligatures:normal;font-variant-caps:normal;font-variant-numeric:normal;font-variant-east-asian:normal;fill:#0062b8;fill-opacity:1;stroke-width:0.264583"
       x="2.5105932"
       y="33.401028"
       id="text56"
       transform="scale(0.9999725,1.0000275)"><tspan
         sodipodi:role="line"
         id="tspan54"
         x="2.5105932"
         y="33.401028"
         style="font-style:normal;font-variant:normal;font-weight:bold;font-stretch:normal;font-size:12.5476px;font-family:sans-serif;-inkscape-font-specification:'sans-serif, Bold';font-variant-ligatures:normal;font-variant-caps:normal;font-variant-numeric:normal;font-variant-east-asian:normal;fill:#0062b8;fill-opacity:1;stroke-width:0.264583">Office of Research Computing</tspan></text>
  </g>
</svg>
